<svg width="650" height="372" viewBox="0 0 650 372" fill="none" xmlns="http://www.w3.org/2000/svg">
<path d="M101.028 117.354C101.028 117.354 120.246 108.657 133.26 103.695C146.274 98.732 155.573 97.4792 159.919 104.935C164.265 112.391 150.62 131.025 150.62 131.025L101.028 117.366V117.354Z" fill="url(#paint0_radial_72_1339)"/>
<path d="M680.649 206.789C680.649 206.789 678.173 206.169 578.989 209.89C479.806 213.612 436.406 180.079 425.249 178.838C414.093 177.597 394.852 150.207 378.134 129.772C367.467 116.733 365.12 104.303 286.393 67.0471C207.666 29.7794 110.34 30.3998 110.34 30.3998C94.2179 35.3745 114.481 60.3921 124.592 70.769C134.703 81.146 179.149 90.6435 188.448 90.6435C197.747 90.6435 238.04 116.733 238.04 116.733C238.04 116.733 238.659 125.43 224.407 129.152C210.154 132.874 181.018 128.532 159.312 129.772C137.618 131.013 75.6196 109.898 71.9048 109.277C68.1899 108.657 47.1029 71.3894 44.6264 68.2878C42.1498 65.1862 48.3412 49.0336 47.1029 44.0711C45.8646 39.0964 71.9047 27.9185 75.0004 21.7153C78.0961 15.5 73.7622 3.08146 65.7013 0.600191C57.6404 -1.88108 39.042 3.70178 23.5514 10.5374C8.06087 17.3731 0 44.7035 0 55.2611C0 65.8187 12.3948 95.0101 24.1706 122.961C35.9463 150.912 48.9724 156.494 48.9724 156.494C48.9724 156.494 43.388 157.115 44.6385 180.091C45.8767 203.067 70.6786 211.764 70.6786 211.764C70.6786 211.764 52.0803 231.018 71.9169 240.955C77.2342 243.619 86.0357 247.803 96.2939 252.644L94.8493 252.753C91.8385 258.032 87.9173 263.542 89.4591 268.298C91.2194 273.734 98.4305 275.608 101.053 276.35C138.128 286.907 147.949 305.006 202.093 311.756C227.077 314.87 246.914 313.751 282.059 311.756C314.788 309.907 320.664 307.256 339.711 309.895C342.54 310.285 361.321 315.417 399.221 324.175C415.343 327.897 429.596 331.631 429.596 331.631C429.596 331.631 441.371 334.112 476.091 335.973C510.812 337.834 654.002 372 654.002 372C654.002 372 677.554 345.91 689.341 304.3C701.129 262.69 680.661 206.789 680.661 206.789H680.649Z" fill="url(#paint1_radial_72_1339)"/>
<path opacity="0.14" d="M48.96 157.419C56.0861 163.014 102.582 168.913 125.83 186.294C149.078 203.675 154.031 210.207 154.031 210.207" stroke="#ABA9A3" stroke-width="2" stroke-miterlimit="10" stroke-linecap="round"/>
<path opacity="0.14" d="M59.4971 204.624C70.6537 210.523 128.003 234.752 133.89 241.575" stroke="#ABA9A3" stroke-width="2" stroke-miterlimit="10" stroke-linecap="round"/>
<path opacity="0.14" d="M169.837 254.31C176.66 260.209 204.861 271.387 217.255 267.349" stroke="#ABA9A3" stroke-width="2" stroke-miterlimit="10" stroke-linecap="round"/>
<path opacity="0.14" d="M168.902 194.687C175.725 202.447 210.749 214.561 220.667 210.219" stroke="#ABA9A3" stroke-width="2" stroke-miterlimit="10" stroke-linecap="round"/>
<path opacity="0.14" d="M94.8242 252.753C104.123 255.855 138.212 268.285 145.654 273.564" stroke="#ABA9A3" stroke-width="2" stroke-miterlimit="10" stroke-linecap="round"/>
<path opacity="0.14" d="M58.5625 113.315C62.593 112.695 76.2261 110.834 77.78 111.759" stroke="#ABA9A3" stroke-width="2" stroke-miterlimit="10" stroke-linecap="round"/>
<path opacity="0.14" d="M226.252 44.3751C223.156 50.2742 211.684 74.1868 216.018 78.5412" stroke="#ABA9A3" stroke-width="2" stroke-miterlimit="10" stroke-linecap="round"/>
<defs>
<radialGradient id="paint0_radial_72_1339" cx="0" cy="0" r="1" gradientUnits="userSpaceOnUse" gradientTransform="translate(130.905 114.466) scale(23.8428 29.3826)">
<stop stop-color="#EBD9CF"/>
<stop offset="1" stop-color="#EEC7C2"/>
</radialGradient>
<radialGradient id="paint1_radial_72_1339" cx="0" cy="0" r="1" gradientUnits="userSpaceOnUse" gradientTransform="translate(346.486 184.821) scale(277.968 342.553)">
<stop stop-color="#EBD9CF"/>
<stop offset="1" stop-color="#EEC7C2"/>
</radialGradient>
</defs>
</svg>
