<svg width="645" height="261" viewBox="0 0 645 261" fill="none" xmlns="http://www.w3.org/2000/svg">
<path d="M357.771 75.4403C357.771 75.4403 418.223 29.6706 440.402 26.4676C462.582 23.2538 496.858 -2.87726 506.316 0.261051C515.785 3.39936 521.763 22.7361 488.726 38.0718C455.688 53.4074 449.225 47.4759 447.35 57.0958C445.476 66.7156 357.771 75.4511 357.771 75.4511V75.4403Z" fill="url(#paint0_radial_72_1327)"/>
<path d="M599.451 95.7801C580.751 83.669 551.042 67.147 526.848 55.0251C502.643 42.9141 512.543 52.8251 498.248 51.7251C483.943 50.625 402.539 29.6922 384.938 26.3921C367.336 23.092 276.022 35.2031 213.318 35.2031C150.615 35.2031 140.715 44.0141 86.8013 51.7251C32.8983 59.436 -43.0119 52.8251 -43.0119 52.8251C-43.0119 52.8251 -51.8127 74.858 -54.5595 119.463C-57.3064 164.068 -46.3082 203.723 -46.3082 203.723C-38.6062 203.723 51.0491 190.501 88.4602 180.04C125.871 169.579 164.92 169.579 187.476 178.94C210.033 188.301 227.085 203.723 254.036 208.123C290.209 214.033 304.299 200.66 344.801 205.923C368.974 209.061 388.018 217.171 400.352 223.545C405.674 224.375 427.616 227.729 448.611 229.185C448.934 230.932 449.171 232.399 449.311 233.456C450.41 242.267 465.814 257.689 478.46 259.339C491.106 260.989 487.81 242.267 481.207 232.356C480.647 231.515 480.14 230.393 479.688 229.088C484.169 228.463 487.627 227.427 489.544 225.831C491.656 224.073 492.765 221.895 492.765 221.895C497.72 214.184 488.37 201.523 485.613 196.012C484.46 193.693 479.979 190.102 474.162 186.651C473.354 178.649 472.385 172.103 470.769 169.579C465.814 161.868 449.322 149.207 449.322 149.207C459.221 156.368 476.273 153.057 482.877 166.279C489.48 179.501 514.234 208.134 514.234 208.134C536.241 261.55 553.293 261 559.885 261C566.478 261 573.092 249.439 568.137 240.628C563.182 231.817 552.184 188.862 547.239 185.012C542.295 181.162 519.189 138.757 512.586 129.946C505.982 121.135 476.833 104.063 476.833 104.063C476.833 104.063 479.58 101.863 501.587 102.963C523.595 104.063 541.196 110.674 541.196 110.674C624.259 148.118 621.501 151.979 640.201 142.067C658.902 132.156 618.194 107.924 599.494 95.8124L599.451 95.7801ZM398.683 162.957L404.737 154.696C404.737 154.696 411.997 162.332 419.43 169.87C408.291 166.408 398.683 162.957 398.683 162.957Z" fill="url(#paint1_radial_72_1327)"/>
<path opacity="0.14" d="M425.469 84.788C430.416 92.6298 438.924 97.9329 457.876 100.706C476.827 103.48 493.305 101.628 500.715 98.4027" stroke="#ABA9A3" stroke-width="2" stroke-miterlimit="10" stroke-linecap="round"/>
<path opacity="0.14" d="M425.903 129.363C430.858 138.724 459.727 161.307 484.212 149.185" stroke="#ABA9A3" stroke-width="2" stroke-miterlimit="10" stroke-linecap="round"/>
<path opacity="0.14" d="M382.729 96.0497C378.323 106.791 359.903 134.044 359.073 143.685" stroke="#ABA9A3" stroke-width="2" stroke-miterlimit="10" stroke-linecap="round"/>
<path opacity="0.14" d="M400.33 120.002C390.7 122.483 369.253 121.933 369.253 121.933" stroke="#ABA9A3" stroke-width="2" stroke-miterlimit="10" stroke-linecap="round"/>
<path opacity="0.14" d="M328.546 123.583C337.067 130.463 375.576 164.607 396.205 164.057" stroke="#ABA9A3" stroke-width="2" stroke-miterlimit="10" stroke-linecap="round"/>
<path opacity="0.14" d="M412.976 184.71C415.723 193.801 407.472 215.004 405.274 215.823" stroke="#ABA9A3" stroke-width="2" stroke-miterlimit="10" stroke-linecap="round"/>
<defs>
<radialGradient id="paint0_radial_72_1327" cx="0" cy="0" r="1" gradientUnits="userSpaceOnUse" gradientTransform="translate(434.147 46.0789) rotate(-23.8447) scale(61.1009 88.1956)">
<stop stop-color="#EBD9CF"/>
<stop offset="1" stop-color="#EEC7C2"/>
</radialGradient>
<radialGradient id="paint1_radial_72_1327" cx="0" cy="0" r="1" gradientUnits="userSpaceOnUse" gradientTransform="translate(294.97 142.75) scale(261.038 321.451)">
<stop stop-color="#EBD9CF"/>
<stop offset="1" stop-color="#EEC7C2"/>
</radialGradient>
</defs>
</svg>
