<svg width="80" height="30" viewBox="0 0 80 30" fill="none" xmlns="http://www.w3.org/2000/svg">
<g clip-path="url(#clip0_228_1054)">
<path d="M6.01227 2.47487C6.01021 1.64991 6.06172 0.809487 5.93603 0H73.987C74.1292 0.788863 73.8428 1.66538 74.0633 2.47487H76.0414V4.94973H78.0195V7.42459H79.9976V22.4723H78.0195V25.0425H76.0414V27.5174H74.0633V29.9923H5.93603V27.5174H3.95792V25.0425H1.97982C1.97982 24.1866 1.98188 23.3256 1.97982 22.4723C2.28065 22.4749 3.94556 22.4104 4.03622 22.5677C4.00944 22.743 3.96204 22.9028 3.95586 23.0859C3.94762 23.3411 3.90435 24.9472 4.07331 24.9472H5.82476C5.84949 24.9472 5.94015 25.0735 6.01433 25.0425V27.4246C6.08851 27.3937 6.17917 27.52 6.2039 27.52H73.8737C73.8737 27.52 73.987 27.3885 73.987 27.3782V25.0451C74.6278 24.8492 75.3099 24.9936 75.9651 24.9497V22.6167C75.9651 22.6167 76.0702 22.4749 76.0785 22.4749H77.8299C77.8794 22.4749 78.0195 22.0134 78.0195 21.9515V7.52256H76.0414V5.47564C76.0414 5.41377 75.8992 4.95231 75.8518 4.95231H74.1004C74.1004 4.95231 73.987 4.82083 73.987 4.81052V2.47744C51.3315 2.54189 28.6698 2.38979 6.01227 2.47744C6.01433 3.3024 6.01227 4.12993 6.01227 4.95231H4.03416C4.05889 5.04512 3.95792 5.15855 3.95792 5.18948V7.52256H1.97982C1.98806 12.5058 1.96745 17.4916 1.97982 22.4749C1.32045 22.4671 0.659017 22.48 0.00170898 22.4749V7.42717H1.97982V4.95231H3.95792V2.47744C4.64202 2.47744 5.33023 2.48002 6.01227 2.47744V2.47487Z" fill="#5C5653"/>
<path d="M9.97087 4.95233V9.85566C9.97087 9.85566 9.86579 9.99745 9.85754 9.99745H7.99277V12.4723H3.95825V10.1392C3.95825 10.1392 4.06334 9.99745 4.07158 9.99745H5.89927C6.11975 9.99745 5.94254 9.32975 5.93842 9.18796C5.93224 8.94821 5.87866 7.52258 6.05175 7.52258H7.87944C7.87944 7.52258 7.99277 7.3911 7.99277 7.38079V4.95233H9.97087Z" fill="#F8F6EC"/>
<path d="M76.0417 7.52257V5.47565C76.0417 5.41378 75.8995 4.95232 75.8521 4.95232H74.1007C74.1007 4.95232 73.9873 4.82085 73.9873 4.81053V2.47746C51.3318 2.54191 28.6701 2.38981 6.01259 2.47746C6.01465 3.30241 6.01259 4.12995 6.01259 4.95232H4.03448C4.05921 5.04513 3.95824 5.15856 3.95824 5.1895V7.52257H1.98013C1.98838 12.5058 1.96777 17.4916 1.98013 22.4749C2.28097 22.4775 3.94588 22.413 4.03654 22.5703C4.00975 22.7456 3.96236 22.9054 3.95618 23.0884C3.94794 23.3437 3.90467 24.9497 4.07363 24.9497H5.82508C5.8498 24.9497 5.94047 25.0761 6.01465 25.0451V27.4272C6.08883 27.3963 6.17949 27.5226 6.20422 27.5226H73.874C73.874 27.5226 73.9873 27.3911 73.9873 27.3808V25.0477C74.6282 24.8518 75.3102 24.9961 75.9654 24.9523V22.6192C75.9654 22.6192 76.0705 22.4775 76.0788 22.4775H77.8302C77.8797 22.4775 78.0198 22.016 78.0198 21.9541V7.52257H76.0417ZM9.97086 9.85565C9.97086 9.85565 9.86577 9.99744 9.85753 9.99744H7.99275V12.4723H3.95824V10.1392C3.95824 10.1392 4.06333 9.99744 4.07157 9.99744H5.89926C6.11973 9.99744 5.94253 9.32974 5.93841 9.18795C5.93223 8.9482 5.87865 7.52257 6.05174 7.52257H7.87942C7.87942 7.52257 7.99275 7.39109 7.99275 7.38078V4.95232H9.97086V9.85565Z" fill="url(#paint0_radial_228_1054)"/>
</g>
<defs>
<radialGradient id="paint0_radial_228_1054" cx="0" cy="0" r="1" gradientUnits="userSpaceOnUse" gradientTransform="translate(39.9979 14.986) scale(38.0219 12.5366)">
<stop offset="0.451923" stop-color="#EFE5DF"/>
<stop offset="1" stop-color="#F0C7C5"/>
</radialGradient>
<clipPath id="clip0_228_1054">
<rect width="80" height="30" fill="white"/>
</clipPath>
</defs>
</svg>
