<svg width="252" height="391" viewBox="0 0 252 391" fill="none" xmlns="http://www.w3.org/2000/svg">
<g filter="url(#filter0_ifn_217_1292)">
<path d="M111.788 1L102.46 56.9427C103.084 57.6161 113.983 53.8251 115.379 57.4664L108.047 112.885H78.2174L87.545 57.8655H67.4927C64.6245 57.8655 54.8726 110.765 52.2288 113.259C49.9093 115.454 44.3225 111.763 41.0802 115.355C38.9103 117.749 23.0728 174.215 23.422 177.433L68.7897 278.269C71.4833 280.289 78.8658 277.272 82.432 279.766C85.999 282.26 102.285 330.396 105.702 332.94C107.897 334.586 130.593 334.137 131.367 332.89L109.917 278.818C116.377 278.519 138.151 275.551 141.842 279.99C148.277 287.747 155.011 323.163 161.196 333.838H147.204L165.86 388.858C158.328 387.261 120.891 391.302 117.3 388.458C113.185 385.191 97.472 337.853 94.155 335.359C91.685 333.513 84.478 335.858 82.083 334.611C79.4395 333.214 60.3845 281.412 57.5413 279.89C55.6956 278.893 49.7846 282.335 47.3154 280.115L1 178.38C4.4419 170.3 21.7509 117.125 24.9683 114.382C26.8888 112.761 30.9043 114.706 32.4257 113.708C34.8699 112.137 47.6646 61.3572 51.0815 58.4391C52.9771 56.818 55.945 58.938 57.8406 57.3168C61.1577 54.4735 70.2113 8.6319 74.6508 3.4692C75.7731 2.1722 80.1877 1 81.51 1H111.813H111.788Z" fill="#C67F82"/>
<path d="M163.865 222.127L129.546 224.272L168.778 332.84C173.193 333.987 190.302 332.042 196.463 332.665C185.588 295.828 174.739 258.99 163.865 222.127Z" fill="#C67F82"/>
<path d="M230.507 278.893L244.474 279.541L232.128 225.22C233.026 221.104 244.05 228.238 245.397 221.279C246.943 213.198 232.752 179.054 233.849 167.955L246.893 168.579L241.107 112.786L250.46 112.736C250.186 106.126 242.803 59.4617 244.649 57.3916C244.898 57.1173 248.116 57.8655 248.39 57.5662C250.335 55.4961 242.554 7.63432 243.077 1.32422L240.758 2.67102C239.636 9.38022 244.325 53.5008 242.878 55.8453C242.03 57.242 237.89 55.546 237.241 56.1196C235.146 57.9902 240.733 105.553 240.209 112.287C238.513 112.486 230.358 111.439 229.958 111.788C227.664 113.883 235.046 165.187 232.976 167.007C232.453 167.481 220.93 166.908 218.959 167.282L230.358 222.9L216.391 222.252L228.662 278.843L214.695 278.194L227.015 333.838L213.847 333.214L213.747 335.584C217.613 344.138 221.853 388.683 224.447 388.808L238.413 389.456L228.886 333.938L241.93 334.561L230.532 278.943L230.507 278.893Z" fill="#C67F82"/>
<path d="M151.893 55.9949C148.526 64.4748 150.496 167.88 144.909 167.88H111.813L123.011 55.9949H151.918H151.893Z" fill="#C67F82"/>
</g>
<defs>
<filter id="filter0_ifn_217_1292" x="0" y="0" width="251.46" height="393.503" filterUnits="userSpaceOnUse" color-interpolation-filters="sRGB">
<feFlood flood-opacity="0" result="BackgroundImageFix"/>
<feBlend mode="normal" in="SourceGraphic" in2="BackgroundImageFix" result="shape"/>
<feColorMatrix in="SourceAlpha" type="matrix" values="0 0 0 0 0 0 0 0 0 0 0 0 0 0 0 0 0 0 127 0" result="hardAlpha"/>
<feOffset dy="4"/>
<feGaussianBlur stdDeviation="2"/>
<feComposite in2="hardAlpha" operator="arithmetic" k2="-1" k3="1"/>
<feColorMatrix type="matrix" values="0 0 0 0 0 0 0 0 0 0 0 0 0 0 0 0 0 0 0.9 0"/>
<feBlend mode="normal" in2="shape" result="effect1_innerShadow_217_1292"/>
<feGaussianBlur stdDeviation="0.5" result="effect2_foregroundBlur_217_1292"/>
<feTurbulence type="fractalNoise" baseFrequency="2 2" stitchTiles="stitch" numOctaves="3" result="noise" seed="9163" />
<feColorMatrix in="noise" type="luminanceToAlpha" result="alphaNoise" />
<feComponentTransfer in="alphaNoise" result="coloredNoise1">
<feFuncA type="discrete" tableValues="1 1 1 1 1 1 1 1 1 1 1 1 1 1 1 1 1 1 1 1 1 1 1 1 1 1 1 1 1 1 1 1 1 1 1 1 1 1 1 1 1 1 1 1 1 1 1 1 1 1 1 0 0 0 0 0 0 0 0 0 0 0 0 0 0 0 0 0 0 0 0 0 0 0 0 0 0 0 0 0 0 0 0 0 0 0 0 0 0 0 0 0 0 0 0 0 0 0 0 0 "/>
</feComponentTransfer>
<feComposite operator="in" in2="effect2_foregroundBlur_217_1292" in="coloredNoise1" result="noise1Clipped" />
<feFlood flood-color="rgba(0, 0, 0, 0.25)" result="color1Flood" />
<feComposite operator="in" in2="noise1Clipped" in="color1Flood" result="color1" />
<feMerge result="effect3_noise_217_1292">
<feMergeNode in="effect2_foregroundBlur_217_1292" />
<feMergeNode in="color1" />
</feMerge>
</filter>
</defs>
</svg>
