<svg width="318" height="297" viewBox="0 0 318 297" fill="none" xmlns="http://www.w3.org/2000/svg">
<g filter="url(#filter0_d_54_514)">
<g filter="url(#filter1_dg_54_514)">
<path d="M47.5493 73.4664C47.7113 63.985 45.2882 53.6649 43.7333 44.391C42.4764 38.4806 42.5411 33.0204 48.6637 28.2885C53.1731 24.6072 61.6151 22.7401 68.7678 23.0932C74.9552 23.3845 81.2527 24.3203 87.5761 24.1526C100.301 23.8701 111.555 21.4512 124.046 21.8528C136.524 21.9279 152.015 23.4287 164.403 21.95C171.621 21.1289 177.866 19.9283 185.427 20.0034C192.185 19.9813 199.357 20.8111 206.134 21.46C215.8 22.4223 223.588 22.8239 232.503 22.5326C239.092 22.2987 245.746 22.2589 252.354 22.8548C262.818 23.8348 272.763 25.9094 283.563 25.3135C290.34 25.3399 304.017 22.8681 308.65 26.0374C311.196 27.8957 311.306 30.7383 311.526 33.2279C311.63 41.0275 311.993 49.4627 311.079 57.3197C310.023 65.0708 305.624 73.0382 303.337 80.7054C301.4 86.6688 302.132 92.1157 303.292 98.2777C304.523 105.777 306.641 113.506 306.661 121.01C306.726 128.801 303.544 136.821 304.192 144.559C304.529 148.673 305.579 151.953 306.849 156.345C308.138 160.697 309.596 165.499 310.904 169.891C312.79 176.181 314.753 182.317 313.71 188.567C312.544 197.841 309.181 207.623 309.162 216.826C309.252 225.107 312.064 234.045 312.44 242.392C312.783 250.726 308.954 258.949 305.391 267.106C302.404 272.99 300.111 279.779 289.686 280.781C283.311 281.523 275.789 280.216 269.2 279.302C262.98 278.455 257.188 277.66 251 277.546C237.362 277.25 223.569 280.406 210.429 280.022C202.894 279.695 197.037 278.671 188.958 277.599C179.434 276.279 169.185 274.875 159.641 273.56C146.463 271.582 140.243 271.388 127.389 273.286C121.383 274.094 114.859 275.012 108.84 275.837C99.0632 277.263 90.1158 278.234 80.8445 276.146C73.329 274.566 64.7638 272.549 57.8767 270.421C46.2536 267.04 43.1502 258.927 42.2042 250.819C40.9409 242.167 45.8713 233.851 47.8733 225.438C49.1626 220.282 48.1713 213.966 47.1801 208.104C46.1499 201.65 44.9254 194.16 44.0183 187.936C42.1524 176.19 45.6316 164.749 46.6488 153.122C47.4263 146.62 46.5516 140.123 45.664 133.383C44.7505 125.715 43.4676 117.497 42.8716 109.975C42.2107 97.9025 47.057 85.7595 47.5558 73.5414V73.4619L47.5493 73.4664Z" fill="#C4C7CE"/>
</g>
<path d="M66 69.5H73.5V72H66V69.5ZM73.5 72H76V74.5H73.5V72ZM66 72V84.5H63.5V72H66ZM66 84.5H73.5V87H66V84.5ZM73.5 84.5V82H76V84.5H73.5ZM103.5 69.5H111V72H103.5V69.5ZM111 72H113.5V84.5H111V72ZM111 84.5V87H103.5V84.5H111ZM103.5 84.5H101V72H103.5V84.5ZM138.5 69.5H141V84.5H148.5V87H138.5V69.5ZM173.5 69.5H176V84.5H183.5V87H173.5V69.5ZM208.5 69.5H216V72H213.5V84.5H216V87H208.5V84.5H211V72H208.5V69.5ZM241 69.5H253.5V72H246V84.5H253.5V87H243.5V72H241V69.5ZM253.5 72H256V84.5H253.5V72ZM281 69.5H293.5V72H283.5V77H291V79.5H283.5V84.5H293.5V87H281V69.5Z" fill="black"/>
<path d="M63.5 232.5H76V235H71V250H68.5V235H63.5V232.5ZM101 232.5H108.5V235H106V247.5H108.5V250H101V247.5H103.5V235H101V232.5ZM136 232.5H143.5V235H136V232.5ZM143.5 235H146V247.5H143.5V235ZM143.5 247.5V250H136V247.5H143.5ZM136 247.5H133.5V235H136V247.5ZM201 232.5H213.5V235H203.5V240H211V242.5H203.5V250H201V232.5ZM241 232.5H248.5V235H241V232.5ZM248.5 235H251V237.5H248.5V235ZM241 235V247.5H238.5V235H241ZM241 247.5H248.5V250H241V247.5ZM248.5 247.5V245H251V247.5H248.5Z" fill="black"/>
<path d="M63.5 193.5H71V196H68.5V208.5H71V211H63.5V208.5H66V196H63.5V193.5ZM96 193.5H106V196H98.5V201H106V203.5H98.5V211H96V193.5ZM106 196H108.5V201H106V196ZM133.5 193.5H136V196H138.5V198.5H136V211H133.5V193.5ZM138.5 198.5H141V201H138.5V198.5ZM141 201H143.5V193.5H146V211H143.5V203.5H141V201ZM201 193.5H203.5V201H206V198.5H208.5V203.5H203.5V211H201V193.5ZM208.5 198.5V196H211V198.5H208.5ZM211 196V193.5H213.5V196H211ZM208.5 203.5H211V208.5H208.5V203.5ZM211 208.5H213.5V211H211V208.5ZM238.5 193.5H241V208.5H248.5V211H238.5V193.5Z" fill="black"/>
<path d="M66 153.5H73.5V156H66V153.5ZM73.5 156H76V158.5H73.5V156ZM66 156V161H63.5V156H66ZM66 161H73.5V163.5H66V161ZM73.5 163.5H76V168.5H73.5V163.5ZM73.5 168.5V171H66V168.5H73.5ZM66 168.5H63.5V166H66V168.5ZM101 153.5H113.5V156H106V168.5H113.5V171H103.5V156H101V153.5ZM113.5 156H116V168.5H113.5V156Z" fill="black"/>
<path d="M63.5 112.5H66V120H73.5V112.5H76V130H73.5V122.5H66V130H63.5V112.5Z" fill="black"/>
<path d="M98.5 112.5H101V120H103.5V117.5H106V122.5H101V130H98.5V112.5ZM106 117.5V115H108.5V117.5H106ZM108.5 115V112.5H111V115H108.5ZM106 122.5H108.5V127.5H106V122.5ZM108.5 127.5H111V130H108.5V127.5ZM136 112.5H138.5V120H146V112.5H148.5V130H146V122.5H138.5V130H136V112.5ZM203.5 112.5H206V120H203.5V112.5ZM206 120H208.5V122.5H206V120ZM208.5 122.5H211V130H208.5V122.5ZM211 122.5V120H213.5V122.5H211ZM213.5 120V112.5H216V120H213.5ZM241 112.5H253.5V115H246V127.5H253.5V130H243.5V115H241V112.5ZM253.5 115H256V127.5H253.5V115ZM281 112.5H283.5V120H281V112.5ZM283.5 120H286V122.5H283.5V120ZM286 122.5H288.5V130H286V122.5ZM288.5 122.5V120H291V122.5H288.5ZM291 120V112.5H293.5V120H291Z" fill="black"/>
<path d="M169.75 112.5H172.25V127.5H169.75V112.5ZM172.25 127.5H174.75V130H172.25V127.5ZM174.75 127.5V125H177.25V127.5H174.75ZM177.25 125V117.5H179.75V125H177.25ZM179.75 125H182.25V127.5H179.75V125ZM182.25 127.5H184.75V130H182.25V127.5ZM184.75 127.5V112.5H187.25V127.5H184.75ZM174.75 152.5H182.25V155H179.75V167.5H182.25V170H174.75V167.5H177.25V155H174.75V152.5ZM172.25 192.5H184.75V195H179.75V210H177.25V195H172.25V192.5ZM172.25 232.5H174.75V240H182.25V232.5H184.75V250H182.25V242.5H174.75V250H172.25V232.5Z" fill="black"/>
<path d="M137.5 152.5H140V157.5H142.5V160H140V170H137.5V152.5ZM142.5 160H147.5V162.5H142.5V160ZM147.5 160V157.5H150V152.5H152.5V170H150V160H147.5ZM215.5 152.5H218V155H220.5V157.5H218V170H215.5V152.5ZM220.5 157.5H223V160H220.5V157.5ZM223 160H225.5V152.5H228V170H225.5V162.5H223V160ZM257 152.5H269.5V155H259.5V160H267V162.5H259.5V167.5H269.5V170H257V152.5Z" fill="black"/>
<g filter="url(#filter2_d_54_514)">
<g filter="url(#filter3_dg_54_514)">
<path d="M31.1724 59.1768C31.3192 59.6692 31.7423 59.9144 32.2335 59.9784C33.2974 60.0699 33.5238 59.3848 34.6176 59.154C36.3964 58.5353 37.4823 58.8599 39.4161 56.5511C41.3179 54.168 43.6056 51.8759 44.0631 50.475C44.5075 49.0745 45.5782 49.5693 46.4028 47.6906C47.2134 45.8086 47.9398 44.8074 49.1184 43.41C50.3173 42.0262 53.0547 37.2071 53.448 35.1709C53.8606 33.1599 55.5045 31.3834 56.208 30.1841C56.4313 29.8022 56.6336 29.5232 56.8081 29.3198C56.882 29.2337 56.9701 29.2164 57.0388 29.2443C57.0389 29.2443 57.0389 29.2443 57.039 29.2443C57.1245 29.2792 57.1798 29.3842 57.138 29.5174C56.9335 30.1682 56.6762 31.1795 56.5009 32.4327C56.1628 34.7713 55.4429 34.7162 54.4354 37.6371C53.4074 40.5493 53.1605 42.5107 51.0674 45.5224C48.9394 48.4835 50.0742 50.1522 46.352 53.9714C42.4404 57.6131 43.9136 59.2237 39.4161 63.2151C38.3583 64.0207 36.9996 64.8225 35.224 65.1709C33.4722 65.5546 31.2251 65.1292 29.7647 64.089C27.7604 62.8152 26.7202 60.4862 26.515 58.8491C26.2643 57.1588 26.4293 55.8468 26.5003 54.8554C26.7762 51.3736 28.1001 47.1532 30.2571 43.2487C32.407 39.3298 34.691 34.341 37.7969 30.563C40.8647 26.7618 45.5301 21.7441 48.038 19.7096C50.021 18.1488 50.6539 17.4366 52.556 16.5007C53.1017 16.3203 53.7488 16.2385 54.4777 16.3008C56.4931 16.4663 58.6245 18.0226 59.8412 19.7039C60.447 20.5725 60.0347 20.6204 59.1945 20.0965C57.9488 19.3386 57.0181 18.5913 56.1981 18.633C54.6001 18.7822 54.1499 18.9208 53.18 18.6457C53.1795 18.641 53.178 18.6365 53.1754 18.6323C53.1495 18.5734 52.953 18.6271 52.8421 18.6782C52.7153 18.7355 52.5803 18.8296 52.4496 18.9453C52.2269 19.1485 52.0588 19.3974 51.8933 19.6682C51.639 20.1443 51.4092 20.6903 51.0214 20.9856C50.1924 21.6917 49.6379 21.0954 46.4352 25.7504C43.3158 30.4471 41.7427 33.1127 40.6644 34.9344C39.5911 36.7563 36.7743 40.2433 35.3772 43.3989C33.8885 46.4658 31.134 52.9006 31.4063 55.3584C31.4519 56.5686 31.4246 57.045 31.2967 57.5128C31.1907 57.9818 30.9786 58.4472 31.1724 59.1768Z" fill="#EFE5DF"/>
</g>
</g>
</g>
<defs>
<filter id="filter0_d_54_514" x="0" y="0" width="320" height="305" filterUnits="userSpaceOnUse" color-interpolation-filters="sRGB">
<feFlood flood-opacity="0" result="BackgroundImageFix"/>
<feColorMatrix in="SourceAlpha" type="matrix" values="0 0 0 0 0 0 0 0 0 0 0 0 0 0 0 0 0 0 127 0" result="hardAlpha"/>
<feOffset dy="4"/>
<feGaussianBlur stdDeviation="2"/>
<feComposite in2="hardAlpha" operator="out"/>
<feColorMatrix type="matrix" values="0 0 0 0 0 0 0 0 0 0 0 0 0 0 0 0 0 0 0.25 0"/>
<feBlend mode="normal" in2="BackgroundImageFix" result="effect1_dropShadow_54_514"/>
<feBlend mode="normal" in="SourceGraphic" in2="effect1_dropShadow_54_514" result="shape"/>
</filter>
<filter id="filter1_dg_54_514" x="38" y="16" width="280" height="273" filterUnits="userSpaceOnUse" color-interpolation-filters="sRGB">
<feFlood flood-opacity="0" result="BackgroundImageFix"/>
<feColorMatrix in="SourceAlpha" type="matrix" values="0 0 0 0 0 0 0 0 0 0 0 0 0 0 0 0 0 0 127 0" result="hardAlpha"/>
<feOffset dy="4"/>
<feGaussianBlur stdDeviation="2"/>
<feComposite in2="hardAlpha" operator="out"/>
<feColorMatrix type="matrix" values="0 0 0 0 0 0 0 0 0 0 0 0 0 0 0 0 0 0 0.25 0"/>
<feBlend mode="normal" in2="BackgroundImageFix" result="effect1_dropShadow_54_514"/>
<feBlend mode="normal" in="SourceGraphic" in2="effect1_dropShadow_54_514" result="shape"/>
<feTurbulence type="fractalNoise" baseFrequency="2 2" numOctaves="3" seed="6006" />
<feDisplacementMap in="shape" scale="8" xChannelSelector="R" yChannelSelector="G" result="displacedImage" width="100%" height="100%" />
<feMerge result="effect2_texture_54_514">
<feMergeNode in="displacedImage"/>
</feMerge>
</filter>
<filter id="filter2_d_54_514" x="4" y="0" width="87.1387" height="88.8969" filterUnits="userSpaceOnUse" color-interpolation-filters="sRGB">
<feFlood flood-opacity="0" result="BackgroundImageFix"/>
<feColorMatrix in="SourceAlpha" type="matrix" values="0 0 0 0 0 0 0 0 0 0 0 0 0 0 0 0 0 0 127 0" result="hardAlpha"/>
<feOffset dx="4" dy="4"/>
<feGaussianBlur stdDeviation="2"/>
<feComposite in2="hardAlpha" operator="out"/>
<feColorMatrix type="matrix" values="0 0 0 0 0 0 0 0 0 0 0 0 0 0 0 0 0 0 0.25 0"/>
<feBlend mode="normal" in2="BackgroundImageFix" result="effect1_dropShadow_54_514"/>
<feBlend mode="normal" in="SourceGraphic" in2="effect1_dropShadow_54_514" result="shape"/>
</filter>
<filter id="filter3_dg_54_514" x="22.3809" y="15.2801" width="41.7485" height="58.03" filterUnits="userSpaceOnUse" color-interpolation-filters="sRGB">
<feFlood flood-opacity="0" result="BackgroundImageFix"/>
<feColorMatrix in="SourceAlpha" type="matrix" values="0 0 0 0 0 0 0 0 0 0 0 0 0 0 0 0 0 0 127 0" result="hardAlpha"/>
<feOffset dy="4"/>
<feGaussianBlur stdDeviation="2"/>
<feComposite in2="hardAlpha" operator="out"/>
<feColorMatrix type="matrix" values="0 0 0 0 0 0 0 0 0 0 0 0 0 0 0 0 0 0 0.25 0"/>
<feBlend mode="normal" in2="BackgroundImageFix" result="effect1_dropShadow_54_514"/>
<feBlend mode="normal" in="SourceGraphic" in2="effect1_dropShadow_54_514" result="shape"/>
<feTurbulence type="fractalNoise" baseFrequency="0.25 0.25" numOctaves="3" seed="6460" />
<feDisplacementMap in="shape" scale="2" xChannelSelector="R" yChannelSelector="G" result="displacedImage" width="100%" height="100%" />
<feMerge result="effect2_texture_54_514">
<feMergeNode in="displacedImage"/>
</feMerge>
</filter>
</defs>
</svg>
