<svg width="246" height="169" viewBox="0 0 246 169" fill="none" xmlns="http://www.w3.org/2000/svg">
<g clip-path="url(#clip0_50_437)">
<g style="mix-blend-mode:darken" filter="url(#filter0_i_50_437)">
<path d="M0 17.65V160.005H238V18.1419H85.8295C85.8295 18.1419 83.8517 2.13182 71.7673 0.655966C59.6829 -0.819889 21.4592 0.655966 21.4592 0.655966C21.4592 0.655966 13.8159 -0.573914 7.89687 11.7393C7.89687 11.7393 2.96314 18.3879 0.00724483 17.65H0Z" fill="#99ADB4"/>
</g>
<g filter="url(#filter1_g_50_437)">
<rect x="5" y="24" width="229" height="131" fill="#EFEDE6"/>
</g>
<path d="M119.533 15.829C52.5651 19.5941 23.7475 38.9425 17.7096 48.1461C-37.5105 105.093 64.0351 152 148.901 152C234.194 152 268.838 132.704 297.328 115.133C325.817 97.563 308.407 59.5982 282.555 43.4397C256.704 27.2812 203.242 11.1226 119.533 15.829Z" fill="url(#paint0_radial_50_437)"/>
<g filter="url(#filter2_g_50_437)">
<path d="M17.375 84.875V83.25H22.25V84.875H17.375ZM22.25 83.25V81.625H23.875V83.25H22.25ZM15.75 83.25V75.125H17.375V83.25H15.75ZM22.25 76.75V75.125H23.875V76.75H22.25ZM17.375 75.125V73.5H22.25V75.125H17.375ZM27.125 84.875V83.25H32V84.875H27.125ZM25.5 83.25V78.375H27.125V83.25H25.5ZM32 83.25V78.375H33.625V83.25H32ZM27.125 78.375V76.75H32V78.375H27.125ZM36.875 84.875V83.25H38.5V84.875H36.875ZM35.25 83.25V73.5H36.875V83.25H35.25ZM41.75 84.875V83.25H43.375V84.875H41.75ZM40.125 83.25V73.5H41.75V83.25H40.125ZM46.625 84.875V83.25H53.125V84.875H46.625ZM45 83.25V78.375H46.625V80H51.5V78.375H53.125V81.625H46.625V83.25H45ZM46.625 78.375V76.75H51.5V78.375H46.625ZM56.375 84.875V83.25H61.25V84.875H56.375ZM61.25 83.25V81.625H62.875V83.25H61.25ZM54.75 83.25V78.375H56.375V83.25H54.75ZM61.25 80V78.375H62.875V80H61.25ZM56.375 78.375V76.75H61.25V78.375H56.375ZM67.75 84.875V83.25H69.375V84.875H67.75ZM66.125 83.25V76.75H64.5V75.125H66.125V73.5H67.75V75.125H69.375V76.75H67.75V83.25H66.125ZM74.25 86.5V84.875H80.75V86.5H74.25ZM74.25 81.625V76.75H75.875V81.625H74.25ZM80.75 84.875V83.25H75.875V81.625H80.75V76.75H82.375V84.875H80.75ZM85.625 84.875V83.25H90.5V84.875H85.625ZM84 83.25V78.375H85.625V83.25H84ZM90.5 83.25V78.375H92.125V83.25H90.5ZM85.625 78.375V76.75H90.5V78.375H85.625ZM93.75 83.25V76.75H95.375V83.25H93.75ZM95.375 84.875V83.25H100.25V76.75H101.875V84.875H95.375ZM110 80V78.375H111.625V80H110ZM103.5 84.875V76.75H105.125V78.375H106.75V80H105.125V84.875H103.5ZM106.75 78.375V76.75H110V78.375H106.75ZM38.5 102.875V96.375H36.875V94.75H38.5V93.125H40.125V94.75H43.375V96.375H40.125V102.875H38.5ZM40.125 93.125V91.5H43.375V93.125H40.125ZM46.625 102.875V101.25H48.25V102.875H46.625ZM45 101.25V91.5H46.625V101.25H45ZM51.5 102.875V101.25H56.375V102.875H51.5ZM49.875 101.25V96.375H51.5V101.25H49.875ZM56.375 101.25V96.375H58V101.25H56.375ZM51.5 96.375V94.75H56.375V96.375H51.5ZM59.625 101.25V94.75H61.25V101.25H59.625ZM61.25 102.875V101.25H62.875V98H64.5V101.25H66.125V94.75H67.75V102.875H61.25ZM71 102.875V101.25H77.5V102.875H71ZM69.375 101.25V96.375H71V98H75.875V96.375H77.5V99.625H71V101.25H69.375ZM71 96.375V94.75H75.875V96.375H71ZM85.625 98V96.375H87.25V98H85.625ZM79.125 102.875V94.75H80.75V96.375H82.375V98H80.75V102.875H79.125ZM82.375 96.375V94.75H85.625V96.375H82.375ZM88.875 102.875V101.25H90.5V102.875H88.875ZM88.875 99.625V91.5H90.5V99.625H88.875ZM92.125 102.875V101.25H93.75V102.875H92.125ZM92.125 99.625V91.5H93.75V99.625H92.125Z" fill="#BC2A42"/>
</g>
<g filter="url(#filter3_g_50_437)">
<path d="M36 13.5V12H37.5V13.5H36ZM33 19.5V9H34.5V10.5H36V12H34.5V19.5H33ZM39 19.5V15H37.5V13.5H39V9H40.5V19.5H39ZM43.5 19.5V18H48V19.5H43.5ZM42 18V13.5H43.5V18H42ZM48 18V13.5H49.5V18H48ZM43.5 13.5V12H48V13.5H43.5ZM54 19.5V18H55.5V19.5H54ZM52.5 18V12H51V10.5H52.5V9H54V10.5H55.5V12H54V18H52.5ZM57 19.5V12H58.5V19.5H57ZM57 10.5V9H58.5V10.5H57Z" fill="black"/>
</g>
<g filter="url(#filter4_g_50_437)">
<path d="M161.792 143.505C161 143.505 160.177 143.493 159.399 143.48C155.755 143.422 151.987 143.362 150.213 141.369C149.304 140.348 149.009 138.967 149.307 137.146C150.219 131.582 155.72 129.199 155.953 129.1C156.049 129.059 156.154 129.038 156.259 129.038C156.291 129.038 156.324 129.041 156.356 129.044L171.647 130.943C171.977 130.984 172.241 131.228 172.289 131.541C172.325 131.772 173.166 137.234 171.446 140.3C169.786 143.257 165.768 143.504 161.794 143.504L161.792 143.505Z" fill="#FFEDE5"/>
<path d="M184.32 143.505C180.346 143.505 176.326 143.258 174.666 140.301C172.946 137.235 173.785 131.773 173.823 131.542C173.873 131.229 174.135 130.986 174.465 130.944L189.756 129.045C189.788 129.042 189.821 129.039 189.853 129.039C189.958 129.039 190.061 129.061 190.159 129.101C190.392 129.2 195.893 131.583 196.805 137.147C197.103 138.968 196.808 140.35 195.899 141.37C194.125 143.365 190.357 143.424 186.713 143.481C185.935 143.493 185.112 143.506 184.32 143.506V143.505Z" fill="#FFEDE5"/>
<path d="M144.6 110.511L141.733 125.526C141.733 125.526 153.488 130.772 173.461 131.767C193.434 132.763 204.04 125.617 204.04 125.617C205.378 123.627 201.269 110.874 201.269 110.874C201.269 110.874 203.372 108.703 203.85 102.1C204.327 95.4975 193.147 87.7184 193.147 87.7184C193.147 87.7184 181.488 89.889 172.792 90.0697C164.096 90.2504 152.246 88.4412 152.246 88.4412C152.246 88.4412 141.16 94.9542 141.734 104.18C141.734 104.18 141.925 108.251 144.602 110.511H144.6Z" fill="url(#paint1_linear_50_437)"/>
<path d="M178.448 91.262C176.477 91.262 174.32 91.2214 171.821 91.1752C159.563 90.9476 153.409 90.8338 147.767 86.8C141.993 82.6716 138.402 75.7318 138.62 69.1189C138.736 65.6214 139.896 62.1758 142.071 58.871C141.872 57.6225 141.291 53.4963 141.505 48.8856C141.805 42.3775 143.503 37.6654 146.55 34.8777C146.691 34.7493 146.883 34.6772 147.083 34.6772C147.094 34.6772 147.106 34.6772 147.117 34.6772C147.219 34.6817 149.661 34.7955 152.852 36.187C155.682 37.4208 159.656 39.9346 162.752 44.9397C165.489 44.2242 168.243 43.8197 170.949 43.7386C171.293 43.7285 171.644 43.7228 171.992 43.7228C174.986 43.7228 178.048 44.1059 181.103 44.862C184.199 39.8941 188.162 37.3994 190.982 36.1746C194.16 34.7944 196.589 34.6817 196.69 34.6772C196.701 34.6772 196.713 34.6772 196.724 34.6772C196.923 34.6772 197.116 34.7493 197.257 34.8777C203.628 40.7065 202.449 53.7521 201.863 58.0203C204.401 61.5369 205.766 65.3735 205.816 69.1313C205.864 72.8563 204.673 76.6997 202.368 80.2479C200.171 83.6315 197.034 86.5577 193.537 88.4868C189.31 90.8192 184.972 91.2608 178.448 91.2608V91.262Z" fill="#FFEDE5"/>
<path d="M164.575 117.37C160.263 117.37 156.755 114.014 156.755 109.89C156.755 105.766 160.263 102.41 164.575 102.41C168.887 102.41 172.394 105.766 172.394 109.89C172.394 114.014 168.887 117.37 164.575 117.37Z" fill="#FFEDE5"/>
<path d="M180.963 117.765C176.651 117.765 173.144 114.408 173.144 110.284C173.144 106.16 176.651 102.804 180.963 102.804C185.275 102.804 188.782 106.16 188.782 110.284C188.782 114.408 185.275 117.765 180.963 117.765Z" fill="#FFEDE5"/>
<g opacity="0.3" filter="url(#filter5_g_50_437)">
<path d="M158.411 78.1762C161.684 78.1762 164.336 76.8263 164.336 75.1612C164.336 73.496 161.684 72.1461 158.411 72.1461C155.139 72.1461 152.486 73.496 152.486 75.1612C152.486 76.8263 155.139 78.1762 158.411 78.1762Z" fill="#D48287"/>
</g>
<g opacity="0.3" filter="url(#filter6_g_50_437)">
<path d="M186.572 78.6592C189.844 78.6592 192.497 77.3093 192.497 75.6442C192.497 73.979 189.844 72.6292 186.572 72.6292C183.299 72.6292 180.646 73.979 180.646 75.6442C180.646 77.3093 183.299 78.6592 186.572 78.6592Z" fill="#D48287"/>
</g>
<path d="M157.501 73.8774C159.032 73.8774 160.272 72.4398 160.272 70.6664C160.272 68.893 159.032 67.4553 157.501 67.4553C155.971 67.4553 154.73 68.893 154.73 70.6664C154.73 72.4398 155.971 73.8774 157.501 73.8774Z" fill="#4D4D4D"/>
<path d="M187.256 73.8243C188.787 73.8243 190.028 72.3866 190.028 70.6132C190.028 68.8398 188.787 67.4022 187.256 67.4022C185.726 67.4022 184.485 68.8398 184.485 70.6132C184.485 72.3866 185.726 73.8243 187.256 73.8243Z" fill="#4D4D4D"/>
<path d="M171.932 79.0335C171.932 79.0335 169.734 78.3096 170.212 76.9527C170.69 75.5957 174.99 75.506 175.372 76.4094C175.754 77.314 175.181 78.671 174.035 78.9426C174.035 78.9426 173.748 79.6665 174.512 80.2995C175.277 80.9325 176.902 81.1132 176.902 81.8372C176.902 82.5611 176.424 83.1032 175.373 82.7418C174.322 82.3804 172.793 81.2042 172.793 81.2042C172.793 81.2042 170.022 83.3748 169.353 82.5611C168.684 81.7474 169.64 81.0235 169.64 81.0235C169.958 80.903 170.278 80.7825 170.596 80.6621C171.041 80.1188 171.488 79.5768 171.933 79.0335H171.932Z" fill="#4D4D4D"/>
<path d="M207.911 76.9078L203.849 76.139H199.501C198.95 76.139 198.498 75.7115 198.498 75.1895C198.498 74.6675 198.95 74.24 199.501 74.24L201.483 74.1644C203.304 74.0947 205.127 74.2908 206.886 74.7443L207.911 75.0088C208.462 75.0088 208.914 75.4363 208.914 75.9583C208.914 76.4803 208.462 76.9078 207.911 76.9078Z" fill="#4D4D4D"/>
<path d="M145.413 76.2335L141.351 75.4647H137.003C136.452 75.4647 136 75.0371 136 74.5152C136 73.9932 136.452 73.5657 137.003 73.5657L138.984 73.4901C140.806 73.4204 142.629 73.6164 144.388 74.0699L145.413 74.3345C145.964 74.3345 146.416 74.762 146.416 75.284C146.416 75.806 145.964 76.2335 145.413 76.2335Z" fill="#4D4D4D"/>
<path d="M146.038 79.95L141.956 80.6208L137.901 82.1065C137.387 82.2954 136.802 82.051 136.604 81.5632C136.404 81.0767 136.663 80.5228 137.178 80.335L138.997 79.5874C140.67 78.9001 142.444 78.4596 144.257 78.2813L145.314 78.1774C145.828 77.9884 146.413 78.2329 146.612 78.7206C146.811 79.2072 146.553 79.7611 146.038 79.9488V79.95Z" fill="#4D4D4D"/>
<path d="M197.448 80.407L201.513 81.1569L205.534 82.7205C206.044 82.9189 206.633 82.6863 206.843 82.2033C207.052 81.7202 206.806 81.1628 206.296 80.9644L204.495 80.1814C202.838 79.4611 201.072 78.9875 199.263 78.7737L198.209 78.6497C197.698 78.4513 197.109 78.684 196.9 79.167C196.69 79.65 196.936 80.2074 197.446 80.4058L197.448 80.407Z" fill="#4D4D4D"/>
<path d="M171.977 99.7939C172.354 99.8683 172.564 100.166 172.627 100.623C172.781 101.442 173.035 102.901 173.276 104.676C173.727 107.924 174.053 112.029 173.748 115.527C173.544 118.159 172.903 121.211 172.219 123.562C172.041 124.064 171.965 124.702 171.594 125.012C171.033 125.397 170.216 125.049 170.345 123.652C170.778 120.584 171.468 117.028 171.886 114.064C171.937 113.601 171.929 113.265 171.884 112.803C171.527 109.568 170.736 104.132 170.413 100.773C170.371 99.7502 171.385 99.6474 171.967 99.7903L171.977 99.7927V99.7939Z" fill="#90A96B" stroke="#534741" stroke-width="2" stroke-miterlimit="10"/>
<path d="M166.993 89.9032C167.291 89.6977 167.342 89.2891 167.47 88.9679C167.661 88.4058 168.001 87.6511 168.588 87.0831C169.735 85.9045 171.681 85.8123 172.929 86.9012C173.171 87.1008 173.39 87.3311 173.574 87.5791C174.203 88.4176 174.279 89.1935 174.607 89.9068C174.787 90.2906 175.24 90.1347 175.572 90.0379C176.07 89.8902 176.793 89.6399 177.511 89.6198C178.363 89.5761 179.232 89.908 179.713 90.5953C180.645 91.9333 180.564 94.3224 179.507 95.3475C179.148 95.7101 178.577 95.9356 178.117 96.088C177.798 96.1895 177.73 96.3053 177.891 96.5308C179.14 98.0909 179.262 99.4844 177.568 100.918C176.616 101.681 175.312 102.287 174.082 101.823C173.346 101.558 172.73 101.014 172.228 100.765C171.77 100.525 171.376 100.566 170.867 100.895C170.127 101.399 169.287 101.908 168.336 101.974C166.959 102.127 165.623 101.33 165.116 100.117C164.778 99.3675 164.729 98.4853 164.867 97.7602C164.933 97.276 165.167 96.8084 165.236 96.3395C165.266 95.9167 164.87 95.7526 164.52 95.5258C164.316 95.403 164.078 95.2613 163.833 95.0853C162.239 94 161.402 91.8152 163.233 90.5339C163.961 90.0367 164.976 89.9162 165.731 89.9564C166.145 89.9528 166.617 90.0945 166.985 89.9115L166.994 89.9068L166.993 89.9032Z" fill="#E57373" stroke="#534741" stroke-width="2" stroke-linecap="round" stroke-linejoin="round"/>
<path d="M171.281 96.9926C172.583 96.9926 173.638 95.9123 173.638 94.5798C173.638 93.2473 172.583 92.1671 171.281 92.1671C169.979 92.1671 168.924 93.2473 168.924 94.5798C168.924 95.9123 169.979 96.9926 171.281 96.9926Z" fill="#E3C0C6" stroke="#534741" stroke-width="2" stroke-miterlimit="10"/>
<path d="M195.101 56.5514C195.243 55.2075 195.672 53.5919 196.237 52.3164C196.639 51.3705 197.465 50.2533 198.652 50.8591C199.708 51.4449 200.519 52.816 200.811 54.1162C201.062 54.0005 201.335 53.9355 201.624 53.9355C202.158 53.9355 202.645 54.1576 203.023 54.5237C203.979 53.2718 205.578 52.1889 206.942 51.5535C207.826 51.1733 208.674 50.9099 209.518 51.087C210.648 51.4047 210.397 52.7475 210.224 53.6379C209.734 55.7306 207.463 62.8968 204.209 61.1005C203.353 60.5537 202.712 59.6904 202.37 58.7267C202.136 58.8248 201.886 58.8803 201.622 58.8803C200.851 58.8803 200.178 58.4197 199.793 57.7276C199.791 57.73 199.789 57.7324 199.787 57.7347C199.038 58.4894 197.995 59.0846 196.963 59.2346C195.245 59.4956 194.942 57.802 195.101 56.5526V56.5514Z" fill="#FAC6B3" stroke="#534741" stroke-width="2" stroke-miterlimit="10"/>
</g>
</g>
<defs>
<filter id="filter0_i_50_437" x="0" y="3.05176e-05" width="240" height="162.005" filterUnits="userSpaceOnUse" color-interpolation-filters="sRGB">
<feFlood flood-opacity="0" result="BackgroundImageFix"/>
<feBlend mode="normal" in="SourceGraphic" in2="BackgroundImageFix" result="shape"/>
<feColorMatrix in="SourceAlpha" type="matrix" values="0 0 0 0 0 0 0 0 0 0 0 0 0 0 0 0 0 0 127 0" result="hardAlpha"/>
<feOffset dx="2" dy="2"/>
<feGaussianBlur stdDeviation="2"/>
<feComposite in2="hardAlpha" operator="arithmetic" k2="-1" k3="1"/>
<feColorMatrix type="matrix" values="0 0 0 0 0 0 0 0 0 0 0 0 0 0 0 0 0 0 0.25 0"/>
<feBlend mode="normal" in2="shape" result="effect1_innerShadow_50_437"/>
</filter>
<filter id="filter1_g_50_437" x="1" y="20" width="237" height="139" filterUnits="userSpaceOnUse" color-interpolation-filters="sRGB">
<feFlood flood-opacity="0" result="BackgroundImageFix"/>
<feBlend mode="normal" in="SourceGraphic" in2="BackgroundImageFix" result="shape"/>
<feTurbulence type="fractalNoise" baseFrequency="2 2" numOctaves="3" seed="3047" />
<feDisplacementMap in="shape" scale="8" xChannelSelector="R" yChannelSelector="G" result="displacedImage" width="100%" height="100%" />
<feMerge result="effect1_texture_50_437">
<feMergeNode in="displacedImage"/>
</feMerge>
</filter>
<filter id="filter2_g_50_437" x="14.75" y="72.5" width="97.875" height="31.375" filterUnits="userSpaceOnUse" color-interpolation-filters="sRGB">
<feFlood flood-opacity="0" result="BackgroundImageFix"/>
<feBlend mode="normal" in="SourceGraphic" in2="BackgroundImageFix" result="shape"/>
<feTurbulence type="fractalNoise" baseFrequency="2 2" numOctaves="3" seed="6650" />
<feDisplacementMap in="shape" scale="2" xChannelSelector="R" yChannelSelector="G" result="displacedImage" width="100%" height="100%" />
<feMerge result="effect1_texture_50_437">
<feMergeNode in="displacedImage"/>
</feMerge>
</filter>
<filter id="filter3_g_50_437" x="32.5" y="8.5" width="26.5" height="11.5" filterUnits="userSpaceOnUse" color-interpolation-filters="sRGB">
<feFlood flood-opacity="0" result="BackgroundImageFix"/>
<feBlend mode="normal" in="SourceGraphic" in2="BackgroundImageFix" result="shape"/>
<feTurbulence type="fractalNoise" baseFrequency="2 2" numOctaves="3" seed="5263" />
<feDisplacementMap in="shape" scale="1" xChannelSelector="R" yChannelSelector="G" result="displacedImage" width="100%" height="100%" />
<feMerge result="effect1_texture_50_437">
<feMergeNode in="displacedImage"/>
</feMerge>
</filter>
<filter id="filter4_g_50_437" x="134" y="32.6772" width="79.3755" height="112.829" filterUnits="userSpaceOnUse" color-interpolation-filters="sRGB">
<feFlood flood-opacity="0" result="BackgroundImageFix"/>
<feBlend mode="normal" in="SourceGraphic" in2="BackgroundImageFix" result="shape"/>
<feTurbulence type="fractalNoise" baseFrequency="5 5" numOctaves="3" seed="6560" />
<feDisplacementMap in="shape" scale="4" xChannelSelector="R" yChannelSelector="G" result="displacedImage" width="100%" height="100%" />
<feMerge result="effect1_texture_50_437">
<feMergeNode in="displacedImage"/>
</feMerge>
</filter>
<filter id="filter5_g_50_437" x="132.486" y="52.1461" width="51.8506" height="46.03" filterUnits="userSpaceOnUse" color-interpolation-filters="sRGB">
<feFlood flood-opacity="0" result="BackgroundImageFix"/>
<feBlend mode="normal" in="SourceGraphic" in2="BackgroundImageFix" result="shape"/>
<feTurbulence type="fractalNoise" baseFrequency="2 2" numOctaves="3" seed="4474" />
<feDisplacementMap in="shape" scale="40" xChannelSelector="R" yChannelSelector="G" result="displacedImage" width="100%" height="100%" />
<feMerge result="effect1_texture_50_437">
<feMergeNode in="displacedImage"/>
</feMerge>
</filter>
<filter id="filter6_g_50_437" x="160.646" y="52.6292" width="51.8506" height="46.03" filterUnits="userSpaceOnUse" color-interpolation-filters="sRGB">
<feFlood flood-opacity="0" result="BackgroundImageFix"/>
<feBlend mode="normal" in="SourceGraphic" in2="BackgroundImageFix" result="shape"/>
<feTurbulence type="fractalNoise" baseFrequency="2 2" numOctaves="3" seed="4474" />
<feDisplacementMap in="shape" scale="40" xChannelSelector="R" yChannelSelector="G" result="displacedImage" width="100%" height="100%" />
<feMerge result="effect1_texture_50_437">
<feMergeNode in="displacedImage"/>
</feMerge>
</filter>
<radialGradient id="paint0_radial_50_437" cx="0" cy="0" r="1" gradientUnits="userSpaceOnUse" gradientTransform="translate(157 83.5) rotate(89.8604) scale(68.5002 155)">
<stop stop-color="#E7B0B1"/>
<stop offset="1" stop-color="#F8F6EC" stop-opacity="0"/>
</radialGradient>
<linearGradient id="paint1_linear_50_437" x1="173.011" y1="87.7184" x2="173.011" y2="131.863" gradientUnits="userSpaceOnUse">
<stop stop-color="#C67F82"/>
<stop offset="1" stop-color="#D9C8C9"/>
</linearGradient>
<clipPath id="clip0_50_437">
<rect width="246" height="169" fill="white"/>
</clipPath>
</defs>
</svg>
