<svg width="239" height="250" viewBox="0 0 239 250" fill="none" xmlns="http://www.w3.org/2000/svg">
<g filter="url(#filter0_dg_189_978)">
<path d="M117.864 109.772C104.084 99.7648 71.7199 77.5186 70.8667 58.8721C69.7795 42.7661 75.3063 29.389 82.026 24.7641C84.5063 23.0303 88.625 21.2323 90.5239 18.5825C91.1468 17.595 91.328 16.5094 92.1321 15.6425C94.1933 13.298 100.471 10.2864 104.213 10.015C109.52 9.59663 109.981 17.3801 114.137 20.0488C115.202 20.7838 116.463 21.0514 117.724 21.2549C126.354 22.6345 131.986 29.6905 133.104 30.8175C134.723 32.4496 142.379 40.1766 143.051 51.1678C143.402 56.897 141.466 57.2325 137.653 70.8018C134.942 80.4398 134.901 83.8887 131.235 95.6751C128.694 103.851 126.561 109.113 122.318 110.157C120.585 110.583 118.97 110.187 117.86 109.776L117.864 109.772Z" fill="url(#paint0_radial_189_978)"/>
<path d="M142.579 60.1048C143.689 58.533 146.079 57.3532 148.11 56.3544C150.382 55.2613 152.855 54.3001 155.328 53.746C159.129 52.864 162.297 53.1505 165.573 52.7623C167.506 52.5512 169.458 52.1705 171.406 52.2572C172.323 52.2987 173.233 52.4494 174.109 52.7246C176.808 53.5538 178.703 55.4309 181.195 55.9511C183.966 56.4448 186.439 54.9899 189.112 54.2926C193.023 53.143 197.621 52.0273 201.536 53.4181C206.836 55.2462 207.882 61.6276 209.022 66.3052C210.958 71.9892 212.019 78.0615 210.698 84.0961C209.697 89.603 206.228 93.7039 202.521 97.5938C200.901 99.437 200.49 101.235 199.399 103.794C198.093 106.844 195.812 109.799 193.023 111.499C191.611 112.317 190.497 112.543 188.806 112.984C173.716 116.632 147.143 121.789 135.806 122.554C133.424 122.72 131.001 122.343 129.023 120.846C128.079 120.145 127.169 119.305 126.761 118.215C126.421 117.201 126.739 116.508 127.154 115.245C127.562 114.084 127.947 112.954 128.362 111.759C129.902 107.269 131.461 102.656 132.918 98.0235C136.765 86.81 137.203 75.8904 140.752 64.4809C141.254 62.928 141.688 61.3826 142.556 60.1425L142.583 60.1048H142.579Z" fill="url(#paint1_radial_189_978)"/>
<path d="M44.807 138.679C42.7873 139.538 40.8959 141.581 39.299 143.315C37.5323 145.26 35.8712 147.397 34.6556 149.568C32.7605 152.908 32.3226 155.772 31.1032 158.682C30.4048 160.401 29.5101 162.116 29.1439 163.876C28.9702 164.702 28.9212 165.531 29.0193 166.341C29.2949 168.84 30.9371 170.706 30.9182 172.986C30.805 175.519 28.5889 177.611 27.1695 179.952C24.9459 183.363 22.6016 187.396 23.2169 191.03C23.9833 195.949 30.8503 197.449 35.7995 198.881C41.6774 201.116 48.1933 202.605 55.2415 201.946C61.6215 201.531 67.0275 198.772 72.2561 195.787C74.6986 194.494 76.8051 194.283 79.9234 193.529C83.6381 192.624 87.4812 190.834 90.0445 188.478C91.2941 187.283 91.8151 186.303 92.7136 184.822C100.4 171.592 112.522 148.181 116.093 138.068C116.852 135.946 117.007 133.733 115.814 131.826C115.259 130.914 114.541 130.028 113.42 129.565C112.375 129.169 111.521 129.395 110.011 129.655C108.622 129.919 107.267 130.168 105.832 130.435C100.456 131.427 94.9334 132.418 89.4179 133.323C75.9897 135.791 63.7054 135.23 50.1262 137.42C48.2726 137.736 46.4454 137.989 44.8561 138.66L44.807 138.682V138.679Z" fill="url(#paint2_radial_189_978)"/>
<path d="M65.7362 67.6357C63.7958 66.618 61.0135 66.4446 58.654 66.3014C56.0303 66.1619 53.3197 66.226 50.8659 66.6595C47.0756 67.3002 44.5727 68.774 41.545 69.6673C39.7707 70.2139 37.8718 70.6059 36.2749 71.4313C35.5237 71.8196 34.8479 72.3058 34.2817 72.8938C32.5187 74.688 32.1072 77.1342 30.3253 78.5628C28.2867 80.078 25.2628 79.6823 22.5485 80.0629C18.494 80.5002 13.8846 81.2314 11.4496 84.0056C8.11613 87.7108 11.291 93.9677 13.3032 98.7019C15.2814 104.665 18.2448 110.647 23.2092 115.686C27.5657 120.36 33.1189 122.803 38.7439 124.962C41.2921 126.037 42.7871 127.533 45.3428 129.467C48.3932 131.77 52.2098 133.613 55.6603 134.107C57.378 134.318 58.4653 134.103 60.1867 133.862C75.3137 131.449 101.147 126.04 111.257 122.411C113.386 121.657 115.198 120.379 115.923 118.249C116.278 117.243 116.516 116.127 116.165 114.97C115.81 113.911 115.096 113.394 113.937 112.392C112.854 111.483 111.804 110.59 110.694 109.652C106.527 106.116 102.268 102.471 98.0816 98.7735C87.6773 89.9422 80.3536 80.078 70.0738 70.9564C68.6582 69.7201 67.3066 68.4687 65.7815 67.6583L65.7324 67.6319L65.7362 67.6357Z" fill="url(#paint3_radial_189_978)"/>
<path d="M122.809 134.89C122.809 134.89 111.434 154.909 107.965 161.452C104.496 167.996 96.5905 189.168 97.3606 195.519C98.1307 201.87 96.2054 205.526 102.759 211.109C109.313 216.691 107.191 222.273 112.012 225.545C116.833 228.817 124.157 231.704 126.086 235.552C128.015 239.401 130.907 241.134 133.798 239.208C136.69 237.282 136.498 237.667 139.582 238.247C142.666 238.828 148.45 241.327 151.726 230.743C155.003 220.155 156.932 219.001 159.824 217.464C162.716 215.926 161.946 209.186 163.101 206.683C164.256 204.181 168.307 202.062 168.114 193.789C167.922 185.512 128.981 136.048 125.127 134.89C121.272 133.733 122.813 134.89 122.813 134.89H122.809Z" fill="url(#paint4_radial_189_978)"/>
<path d="M134.085 130.662C134.085 130.662 149.363 161.471 168.182 175.78C187.001 190.088 189.61 183.186 192.404 182.851C195.197 182.515 200.603 184.03 207.312 180.83C214.02 177.63 218.864 174.769 222.22 174.095C225.572 173.42 228.181 168.708 228.928 166.519C229.676 164.329 224.27 160.458 224.27 158.942C224.27 157.427 226.32 151.702 222.035 147.661C217.75 143.62 213.465 140.42 213.277 138.064C213.092 135.709 212.159 130.319 207.501 128.468C202.842 126.617 205.636 121.227 200.607 122.407C195.575 123.587 161.293 127.627 150.484 127.627C139.676 127.627 132.598 127.458 134.089 130.658L134.085 130.662Z" fill="url(#paint5_radial_189_978)"/>
<path d="M123.579 133.541C126.506 133.541 128.879 130.611 128.879 126.998C128.879 123.384 126.506 120.454 123.579 120.454C120.652 120.454 118.279 123.384 118.279 126.998C118.279 130.611 120.652 133.541 123.579 133.541Z" fill="url(#paint6_radial_189_978)"/>
<ellipse cx="124" cy="129.5" rx="4" ry="4.5" fill="#BCB661"/>
</g>
<defs>
<filter id="filter0_dg_189_978" x="0.43707" y="0.438779" width="238.122" height="249.121" filterUnits="userSpaceOnUse" color-interpolation-filters="sRGB">
<feFlood flood-opacity="0" result="BackgroundImageFix"/>
<feColorMatrix in="SourceAlpha" type="matrix" values="0 0 0 0 0 0 0 0 0 0 0 0 0 0 0 0 0 0 127 0" result="hardAlpha"/>
<feOffset dy="4"/>
<feComposite in2="hardAlpha" operator="out"/>
<feColorMatrix type="matrix" values="0 0 0 0 0 0 0 0 0 0 0 0 0 0 0 0 0 0 0.25 0"/>
<feBlend mode="normal" in2="BackgroundImageFix" result="effect1_dropShadow_189_978"/>
<feBlend mode="normal" in="SourceGraphic" in2="effect1_dropShadow_189_978" result="shape"/>
<feTurbulence type="fractalNoise" baseFrequency="1.0869565010070801 1.0869565010070801" numOctaves="3" seed="280" />
<feDisplacementMap in="shape" scale="19.120000839233398" xChannelSelector="R" yChannelSelector="G" result="displacedImage" width="100%" height="100%" />
<feMerge result="effect2_texture_189_978">
<feMergeNode in="displacedImage"/>
</feMerge>
</filter>
<radialGradient id="paint0_radial_189_978" cx="0" cy="0" r="1" gradientUnits="userSpaceOnUse" gradientTransform="translate(106.911 60.1693) scale(36.1812 50.1706)">
<stop stop-color="#EFE5DF"/>
<stop offset="1" stop-color="#EEC7C2"/>
</radialGradient>
<radialGradient id="paint1_radial_189_978" cx="0" cy="0" r="1" gradientUnits="userSpaceOnUse" gradientTransform="translate(168.951 87.4173) scale(42.3336 35.1727)">
<stop stop-color="#EFE5DF"/>
<stop offset="1" stop-color="#EEC7C2"/>
</radialGradient>
<radialGradient id="paint2_radial_189_978" cx="0" cy="0" r="1" gradientUnits="userSpaceOnUse" gradientTransform="translate(69.9016 165.727) scale(46.7844 36.3763)">
<stop stop-color="#EFE5DF"/>
<stop offset="1" stop-color="#EEC7C2"/>
</radialGradient>
<radialGradient id="paint3_radial_189_978" cx="0" cy="0" r="1" gradientUnits="userSpaceOnUse" gradientTransform="translate(63.1671 100.214) scale(53.17 33.9786)">
<stop stop-color="#EFE5DF"/>
<stop offset="1" stop-color="#EEC7C2"/>
</radialGradient>
<radialGradient id="paint4_radial_189_978" cx="0" cy="0" r="1" gradientUnits="userSpaceOnUse" gradientTransform="translate(132.715 187.188) scale(35.4065 52.8116)">
<stop stop-color="#EFE5DF"/>
<stop offset="1" stop-color="#EEC7C2"/>
</radialGradient>
<radialGradient id="paint5_radial_189_978" cx="0" cy="0" r="1" gradientUnits="userSpaceOnUse" gradientTransform="translate(181.445 153.523) scale(47.554 31.2834)">
<stop stop-color="#EFE5DF"/>
<stop offset="1" stop-color="#EEC7C2"/>
</radialGradient>
<radialGradient id="paint6_radial_189_978" cx="0" cy="0" r="1" gradientUnits="userSpaceOnUse" gradientTransform="translate(123.579 126.998) scale(5.3003 6.54343)">
<stop stop-color="#EFE5DF"/>
<stop offset="1" stop-color="#EEC7C2"/>
</radialGradient>
</defs>
</svg>
