<svg width="81" height="110" viewBox="0 0 81 110" fill="none" xmlns="http://www.w3.org/2000/svg">
<path d="M29.7925 109.505C29.0002 109.505 28.1767 109.493 27.3994 109.48C23.7549 109.422 19.9869 109.362 18.2126 107.369C17.3043 106.348 17.0086 104.967 17.3068 103.146C18.2189 97.582 23.72 95.1988 23.9533 95.0996C24.0494 95.0595 24.1542 95.0382 24.259 95.0382C24.2914 95.0382 24.3238 95.0406 24.3563 95.0441L39.6467 96.9431C39.9774 96.9844 40.2406 97.2277 40.2893 97.5407C40.3255 97.7722 41.1664 103.234 39.4459 106.3C37.7864 109.257 33.7676 109.504 29.7937 109.504L29.7925 109.505Z" fill="#FFEDE5"/>
<path d="M52.3196 109.505C48.3457 109.505 44.3256 109.258 42.6662 106.301C40.9456 103.235 41.7853 97.7733 41.8227 97.5418C41.8726 97.2289 42.1347 96.9856 42.4653 96.9443L57.7558 95.0453C57.7882 95.0417 57.8206 95.0394 57.8531 95.0394C57.9579 95.0394 58.0614 95.0606 58.1588 95.1008C58.3921 95.2 63.8932 97.5832 64.8052 103.147C65.1034 104.968 64.8077 106.35 63.8994 107.37C62.1252 109.365 58.3571 109.424 54.7126 109.481C53.9353 109.493 53.1118 109.506 52.3196 109.506V109.505Z" fill="#FFEDE5"/>
<path d="M12.6004 76.5111L9.73318 91.526C9.73318 91.526 21.4877 96.7719 41.4607 97.7674C61.4338 98.763 72.0404 91.6169 72.0404 91.6169C73.3779 89.627 69.2693 76.8737 69.2693 76.8737C69.2693 76.8737 71.3716 74.7031 71.8495 68.1002C72.3274 61.4974 61.1468 53.7184 61.1468 53.7184C61.1468 53.7184 49.4884 55.889 40.792 56.0697C32.0956 56.2504 20.2462 54.4411 20.2462 54.4411C20.2462 54.4411 9.16049 60.9542 9.73443 70.1799C9.73443 70.1799 9.92533 74.2507 12.6016 76.5111H12.6004Z" fill="url(#paint0_linear_48_389)"/>
<path d="M46.4476 57.262C44.4775 57.262 42.3202 57.2214 39.8211 57.1752C27.5625 56.9476 21.4089 56.8338 15.7668 52.8C9.99253 48.6716 6.40168 41.7318 6.62002 35.1189C6.73606 31.6214 7.89641 28.1758 10.0711 24.871C9.87151 23.6225 9.29133 19.4963 9.50468 14.8856C9.80538 8.37747 11.5035 3.66535 14.5503 0.877748C14.6913 0.749298 14.8835 0.677185 15.0831 0.677185C15.0943 0.677185 15.1056 0.677185 15.1168 0.677185C15.2191 0.681692 17.6608 0.795495 20.8524 2.18704C23.6822 3.42085 27.6561 5.93465 30.7516 10.9397C33.4891 10.2242 36.2427 9.81972 38.949 9.73859C39.2933 9.72845 39.6439 9.72282 39.992 9.72282C42.9865 9.72282 46.0483 10.1059 49.1027 10.862C52.1994 5.89409 56.1621 3.39944 58.9819 2.17465C62.1598 0.794368 64.589 0.681692 64.6901 0.677185C64.7013 0.677185 64.7125 0.677185 64.7238 0.677185C64.9234 0.677185 65.1155 0.749298 65.2565 0.877748C71.6285 6.70648 70.4494 19.7521 69.863 24.0203C72.4008 27.5369 73.7658 31.3735 73.8157 35.1313C73.8644 38.8563 72.6728 42.6997 70.3683 46.2479C68.1711 49.6315 65.0344 52.5577 61.5372 54.4868C57.31 56.8192 52.9718 57.2608 46.4476 57.2608V57.262Z" fill="#FFEDE5"/>
<path d="M32.5747 83.3702C28.2626 83.3702 24.7554 80.0139 24.7554 75.8899C24.7554 71.766 28.2626 68.4097 32.5747 68.4097C36.8867 68.4097 40.3939 71.766 40.3939 75.8899C40.3939 80.0139 36.8867 83.3702 32.5747 83.3702Z" fill="#FFEDE5"/>
<path d="M48.9628 83.7646C44.6508 83.7646 41.1436 80.4083 41.1436 76.2843C41.1436 72.1604 44.6508 68.8041 48.9628 68.8041C53.2749 68.8041 56.7821 72.1604 56.7821 76.2843C56.7821 80.4083 53.2749 83.7646 48.9628 83.7646Z" fill="#FFEDE5"/>
<g opacity="0.3" filter="url(#filter0_g_48_389)">
<path d="M26.4111 44.1762C29.6836 44.1762 32.3364 42.8263 32.3364 41.1611C32.3364 39.496 29.6836 38.1461 26.4111 38.1461C23.1387 38.1461 20.4858 39.496 20.4858 41.1611C20.4858 42.8263 23.1387 44.1762 26.4111 44.1762Z" fill="#D48287"/>
</g>
<g opacity="0.3" filter="url(#filter1_g_48_389)">
<path d="M54.5715 44.6592C57.844 44.6592 60.4968 43.3093 60.4968 41.6442C60.4968 39.979 57.844 38.6292 54.5715 38.6292C51.2991 38.6292 48.6462 39.979 48.6462 41.6442C48.6462 43.3093 51.2991 44.6592 54.5715 44.6592Z" fill="#D48287"/>
</g>
<path d="M25.5013 39.8774C27.0318 39.8774 28.2725 38.4398 28.2725 36.6664C28.2725 34.893 27.0318 33.4553 25.5013 33.4553C23.9709 33.4553 22.7302 34.893 22.7302 36.6664C22.7302 38.4398 23.9709 39.8774 25.5013 39.8774Z" fill="#4D4D4D"/>
<path d="M55.2565 39.8243C56.7869 39.8243 58.0276 38.3866 58.0276 36.6132C58.0276 34.8398 56.7869 33.4022 55.2565 33.4022C53.726 33.4022 52.4854 34.8398 52.4854 36.6132C52.4854 38.3866 53.726 39.8243 55.2565 39.8243Z" fill="#4D4D4D"/>
<path d="M39.9322 45.0336C39.9322 45.0336 37.7338 44.3096 38.2117 42.9527C38.6895 41.5958 42.9903 41.506 43.3721 42.4094C43.7539 43.3141 43.1812 44.671 42.0346 44.9426C42.0346 44.9426 41.7476 45.6666 42.5125 46.2996C43.2773 46.9326 44.9018 47.1132 44.9018 47.8372C44.9018 48.5611 44.4239 49.1032 43.3734 48.7418C42.3216 48.3804 40.7931 47.2042 40.7931 47.2042C40.7931 47.2042 38.022 49.3748 37.3533 48.5611C36.6845 47.7474 37.6402 47.0235 37.6402 47.0235C37.9584 46.903 38.2778 46.7826 38.596 46.6621C39.0414 46.1189 39.4881 45.5768 39.9335 45.0336H39.9322Z" fill="#4D4D4D"/>
<path d="M75.9106 42.9078L71.8494 42.139H67.5012C66.9497 42.139 66.498 41.7115 66.498 41.1895C66.498 40.6675 66.9497 40.24 67.5012 40.24L69.4825 40.1644C71.3042 40.0947 73.127 40.2908 74.8863 40.7443L75.9106 41.0088C76.4621 41.0088 76.9138 41.4363 76.9138 41.9583C76.9138 42.4803 76.4621 42.9078 75.9106 42.9078Z" fill="#4D4D4D"/>
<path d="M13.4126 42.2334L9.35135 41.4646H5.00314C4.45166 41.4646 4 41.0371 4 40.5151C4 39.9931 4.45166 39.5656 5.00314 39.5656L6.98448 39.49C8.80611 39.4204 10.629 39.6164 12.3882 40.0699L13.4126 40.3344C13.9641 40.3344 14.4157 40.7619 14.4157 41.2839C14.4157 41.8059 13.9641 42.2334 13.4126 42.2334Z" fill="#4D4D4D"/>
<path d="M14.0377 45.95L9.9565 46.6208L5.9015 48.1065C5.38745 48.2954 4.80228 48.051 4.6039 47.5632C4.40427 47.0767 4.66254 46.5228 5.17784 46.335L6.99697 45.5874C8.67013 44.9001 10.4443 44.4596 12.2572 44.2813L13.314 44.1774C13.8281 43.9884 14.4133 44.2329 14.6116 44.7206C14.8113 45.2072 14.553 45.7611 14.0377 45.9488V45.95Z" fill="#4D4D4D"/>
<path d="M65.4476 46.407L69.5125 47.1569L73.5338 48.7205C74.0442 48.9189 74.6331 48.6863 74.8427 48.2033C75.0523 47.7202 74.8065 47.1628 74.2962 46.9644L72.4945 46.1814C70.8376 45.4611 69.0721 44.9875 67.263 44.7737L66.2087 44.6497C65.6983 44.4513 65.1094 44.684 64.8998 45.167C64.6902 45.65 64.936 46.2074 65.4463 46.4058L65.4476 46.407Z" fill="#4D4D4D"/>
<path d="M39.9773 65.7939C40.3541 65.8683 40.5637 66.1659 40.6273 66.6229C40.7808 67.4425 41.0353 68.901 41.2761 70.676C41.7265 73.9236 42.0534 78.0287 41.7478 81.5267C41.5444 84.1591 40.9031 87.2107 40.2193 89.5621C40.0409 90.064 39.9648 90.7017 39.5942 91.0123C39.0328 91.3973 38.2155 91.0489 38.3453 89.6518C38.7782 86.5837 39.4682 83.0278 39.8862 80.0635C39.9373 79.6006 39.9286 79.2652 39.8837 78.8034C39.5269 75.5676 38.7358 70.1316 38.4127 66.7729C38.3715 65.7502 39.3846 65.6474 39.9673 65.7903L39.9773 65.7927V65.7939Z" fill="#90A96B" stroke="#534741" stroke-width="2" stroke-miterlimit="10"/>
<path d="M34.9926 55.9032C35.2908 55.6977 35.342 55.2891 35.4705 54.9679C35.6614 54.4058 36.0008 53.6511 36.5884 53.0831C37.7351 51.9045 39.6815 51.8123 40.9291 52.9012C41.1712 53.1008 41.3895 53.3311 41.5742 53.5791C42.203 54.4176 42.2791 55.1935 42.6073 55.9068C42.787 56.2906 43.2399 56.1347 43.5718 56.0379C44.0696 55.8902 44.7932 55.6399 45.5107 55.6198C46.3628 55.5761 47.2325 55.908 47.7128 56.5953C48.6449 57.9333 48.5638 60.3224 47.507 61.3475C47.1476 61.7101 46.5774 61.9356 46.117 62.088C45.7976 62.1895 45.7303 62.3053 45.8912 62.5308C47.1402 64.0909 47.2624 65.4844 45.5681 66.9181C44.6161 67.681 43.3122 68.2869 42.082 67.8228C41.3459 67.5582 40.7295 67.0138 40.2279 66.7646C39.77 66.5249 39.3758 66.5662 38.8667 66.8945C38.1268 67.3988 37.2871 67.9078 36.3364 67.9739C34.9589 68.1274 33.6227 67.3303 33.1161 66.1174C32.778 65.3675 32.7293 64.4853 32.8666 63.7602C32.9327 63.276 33.1673 62.8084 33.2359 62.3395C33.2658 61.9167 32.8703 61.7526 32.5197 61.5258C32.3163 61.403 32.078 61.2613 31.8335 61.0853C30.2389 60 29.4017 57.8152 31.2333 56.5339C31.9607 56.0367 32.9764 55.9162 33.7312 55.9564C34.1454 55.9528 34.6171 56.0945 34.9851 55.9115L34.9939 55.9068L34.9926 55.9032Z" fill="#E57373" stroke="#534741" stroke-width="2" stroke-linecap="round" stroke-linejoin="round"/>
<path d="M39.281 62.9926C40.5826 62.9926 41.6379 61.9123 41.6379 60.5798C41.6379 59.2473 40.5826 58.1671 39.281 58.1671C37.9793 58.1671 36.9241 59.2473 36.9241 60.5798C36.9241 61.9123 37.9793 62.9926 39.281 62.9926Z" fill="#E3C0C6" stroke="#534741" stroke-width="2" stroke-miterlimit="10"/>
<path d="M63.1007 22.5514C63.2429 21.2075 63.6721 19.5919 64.2373 18.3164C64.6391 17.3705 65.465 16.2533 66.6516 16.8591C67.7084 17.4449 68.5194 18.816 68.8113 20.1162C69.0621 20.0005 69.3354 19.9355 69.6236 19.9355C70.1576 19.9355 70.6454 20.1576 71.0235 20.5237C71.9792 19.2718 73.5775 18.1889 74.9425 17.5535C75.8259 17.1733 76.6743 16.9099 77.5177 17.087C78.6481 17.4047 78.3974 18.7475 78.2239 19.6379C77.7336 21.7306 75.4628 28.8968 72.2088 27.1005C71.3529 26.5537 70.7116 25.6904 70.3697 24.7267C70.1364 24.8248 69.8856 24.8803 69.6223 24.8803C68.8513 24.8803 68.1775 24.4197 67.7932 23.7276C67.7907 23.73 67.7895 23.7324 67.787 23.7347C67.0384 24.4894 65.9953 25.0846 64.9635 25.2346C63.2454 25.4956 62.9422 23.802 63.1007 22.5526V22.5514Z" fill="#FAC6B3" stroke="#534741" stroke-width="2" stroke-miterlimit="10"/>
<defs>
<filter id="filter0_g_48_389" x="0.48584" y="18.1461" width="51.8506" height="46.03" filterUnits="userSpaceOnUse" color-interpolation-filters="sRGB">
<feFlood flood-opacity="0" result="BackgroundImageFix"/>
<feBlend mode="normal" in="SourceGraphic" in2="BackgroundImageFix" result="shape"/>
<feTurbulence type="fractalNoise" baseFrequency="2 2" numOctaves="3" seed="4474" />
<feDisplacementMap in="shape" scale="40" xChannelSelector="R" yChannelSelector="G" result="displacedImage" width="100%" height="100%" />
<feMerge result="effect1_texture_48_389">
<feMergeNode in="displacedImage"/>
</feMerge>
</filter>
<filter id="filter1_g_48_389" x="28.6462" y="18.6292" width="51.8506" height="46.03" filterUnits="userSpaceOnUse" color-interpolation-filters="sRGB">
<feFlood flood-opacity="0" result="BackgroundImageFix"/>
<feBlend mode="normal" in="SourceGraphic" in2="BackgroundImageFix" result="shape"/>
<feTurbulence type="fractalNoise" baseFrequency="2 2" numOctaves="3" seed="4474" />
<feDisplacementMap in="shape" scale="40" xChannelSelector="R" yChannelSelector="G" result="displacedImage" width="100%" height="100%" />
<feMerge result="effect1_texture_48_389">
<feMergeNode in="displacedImage"/>
</feMerge>
</filter>
<linearGradient id="paint0_linear_48_389" x1="41.0105" y1="53.7184" x2="41.0105" y2="97.8626" gradientUnits="userSpaceOnUse">
<stop stop-color="#AAA49C"/>
<stop offset="1" stop-color="#C4C7CE"/>
</linearGradient>
</defs>
</svg>
