<svg width="61" height="51" viewBox="0 0 61 51" fill="none" xmlns="http://www.w3.org/2000/svg">
<g clip-path="url(#clip0_100_149)">
<path d="M1.04199 50.2948V7.41547C1.04199 6.87701 1.4785 6.4405 2.01696 6.4405H2.03943C2.56548 6.4405 2.99194 6.01405 2.99194 5.48799V5.48799C2.99194 4.96092 3.41998 4.53404 3.94705 4.53549L3.97314 4.53556C4.49605 4.53699 4.92072 4.11349 4.92072 3.59057V3.56936C4.92072 3.0581 5.33595 2.64405 5.84721 2.64551V2.64551C6.35847 2.64697 6.7737 2.23293 6.7737 1.72167V1.67802C6.7737 1.14235 7.20901 0.708656 7.74468 0.710655L25.1785 0.775718C25.713 0.777713 26.1466 1.20896 26.1515 1.74343L26.1527 1.86973C26.1569 2.32926 26.5268 2.70163 26.9863 2.709V2.709C27.4451 2.71635 27.8146 3.08767 27.8198 3.54652L27.8228 3.81311C27.8277 4.24933 28.1822 4.60065 28.6185 4.60163V4.60163C29.0543 4.60261 29.4087 4.95334 29.4141 5.38918L29.4161 5.55081C29.4223 6.04396 29.8238 6.4405 30.317 6.4405V6.4405C30.8092 6.4405 31.2104 6.83561 31.2178 7.32781L31.2194 7.43442C31.2277 7.98401 31.6743 8.42589 32.224 8.42832L57.5815 8.54067C57.9737 8.54241 58.289 8.86393 58.2832 9.2561V9.2561C58.2779 9.56993 58.2815 9.88551 58.2832 10.1993V10.1993C58.2832 10.3414 58.3986 10.4561 58.5406 10.4592C58.5594 10.4596 58.5782 10.46 58.597 10.4603C58.7857 10.4638 58.9743 10.4673 59.1648 10.4673C59.297 10.4673 59.4292 10.4656 59.5632 10.4603V10.4603C59.9626 10.4449 60.2949 10.7645 60.2949 11.1643V48.2913C60.2949 49.3959 59.3994 50.2913 58.2949 50.2913H1.04552C1.04357 50.2913 1.04199 50.2929 1.04199 50.2948V50.2948Z" fill="url(#paint0_radial_100_149)"/>
<path d="M7.47882 2.38584C7.47882 1.85065 7.91374 1.41736 8.44892 1.41935L24.4847 1.47915C25.0165 1.48114 25.4479 1.91063 25.4533 2.44241C25.4537 2.48264 25.4541 2.52286 25.4545 2.56317C25.4591 3.02316 25.8292 3.39624 26.2891 3.4036V3.4036C26.7482 3.41095 27.1179 3.78266 27.1232 4.24175C27.1243 4.33363 27.1253 4.42509 27.1264 4.51706C27.1315 4.95287 27.4856 5.30407 27.9214 5.30504V5.30504C28.3573 5.30602 28.7123 5.65727 28.7181 6.09313C28.7188 6.1497 28.7195 6.20604 28.7202 6.26239V6.26239C28.7202 6.75408 29.1248 7.14568 29.6165 7.14568V7.14568C30.1127 7.14568 30.5177 7.54374 30.525 8.03992C30.5255 8.07257 30.526 8.10521 30.5264 8.13786C30.5345 8.68662 30.9804 9.12757 31.5292 9.13003C39.9079 9.16757 48.2611 9.20371 56.6398 9.24126C57.157 9.24358 57.5752 9.6681 57.5795 10.1853C57.581 10.3704 57.5826 10.5554 57.5827 10.7405C57.5828 10.9714 57.7737 11.1584 58.0046 11.1584V11.1584C58.3907 11.1584 58.7785 11.1725 59.1647 11.1725V11.1725C59.3967 11.1725 59.5896 11.3583 59.5896 11.5904V47.5878C59.5896 48.6924 58.6941 49.5878 57.5896 49.5878H3.74712C2.64255 49.5878 1.74712 48.6924 1.74712 47.5878V8.12065C1.74712 7.58219 2.18363 7.14568 2.72209 7.14568H2.74543C3.271 7.14568 3.69706 6.71962 3.69706 6.19405V6.19405C3.69706 5.66746 4.12471 5.24098 4.6513 5.24243L4.67826 5.2425C5.20118 5.24394 5.62585 4.82043 5.62585 4.29751V4.2763C5.62585 3.76505 6.04108 3.351 6.55233 3.35246V3.35246C7.06359 3.35392 7.47882 2.93987 7.47882 2.42861V2.38584ZM7.04074 0.00363277C6.50431 0.00162864 6.06837 0.435937 6.06837 0.972377V1.50213C6.06837 1.74458 5.87183 1.94113 5.62937 1.94113V1.94113L5.16569 1.93939C4.64144 1.93743 4.2154 2.36188 4.2154 2.88614V3.31984C4.2154 3.60319 3.9857 3.83289 3.70235 3.83289V3.83289L3.24485 3.83118C2.71718 3.8292 2.28838 4.25641 2.28838 4.78408V4.78408C2.28838 5.31036 1.86174 5.73699 1.33547 5.73699H1.31252C0.773574 5.73699 0.33667 6.1739 0.33667 6.71285V49.0018C0.33667 50.1063 1.2321 51.0018 2.33667 51.0018H59C60.1046 51.0018 61 50.1063 61 49.0018V11.1665C61 10.367 60.3356 9.72773 59.5367 9.75853V9.75853C59.4238 9.76206 59.3039 9.76558 59.1647 9.76558V9.76558C59.0663 9.76558 58.9865 9.68586 58.9867 9.58751C58.9868 9.48201 58.9872 9.37697 58.9884 9.27193V9.27193C59.001 8.48687 58.3701 7.84244 57.585 7.83856V7.83856L43.5722 7.77685L32.5267 7.72835C32.1947 7.72689 31.925 7.45997 31.9201 7.12805V7.12805L31.9124 6.62508C31.905 6.13341 31.5043 5.73876 31.0125 5.73876H30.5696C30.3224 5.73876 30.1211 5.53994 30.1183 5.2927V5.2927V5.2927C30.1085 4.52208 29.482 3.90184 28.7113 3.89989V3.89989V3.89989C28.6097 3.89989 28.5271 3.81813 28.526 3.71654C28.5249 3.61534 28.5238 3.5116 28.5227 3.40447V3.40447C28.5148 2.64031 27.8993 2.02166 27.1352 2.00989V2.00989V2.00989C26.9817 2.00793 26.8581 1.88299 26.8562 1.72955C26.8551 1.64676 26.8539 1.56238 26.8531 1.47568V1.47568C26.8462 0.703637 26.22 0.0805065 25.4479 0.0775746V0.0775746L7.48411 0.00528918L7.04074 0.00363277Z" fill="#5C5653"/>
<path d="M44.4396 9.2137H14.9102H4.10086V9.20313H1.75952V49.5842H4.10086V11.1531H14.9102H44.4396H57.5833V9.2137H44.4396Z" fill="white"/>
<path d="M9.61585 2.39949C9.61585 1.86395 9.18171 1.42981 8.64617 1.42981H8.45576C7.92801 1.42981 7.50018 1.86251 7.50018 2.39026V2.39026C7.50018 2.91266 7.0767 3.34097 6.5543 3.34097H6.51463C6.01415 3.34097 5.60842 3.74669 5.60842 4.24718V4.24718C5.60842 4.74766 5.2027 5.15339 4.70221 5.15339H4.57879C4.09194 5.15339 3.69727 5.54806 3.69727 6.03492V6.03492C3.69727 6.52177 4.09194 6.91645 4.57879 6.91645H4.99488C5.44668 6.91645 5.81294 6.55019 5.81294 6.09839V6.09839C5.81294 5.64659 6.17919 5.28033 6.631 5.28033H6.76851C7.29627 5.28033 7.72409 4.84763 7.72409 4.31988V4.31988C7.72409 3.79748 8.14758 3.36917 8.66997 3.36917V3.36917C9.19237 3.36917 9.61585 2.94569 9.61585 2.42329V2.39949Z" fill="white"/>
</g>
<defs>
<radialGradient id="paint0_radial_100_149" cx="0" cy="0" r="1" gradientUnits="userSpaceOnUse" gradientTransform="translate(30.6684 25.5009) rotate(90) scale(24.7939 29.6264)">
<stop stop-color="#E7B0B1"/>
<stop offset="1" stop-color="#D48287"/>
</radialGradient>
<clipPath id="clip0_100_149">
<rect width="60.6633" height="51" fill="white" transform="translate(0.33667)"/>
</clipPath>
</defs>
</svg>
