<svg width="318" height="256" viewBox="0 0 318 256" fill="none" xmlns="http://www.w3.org/2000/svg">
<g filter="url(#filter0_ifn_217_1301)">
<path d="M192.968 73.728L177.106 1.47388L190.075 2.02258L228.409 174.016L206.486 254.625H168.726C168.426 247.716 177.929 225.344 177.056 220.506C176.507 217.463 172.167 220.456 171.469 216.889C170.397 211.352 180.897 183.843 180.922 173.941C180.947 164.039 166.331 112.262 168.726 110.092C169.15 109.693 173.938 110.466 174.337 110.092C175.859 108.62 167.628 78.4668 167.803 73.728H192.968ZM201.373 111.04H182.717C183.241 130.294 194.814 155.634 194.914 173.966C194.989 186.935 186.234 204.968 184.588 218.261H202.77C205.065 218.261 214.492 176.535 214.492 173.991C214.492 156.557 201.872 129.671 201.373 111.04Z" fill="#C67F82"/>
<path d="M249.385 73.728C252.079 74.9252 256.942 107.598 259.062 109.543C260.858 111.189 264.075 108.945 265.771 110.691C267.991 112.96 281.085 168.08 281.359 172.37C281.459 174.14 280.337 182.82 279.713 182.82H246.143L236.815 218.261H261.98L251.729 254.625H219.081C219.281 248.066 229.233 225.095 228.459 220.556C227.961 217.663 223.272 219.259 222.798 217.762C222.025 215.293 234.62 181.099 234.62 174.116C234.595 161.421 218.658 120.168 220.079 111.439L226.539 109.668L218.159 73.7529H249.385V73.728ZM252.652 111.04C251.555 110.267 236.864 111.613 233.996 111.04C235.692 114.083 239.658 146.481 241.454 146.481H261.032C258.638 142.341 254.124 112.087 252.652 111.04Z" fill="#C67F82"/>
<path d="M11.149 254.625L21.449 169.277L1.82104 1L44.569 2.0725L49.383 38.2868H19.554C21.748 46.5672 25.115 107.847 28.009 110.017C29.43 111.115 53.1491 109.144 54.0721 110.067C55.3691 111.364 56.6161 141.917 58.7361 146.431H32.623C39.681 182.695 28.009 218.635 24.243 254.6H11.198L11.149 254.625Z" fill="#C67F82"/>
<path d="M98.791 73.728C100.512 74.8254 102.632 105.378 104.553 108.521C106.224 111.264 109.416 109.793 111.86 110.092C111.86 129.92 122.211 155.011 122.186 173.991C122.186 178.78 114.33 218.236 112.185 219.134C110.638 219.783 107.82 217.912 107.221 218.261C105.625 219.209 102.059 250.585 99.29 254.625H68.064C67.49 249.113 74.948 222.601 73.726 219.733C73.102 218.286 68.713 220.182 67.989 216.889C66.842 211.677 74.773 182.221 74.648 172.07C74.549 163.216 63.949 112.262 66.218 110.117C66.867 109.493 71.057 111.015 71.83 109.593C73.302 106.924 66.493 79.1651 67.141 73.7529H98.841L98.791 73.728ZM97.869 110.092C96.497 109.219 82.255 110.74 79.213 110.092C80.061 129.82 88.491 153.814 88.59 173.018C88.665 187.11 82.38 204.02 81.058 218.261H99.24C101.51 218.261 108.169 177.059 108.169 173.966C108.169 168.678 100.562 111.838 97.844 110.092H97.869Z" fill="#C67F82"/>
<path d="M118.37 254.625C119.866 250.036 124.131 220.356 125.702 218.81C127.473 217.064 137.2 219.284 138.771 218.161C140.617 216.864 146.104 179.303 148.074 174.091L123.782 39.883C122.26 36.7405 118.494 39.8581 116.674 36.7405C113.98 32.1763 113.107 7.7341 110.912 1L129.618 2.5214C137.4 50.9818 149.546 98.893 157.078 147.379C158.674 157.679 161.942 168.08 161.243 178.63C160.445 190.826 153.561 205.865 151.94 218.286H164.984L156.604 254.65H118.37V254.625Z" fill="#C67F82"/>
<path d="M281.559 73.7279C283.155 74.7006 289.465 108.895 290.986 109.992C291.56 110.416 295.999 111.09 296.498 108.695C297.271 104.879 285.774 75.9726 288.093 73.7279C290.911 74.6258 304.679 73.1293 306.15 73.6531C307.996 74.3015 315.528 106.65 317 111.04H298.344C298.269 116.028 308.52 145.658 306.749 147.404C306.15 147.977 301.811 146.581 301.137 147.878C300.464 149.175 308.869 171.422 308.42 176.51C301.985 186.287 287.644 249.587 282.955 253.702C280.511 255.847 272.729 254.051 269.437 254.625L294.278 174.116L268.49 73.7279C270.859 74.2517 280.386 73.0296 281.534 73.7279H281.559Z" fill="#C67F82"/>
</g>
<defs>
<filter id="filter0_ifn_217_1301" x="0.821045" y="0" width="317.179" height="258.788" filterUnits="userSpaceOnUse" color-interpolation-filters="sRGB">
<feFlood flood-opacity="0" result="BackgroundImageFix"/>
<feBlend mode="normal" in="SourceGraphic" in2="BackgroundImageFix" result="shape"/>
<feColorMatrix in="SourceAlpha" type="matrix" values="0 0 0 0 0 0 0 0 0 0 0 0 0 0 0 0 0 0 127 0" result="hardAlpha"/>
<feOffset dy="4"/>
<feGaussianBlur stdDeviation="2"/>
<feComposite in2="hardAlpha" operator="arithmetic" k2="-1" k3="1"/>
<feColorMatrix type="matrix" values="0 0 0 0 0 0 0 0 0 0 0 0 0 0 0 0 0 0 0.75 0"/>
<feBlend mode="normal" in2="shape" result="effect1_innerShadow_217_1301"/>
<feGaussianBlur stdDeviation="0.5" result="effect2_foregroundBlur_217_1301"/>
<feTurbulence type="fractalNoise" baseFrequency="2 2" stitchTiles="stitch" numOctaves="3" result="noise" seed="4252" />
<feColorMatrix in="noise" type="luminanceToAlpha" result="alphaNoise" />
<feComponentTransfer in="alphaNoise" result="coloredNoise1">
<feFuncA type="discrete" tableValues="1 1 1 1 1 1 1 1 1 1 1 1 1 1 1 1 1 1 1 1 1 1 1 1 1 1 1 1 1 1 1 1 1 1 1 1 1 1 1 1 1 1 1 1 1 1 1 1 1 1 1 0 0 0 0 0 0 0 0 0 0 0 0 0 0 0 0 0 0 0 0 0 0 0 0 0 0 0 0 0 0 0 0 0 0 0 0 0 0 0 0 0 0 0 0 0 0 0 0 0 "/>
</feComponentTransfer>
<feComposite operator="in" in2="effect2_foregroundBlur_217_1301" in="coloredNoise1" result="noise1Clipped" />
<feFlood flood-color="rgba(0, 0, 0, 0.25)" result="color1Flood" />
<feComposite operator="in" in2="noise1Clipped" in="color1Flood" result="color1" />
<feMerge result="effect3_noise_217_1301">
<feMergeNode in="effect2_foregroundBlur_217_1301" />
<feMergeNode in="color1" />
</feMerge>
</filter>
</defs>
</svg>
