<svg width="61" height="51" viewBox="0 0 61 51" fill="none" xmlns="http://www.w3.org/2000/svg">
<g clip-path="url(#clip0_100_141)">
<path d="M0.705322 50.2948V7.41547C0.705322 6.87701 1.14183 6.4405 1.68029 6.4405H1.70276C2.22881 6.4405 2.65527 6.01405 2.65527 5.48799V5.48799C2.65527 4.96092 3.08331 4.53404 3.61038 4.53549L3.63647 4.53556C4.15938 4.53699 4.58405 4.11349 4.58405 3.59057V3.56936C4.58405 3.0581 4.99928 2.64405 5.51054 2.64551V2.64551C6.0218 2.64697 6.43703 2.23293 6.43703 1.72167V1.67802C6.43703 1.14235 6.87234 0.708656 7.40801 0.710655L24.8418 0.775718C25.3763 0.777713 25.8099 1.20896 25.8149 1.74343L25.816 1.86973C25.8202 2.32926 26.1901 2.70163 26.6496 2.709V2.709C27.1084 2.71635 27.478 3.08767 27.4831 3.54652L27.4861 3.81311C27.491 4.24933 27.8456 4.60065 28.2818 4.60163V4.60163C28.7177 4.60261 29.072 4.95334 29.0775 5.38918L29.0795 5.55081C29.0856 6.04396 29.4871 6.4405 29.9803 6.4405V6.4405C30.4726 6.4405 30.8737 6.83561 30.8811 7.32781L30.8828 7.43442C30.8911 7.98401 31.3377 8.42589 31.8873 8.42832L57.2448 8.54067C57.637 8.54241 57.9524 8.86393 57.9466 9.2561V9.2561C57.9413 9.56993 57.9448 9.88551 57.9466 10.1993V10.1993C57.9466 10.3414 58.0619 10.4561 58.2039 10.4592C58.2227 10.4596 58.2416 10.46 58.2604 10.4603C58.449 10.4638 58.6377 10.4673 58.8281 10.4673C58.9603 10.4673 59.0925 10.4656 59.2265 10.4603V10.4603C59.626 10.4449 59.9582 10.7645 59.9582 11.1643V48.2913C59.9582 49.3959 59.0628 50.2913 57.9582 50.2913H0.708847C0.706901 50.2913 0.705322 50.2929 0.705322 50.2948V50.2948Z" fill="url(#paint0_radial_100_141)"/>
<path d="M7.14215 2.38584C7.14215 1.85065 7.57707 1.41736 8.11225 1.41935L24.148 1.47915C24.6798 1.48114 25.1112 1.91063 25.1166 2.44241C25.117 2.48264 25.1174 2.52286 25.1178 2.56317C25.1224 3.02316 25.4925 3.39624 25.9525 3.4036V3.4036C26.4115 3.41095 26.7812 3.78266 26.7865 4.24175C26.7876 4.33363 26.7887 4.42509 26.7897 4.51706C26.7948 4.95287 27.1489 5.30407 27.5848 5.30504V5.30504C28.0207 5.30602 28.3756 5.65727 28.3814 6.09313C28.3821 6.1497 28.3828 6.20604 28.3835 6.26239V6.26239C28.3835 6.75408 28.7881 7.14568 29.2798 7.14568V7.14568C29.776 7.14568 30.181 7.54374 30.1883 8.03992C30.1888 8.07257 30.1893 8.10521 30.1898 8.13786C30.1978 8.68662 30.6438 9.12757 31.1926 9.13003C39.5712 9.16757 47.9244 9.20371 56.3031 9.24126C56.8204 9.24358 57.2386 9.6681 57.2428 10.1853C57.2444 10.3704 57.2459 10.5554 57.246 10.7405C57.2462 10.9714 57.437 11.1584 57.6679 11.1584V11.1584C58.054 11.1584 58.4419 11.1725 58.828 11.1725V11.1725C59.0601 11.1725 59.2529 11.3583 59.2529 11.5904V47.5878C59.2529 48.6924 58.3575 49.5878 57.2529 49.5878H3.41045C2.30588 49.5878 1.41045 48.6924 1.41045 47.5878V8.12065C1.41045 7.58219 1.84696 7.14568 2.38542 7.14568H2.40876C2.93433 7.14568 3.36039 6.71962 3.36039 6.19405V6.19405C3.36039 5.66746 3.78804 5.24098 4.31463 5.24243L4.34159 5.2425C4.86451 5.24394 5.28918 4.82043 5.28918 4.29751V4.2763C5.28918 3.76505 5.70441 3.351 6.21566 3.35246V3.35246C6.72692 3.35392 7.14215 2.93987 7.14215 2.42861V2.38584ZM6.70407 0.00363277C6.16764 0.00162864 5.7317 0.435937 5.7317 0.972377V1.50213C5.7317 1.74458 5.53516 1.94113 5.2927 1.94113V1.94113L4.82902 1.93939C4.30477 1.93743 3.87873 2.36188 3.87873 2.88614V3.31984C3.87873 3.60319 3.64903 3.83289 3.36568 3.83289V3.83289L2.90818 3.83118C2.38051 3.8292 1.95171 4.25641 1.95171 4.78408V4.78408C1.95171 5.31036 1.52507 5.73699 0.998795 5.73699H0.975853C0.436904 5.73699 0 6.1739 0 6.71285V49.0018C0 50.1063 0.89543 51.0018 2 51.0018H58.6633C59.7679 51.0018 60.6633 50.1063 60.6633 49.0018V11.1665C60.6633 10.367 59.9989 9.72773 59.2 9.75853V9.75853C59.0872 9.76206 58.9673 9.76558 58.828 9.76558V9.76558C58.7296 9.76558 58.6499 9.68586 58.65 9.58751C58.6501 9.48201 58.6506 9.37697 58.6517 9.27193V9.27193C58.6643 8.48687 58.0334 7.84244 57.2483 7.83856V7.83856L43.2355 7.77685L32.19 7.72835C31.858 7.72689 31.5883 7.45997 31.5834 7.12805V7.12805L31.5758 6.62508C31.5683 6.13341 31.1676 5.73876 30.6759 5.73876H30.233C29.9857 5.73876 29.7844 5.53994 29.7816 5.2927V5.2927V5.2927C29.7718 4.52208 29.1454 3.90184 28.3747 3.89989V3.89989V3.89989C28.2731 3.89989 28.1904 3.81813 28.1893 3.71654C28.1882 3.61534 28.1871 3.5116 28.186 3.40447V3.40447C28.1782 2.64031 27.5626 2.02166 26.7985 2.00989V2.00989V2.00989C26.6451 2.00793 26.5215 1.88299 26.5195 1.72955C26.5184 1.64676 26.5172 1.56238 26.5164 1.47568V1.47568C26.5096 0.703637 25.8833 0.0805065 25.1112 0.0775746V0.0775746L7.14744 0.00528918L6.70407 0.00363277Z" fill="#5C5653"/>
<path d="M44.103 9.2137H14.5735H3.76419V9.20313H1.42285V49.5842H3.76419V11.1531H14.5735H44.103H57.2466V9.2137H44.103Z" fill="white"/>
<path d="M9.27918 2.39949C9.27918 1.86395 8.84504 1.42981 8.3095 1.42981H8.11909C7.59134 1.42981 7.16351 1.86251 7.16351 2.39026V2.39026C7.16351 2.91266 6.74003 3.34097 6.21763 3.34097H6.17796C5.67748 3.34097 5.27175 3.74669 5.27175 4.24718V4.24718C5.27175 4.74766 4.86603 5.15339 4.36554 5.15339H4.24213C3.75527 5.15339 3.3606 5.54806 3.3606 6.03492V6.03492C3.3606 6.52177 3.75527 6.91645 4.24212 6.91645H4.65821C5.11001 6.91645 5.47627 6.55019 5.47627 6.09839V6.09839C5.47627 5.64659 5.84252 5.28033 6.29433 5.28033H6.43184C6.9596 5.28033 7.38742 4.84763 7.38742 4.31988V4.31988C7.38742 3.79748 7.81091 3.36917 8.3333 3.36917V3.36917C8.8557 3.36917 9.27918 2.94569 9.27918 2.42329V2.39949Z" fill="white"/>
</g>
<defs>
<radialGradient id="paint0_radial_100_141" cx="0" cy="0" r="1" gradientUnits="userSpaceOnUse" gradientTransform="translate(30.3318 25.5009) rotate(90) scale(24.7939 29.6264)">
<stop stop-color="#E7B0B1"/>
<stop offset="1" stop-color="#D48287"/>
</radialGradient>
<clipPath id="clip0_100_141">
<rect width="60.6633" height="51" fill="white"/>
</clipPath>
</defs>
</svg>
