<svg width="62" height="51" viewBox="0 0 62 51" fill="none" xmlns="http://www.w3.org/2000/svg">
<g clip-path="url(#clip0_100_109)">
<path d="M0.71167 50.2883V7.01484C0.71167 6.47143 1.15219 6.03091 1.6956 6.03091H1.71827C2.24916 6.03091 2.67954 5.60054 2.67954 5.06965V5.06965C2.67954 4.53773 3.11151 4.10694 3.64343 4.1084L3.66975 4.10847C4.19748 4.10991 4.62605 3.68252 4.62605 3.15479V3.13339C4.62605 2.61743 5.0451 2.19958 5.56105 2.20105V2.20105C6.07701 2.20252 6.49605 1.78467 6.49605 1.26871V1.22467C6.49605 0.684066 6.93537 0.24639 7.47596 0.248408L25.07 0.314069C25.6094 0.316083 26.047 0.751293 26.052 1.29067L26.0532 1.41813C26.0574 1.88189 26.4307 2.25769 26.8944 2.26512V2.26512C27.3574 2.27254 27.7304 2.64727 27.7356 3.11034L27.7386 3.37938C27.7436 3.81961 28.1014 4.17416 28.5416 4.17514V4.17514C28.9815 4.17613 29.3391 4.53009 29.3446 4.96993L29.3466 5.13305C29.3528 5.63073 29.758 6.03091 30.2557 6.03091V6.03091C30.7525 6.03091 31.1573 6.42965 31.1648 6.92638L31.1665 7.03397C31.1748 7.58862 31.6256 8.03455 32.1803 8.03701L57.7708 8.15039C58.1666 8.15214 58.4849 8.47662 58.479 8.8724V8.8724C58.4737 9.18911 58.4772 9.5076 58.479 9.8243V9.8243C58.479 9.96766 58.5954 10.0835 58.7388 10.0865C58.7577 10.0869 58.7767 10.0873 58.7957 10.0876C58.9861 10.0912 59.1765 10.0948 59.3686 10.0948C59.5021 10.0948 59.6355 10.093 59.7708 10.0876V10.0876C60.1739 10.0721 60.5091 10.3947 60.5091 10.7981V48.2848C60.5091 49.3893 59.6137 50.2848 58.5091 50.2848H0.715227C0.713263 50.2848 0.71167 50.2863 0.71167 50.2883V50.2883Z" fill="url(#paint0_radial_100_109)"/>
<path d="M7.2078 1.93902C7.2078 1.39891 7.64671 0.961635 8.18681 0.963649L24.37 1.024C24.9067 1.026 25.342 1.45944 25.3474 1.99611C25.3479 2.0367 25.3483 2.0773 25.3487 2.11798C25.3533 2.58219 25.7268 2.95871 26.191 2.96614V2.96614C26.6543 2.97355 27.0274 3.34868 27.0327 3.81199C27.0338 3.90471 27.0349 3.99701 27.036 4.08982C27.0411 4.52965 27.3984 4.88407 27.8383 4.88505V4.88505C28.2782 4.88604 28.6365 5.24052 28.6422 5.68038C28.643 5.73747 28.6437 5.79433 28.6444 5.85119V5.85119C28.6444 6.3474 29.0527 6.7426 29.5489 6.7426V6.7426C30.0497 6.7426 30.4584 7.14432 30.4658 7.64507C30.4663 7.67801 30.4668 7.71096 30.4673 7.74391C30.4754 8.29771 30.9254 8.74271 31.4793 8.74519C39.9349 8.78308 48.3649 8.81955 56.8206 8.85745C57.3426 8.85979 57.7646 9.28821 57.769 9.81017C57.7705 9.99693 57.7721 10.1837 57.7722 10.3705C57.7723 10.6035 57.9649 10.7922 58.1979 10.7922V10.7922C58.5876 10.7922 58.979 10.8064 59.3687 10.8064V10.8064C59.6029 10.8064 59.7975 10.994 59.7975 11.2282V47.5748C59.7975 48.6794 58.9021 49.5748 57.7975 49.5748H3.42341C2.31884 49.5748 1.42341 48.6794 1.42341 47.5748V7.72654C1.42341 7.18313 1.86393 6.7426 2.40734 6.7426H2.4309C2.9613 6.7426 3.39128 6.31263 3.39128 5.78223V5.78223C3.39128 5.2508 3.82286 4.8204 4.35428 4.82186L4.38149 4.82194C4.90922 4.82338 5.33779 4.39598 5.33779 3.86826V3.84686C5.33779 3.3309 5.75684 2.91305 6.27279 2.91452V2.91452C6.78875 2.91599 7.2078 2.49814 7.2078 1.98218V1.93902ZM6.76569 -0.465084C6.22433 -0.467106 5.78439 -0.0288066 5.78439 0.512564V1.04718C5.78439 1.29187 5.58603 1.49022 5.34135 1.49022V1.49022L4.87341 1.48847C4.34433 1.48649 3.91438 1.91484 3.91438 2.44391V2.8816C3.91438 3.16756 3.68257 3.39937 3.39661 3.39937V3.39937L2.93491 3.39764C2.40239 3.39565 1.96964 3.82678 1.96964 4.3593V4.3593C1.96964 4.89042 1.53909 5.32097 1.00798 5.32097H0.984822C0.440919 5.32097 0 5.76189 0 6.3058V49.0018C0 50.1064 0.895431 51.0018 2 51.0018H59.2209C60.3255 51.0018 61.2209 50.1064 61.2209 49.0018V10.8004C61.2209 9.99358 60.5503 9.34839 59.7441 9.37947V9.37947C59.6302 9.38303 59.5092 9.38659 59.3687 9.38659V9.38659C59.2694 9.38659 59.1889 9.30613 59.1891 9.20688C59.1892 9.10041 59.1896 8.9944 59.1908 8.8884V8.8884C59.2035 8.09612 58.5668 7.44577 57.7745 7.44186V7.44186L43.6329 7.37958L32.4859 7.33063C32.1508 7.32916 31.8787 7.05979 31.8737 6.72481V6.72481L31.866 6.21722C31.8584 5.72103 31.4541 5.32275 30.9578 5.32275H30.5108C30.2613 5.32275 30.0582 5.12211 30.0553 4.8726V4.8726V4.8726C30.0454 4.09489 29.4132 3.46895 28.6355 3.46698V3.46698V3.46698C28.5329 3.46698 28.4495 3.38447 28.4484 3.28195C28.4473 3.17982 28.4462 3.07513 28.4451 2.96701V2.96701C28.4372 2.19583 27.8159 1.57149 27.0448 1.55961V1.55961V1.55961C26.89 1.55764 26.7652 1.43155 26.7632 1.27669C26.7622 1.19315 26.761 1.10799 26.7601 1.02049V1.02049C26.7532 0.241355 26.1212 -0.387504 25.342 -0.390462V-0.390462L7.21313 -0.463412L6.76569 -0.465084Z" fill="#5C5653"/>
<path d="M44.5082 8.82965H14.7073H3.79865V8.81897H1.43579V49.5712H3.79865V10.7868H14.7073H44.5082H57.7726V8.82965H44.5082Z" fill="white"/>
<path d="M9.36434 1.95278C9.36434 1.41231 8.92621 0.974182 8.38575 0.974182H8.19359C7.66099 0.974182 7.22923 1.41086 7.22923 1.94346V1.94346C7.22923 2.47066 6.80185 2.9029 6.27465 2.9029H6.23462C5.72953 2.9029 5.32008 3.31236 5.32008 3.81745V3.81745C5.32008 4.32253 4.91063 4.73199 4.40554 4.73199H4.28099C3.78966 4.73199 3.39136 5.13029 3.39136 5.62162V5.62162C3.39136 6.11295 3.78966 6.51125 4.28099 6.51125H4.7009C5.15685 6.51125 5.52647 6.14163 5.52647 5.68567V5.68567C5.52647 5.22972 5.8961 4.86009 6.35205 4.86009H6.49083C7.02344 4.86009 7.4552 4.42342 7.4552 3.89081V3.89081C7.4552 3.36362 7.88257 2.93137 8.40977 2.93137V2.93137C8.93697 2.93137 9.36434 2.50399 9.36434 1.9768V1.95278Z" fill="white"/>
</g>
<defs>
<radialGradient id="paint0_radial_100_109" cx="0" cy="0" r="1" gradientUnits="userSpaceOnUse" gradientTransform="translate(30.6104 25.2665) rotate(90) scale(25.0218 29.8987)">
<stop stop-color="#E7B0B1"/>
<stop offset="1" stop-color="#D48287"/>
</radialGradient>
<clipPath id="clip0_100_109">
<rect width="61.2209" height="51.4688" fill="white" transform="translate(0 -0.46875)"/>
</clipPath>
</defs>
</svg>
