<svg width="74" height="79" viewBox="0 0 74 79" fill="none" xmlns="http://www.w3.org/2000/svg">
<g filter="url(#filter0_d_43_323)">
<g filter="url(#filter1_d_43_323)">
<path d="M37.6645 64.1152C37.3344 64.1152 37.0245 63.9332 36.8721 63.6299C36.6892 63.2684 36.7756 62.8311 37.0804 62.5657C40.5727 59.5297 43.1075 55.9983 44.6161 52.0726C45.3908 50.0579 45.8429 48.1418 46.6353 39.317C47.0544 34.6481 47.4024 29.8806 47.6716 25.1459C47.6818 24.9639 47.7478 24.792 47.8595 24.6479C49.1523 23.0124 50.1683 21.2227 50.882 19.3344C51.2934 18.2398 51.555 17.3323 52.1265 11.3868C52.1595 11.0405 52.3932 10.7473 52.7234 10.6335C52.8174 10.6007 52.9139 10.5855 53.0104 10.5855C53.2517 10.5855 53.4879 10.6841 53.6581 10.8636C53.8968 11.1164 59.5302 17.1857 59.0857 26.9154C58.659 36.2508 58.7403 54.6535 58.7403 54.838C58.7403 55.1389 58.5905 55.4194 58.3365 55.5838C57.0589 56.4129 55.7331 57.2016 54.3997 57.9296C49.2692 60.733 43.7043 62.8058 37.855 64.095C37.7915 64.1102 37.7255 64.1152 37.662 64.1152H37.6645Z" fill="#E3C0C6"/>
</g>
<g filter="url(#filter2_d_43_323)">
<path d="M36.9279 63.9004C36.8745 63.9004 36.8212 63.8953 36.7679 63.8852C32.5263 63.1168 28.2771 62.7275 24.1397 62.7275C23.6469 62.7275 23.1771 62.7325 22.73 62.7426C21.3052 62.773 20.02 62.8463 18.8872 62.9095C17.7037 62.9752 16.6801 63.0333 15.7327 63.0333C13.8126 63.0333 11.7959 62.8185 10.0511 61.2664C8.00139 59.4438 6.73654 56.15 6.90163 53.0736C7.00322 51.1979 7.62041 49.8354 7.8236 49.388L7.8363 49.3602C9.41101 45.8844 11.7197 36.726 14.699 22.1378C14.7828 21.7232 15.1511 21.43 15.5702 21.43C15.5905 21.43 15.6108 21.43 15.6337 21.43L47.7985 23.6671C48.2861 23.7 48.6544 24.1196 48.6239 24.605C48.6138 24.7642 47.6207 40.5633 46.4549 48.3465C45.9876 51.4634 45.5355 53.8876 43.976 56.691C42.4368 59.4539 40.2373 61.8301 37.4333 63.7462C37.2835 63.8473 37.1082 63.9029 36.9304 63.9029L36.9279 63.9004Z" fill="#E3C0C6"/>
<path d="M14.6028 39.9555L19.8499 40.1321L19.82 41.0066L16.322 40.8888L16.2624 42.6378L18.8859 42.7261L18.856 43.6006L16.2325 43.5123L16.143 46.1358L14.394 46.0769L14.6028 39.9555ZM21.744 41.0713L25.242 41.1891L25.2121 42.0635L26.0866 42.093L25.9673 45.5909L25.0928 45.5615L25.063 46.436L21.565 46.3183L21.5948 45.4438L20.7203 45.4144L20.8396 41.9164L21.7141 41.9458L21.744 41.0713ZM22.5886 41.9752L22.4693 45.4732L24.2183 45.5321L24.3376 42.0341L22.5886 41.9752ZM28.0404 41.2832L31.5384 41.401L31.5086 42.2755L29.7596 42.2166L29.7297 43.0911L28.8552 43.0616L28.7359 46.5596L26.9869 46.5007L27.1361 42.1283L28.0106 42.1577L28.0404 41.2832ZM35.3862 41.5305L37.1352 41.5893L36.9861 45.9618L37.8606 45.9912L37.8904 45.1167L38.7649 45.1461L38.8843 41.6482L40.6333 41.707L40.4543 46.954L36.0817 46.8068L36.1116 45.9323L35.2371 45.9029L35.3862 41.5305Z" fill="#BD4146"/>
</g>
<g filter="url(#filter3_d_43_323)">
<path d="M48.8549 25.649C41.6518 25.242 35.3149 24.792 30.0193 24.3118L29.143 24.2309C27.6166 24.0918 24.7186 23.8264 20.8351 23.4826C17.0533 23.1489 13.594 22.8481 13.594 22.8481C13.2511 22.8178 12.954 22.5928 12.8371 22.2693C12.5298 21.43 12.3114 20.5579 12.1869 19.6782C11.8237 17.0947 11.9761 12.2413 14.8512 10.4364C15.1306 10.262 15.3922 10.1406 15.6259 10.0345C16.0323 9.8474 16.3523 9.70079 16.7637 9.29381C17.2438 8.81604 17.607 8.20936 17.8457 7.49145C17.9651 7.12744 18.308 6.88477 18.689 6.88477C18.7042 6.88477 18.7169 6.88477 18.7321 6.88477L50.7242 8.43434C50.8817 8.44192 51.0341 8.48995 51.1662 8.5759C51.5141 8.80088 51.8367 9.07136 52.1262 9.38228C53.3403 10.6816 53.6222 12.2893 53.6324 12.3576C53.9346 14.4506 53.9778 17.6307 52.4869 20.9927C51.7732 22.6029 50.7852 24.0767 49.5534 25.3735C49.3857 25.5504 49.1521 25.649 48.9082 25.649C48.8905 25.649 48.8752 25.649 48.8574 25.649H48.8549Z" fill="#E3C0C6"/>
</g>
<path d="M27.3323 29.4787C27.218 29.4787 27.1038 29.4559 26.9945 29.413C26.7482 29.3118 26.5602 29.1071 26.4815 28.8543L26.1284 27.7117L25.2928 28.2274C25.1506 28.3159 24.988 28.3588 24.8255 28.3588C24.6629 28.3588 24.508 28.3159 24.3683 28.2324C24.0839 28.0606 23.9162 27.7471 23.9391 27.416L24.0254 26.1242C24.0432 25.8639 24.1753 25.6237 24.3861 25.4695C24.8738 25.103 25.3182 22.3653 25.3208 19.7288C25.3208 19.3218 25.5976 18.9704 25.9938 18.8718C26.5602 18.7303 27.1292 18.6595 27.6905 18.6595C30.6392 18.6595 32.4197 20.6059 32.4933 20.6893C32.6127 20.8233 32.6889 20.9876 32.7118 21.1646C33.0343 23.6166 30.4818 27.4058 29.735 28.0555C28.9756 28.7153 27.8048 29.3472 27.7565 29.3725C27.6244 29.4433 27.4797 29.4787 27.3349 29.4787H27.3323Z" fill="#D17783"/>
</g>
<defs>
<filter id="filter0_d_43_323" x="0" y="0" width="74" height="79" filterUnits="userSpaceOnUse" color-interpolation-filters="sRGB">
<feFlood flood-opacity="0" result="BackgroundImageFix"/>
<feColorMatrix in="SourceAlpha" type="matrix" values="0 0 0 0 0 0 0 0 0 0 0 0 0 0 0 0 0 0 127 0" result="hardAlpha"/>
<feOffset dx="4" dy="4"/>
<feGaussianBlur stdDeviation="5"/>
<feComposite in2="hardAlpha" operator="out"/>
<feColorMatrix type="matrix" values="0 0 0 0 0 0 0 0 0 0 0 0 0 0 0 0 0 0 0.25 0"/>
<feBlend mode="normal" in2="BackgroundImageFix" result="effect1_dropShadow_43_323"/>
<feBlend mode="normal" in="SourceGraphic" in2="effect1_dropShadow_43_323" result="shape"/>
</filter>
<filter id="filter1_d_43_323" x="34.7769" y="6.58551" width="30.334" height="61.5297" filterUnits="userSpaceOnUse" color-interpolation-filters="sRGB">
<feFlood flood-opacity="0" result="BackgroundImageFix"/>
<feColorMatrix in="SourceAlpha" type="matrix" values="0 0 0 0 0 0 0 0 0 0 0 0 0 0 0 0 0 0 127 0" result="hardAlpha"/>
<feOffset dx="2"/>
<feGaussianBlur stdDeviation="2"/>
<feComposite in2="hardAlpha" operator="out"/>
<feColorMatrix type="matrix" values="0 0 0 0 0 0 0 0 0 0 0 0 0 0 0 0 0 0 0.25 0"/>
<feBlend mode="normal" in2="BackgroundImageFix" result="effect1_dropShadow_43_323"/>
<feBlend mode="normal" in="SourceGraphic" in2="effect1_dropShadow_43_323" result="shape"/>
</filter>
<filter id="filter2_d_43_323" x="2.88721" y="15.43" width="53.7383" height="54.4729" filterUnits="userSpaceOnUse" color-interpolation-filters="sRGB">
<feFlood flood-opacity="0" result="BackgroundImageFix"/>
<feColorMatrix in="SourceAlpha" type="matrix" values="0 0 0 0 0 0 0 0 0 0 0 0 0 0 0 0 0 0 127 0" result="hardAlpha"/>
<feOffset dx="2"/>
<feGaussianBlur stdDeviation="3"/>
<feComposite in2="hardAlpha" operator="out"/>
<feColorMatrix type="matrix" values="0 0 0 0 0 0 0 0 0 0 0 0 0 0 0 0 0 0 0.25 0"/>
<feBlend mode="normal" in2="BackgroundImageFix" result="effect1_dropShadow_43_323"/>
<feBlend mode="normal" in="SourceGraphic" in2="effect1_dropShadow_43_323" result="shape"/>
</filter>
<filter id="filter3_d_43_323" x="6.04492" y="2.88477" width="53.7563" height="30.7642" filterUnits="userSpaceOnUse" color-interpolation-filters="sRGB">
<feFlood flood-opacity="0" result="BackgroundImageFix"/>
<feColorMatrix in="SourceAlpha" type="matrix" values="0 0 0 0 0 0 0 0 0 0 0 0 0 0 0 0 0 0 127 0" result="hardAlpha"/>
<feOffset dy="2"/>
<feGaussianBlur stdDeviation="3"/>
<feComposite in2="hardAlpha" operator="out"/>
<feColorMatrix type="matrix" values="0 0 0 0 0 0 0 0 0 0 0 0 0 0 0 0 0 0 0.25 0"/>
<feBlend mode="normal" in2="BackgroundImageFix" result="effect1_dropShadow_43_323"/>
<feBlend mode="normal" in="SourceGraphic" in2="effect1_dropShadow_43_323" result="shape"/>
</filter>
</defs>
</svg>
