<svg width="156" height="256" viewBox="0 0 156 256" fill="none" xmlns="http://www.w3.org/2000/svg">
<g filter="url(#filter0_ifn_217_1288)">
<path d="M1.948 254.625L1 1C2.746 1.4489 12.697 1.4988 13.121 1.9228C14.393 3.1699 12.772 36.1169 14.044 37.364C16.014 39.2844 20.579 32.0017 20.579 48.0886V73.728C20.579 74.0522 27.113 73.4037 27.113 73.728V109.169C27.113 109.443 32.525 109.369 32.725 109.169C36.591 105.378 28.585 13.5453 30.854 1L43.923 1.9228C45.37 86.198 50.458 170.349 46.717 254.625H32.725C31.453 246.045 37.164 185.339 34.596 182.82C34.196 182.421 28.46 183.219 28.061 182.82C26.764 181.548 28.959 148.227 27.138 146.431C26.814 146.107 21.876 146.655 20.604 146.431V110.067C20.604 109.793 15.017 109.793 15.017 110.067V254.6H1.97299L1.948 254.625Z" fill="#C67F82"/>
<path d="M114.78 73.728C115.604 103.882 120.916 135.582 121.34 165.536C121.465 173.592 116.626 216.415 118.497 218.261C118.671 218.436 123.335 218.411 123.56 218.261C131.391 213.971 122.437 90.264 120.367 73.703H127.825C129.994 121.889 138.1 170 131.541 218.236C132.688 218.062 136.853 218.511 137.153 218.236C138.599 216.79 140.794 182.072 140.844 177.657C141.343 143.912 133.486 107.723 133.411 73.703H146.456C147.054 107.149 155.335 143.663 154.886 176.784C154.836 181.274 152.616 216.79 151.144 218.236C150.546 218.835 145.109 216.839 143.812 219.758C142.615 222.426 142.64 254.6 140.869 254.6H127.825C126.702 249.936 131.94 219.483 130.618 218.236C130.443 218.062 125.779 218.062 125.58 218.186C122.512 219.857 124.059 254.625 122.238 254.625H109.194C107.996 250.011 112.361 219.533 111.064 218.261C110.74 217.937 105.802 218.511 104.53 218.261C110.84 170.15 103.532 121.864 101.736 73.728H114.78Z" fill="#C67F82"/>
<path d="M89.5899 73.728C91.3359 78.2423 90.1389 108.82 91.4609 110.092C94.3789 112.935 97.1969 103.333 98.8929 118.971C101.063 138.799 101.387 163.042 100.315 182.82H68.1409L67.2179 218.261H92.3839L90.5129 254.625H58.8129C57.0669 250.011 61.0329 219.533 59.7609 218.261C59.4369 217.937 54.498 218.511 53.226 218.261C56.818 184.142 51.6299 148.95 52.2539 115.255C52.4529 105.129 56.568 112.312 58.838 110.092C60.135 108.82 56.543 78.2673 57.89 73.728H89.5899ZM84.9259 110.092C84.2779 109.444 68.8889 110.591 66.2699 110.092C67.1679 112.686 65.4219 145.533 67.1929 145.533H86.7719C84.6019 141.218 86.1729 111.364 84.9009 110.092H84.9259Z" fill="#C67F82"/>
</g>
<defs>
<filter id="filter0_ifn_217_1288" x="0" y="0" width="155.904" height="258.625" filterUnits="userSpaceOnUse" color-interpolation-filters="sRGB">
<feFlood flood-opacity="0" result="BackgroundImageFix"/>
<feBlend mode="normal" in="SourceGraphic" in2="BackgroundImageFix" result="shape"/>
<feColorMatrix in="SourceAlpha" type="matrix" values="0 0 0 0 0 0 0 0 0 0 0 0 0 0 0 0 0 0 127 0" result="hardAlpha"/>
<feOffset dy="4"/>
<feGaussianBlur stdDeviation="2"/>
<feComposite in2="hardAlpha" operator="arithmetic" k2="-1" k3="1"/>
<feColorMatrix type="matrix" values="0 0 0 0 0 0 0 0 0 0 0 0 0 0 0 0 0 0 0.9 0"/>
<feBlend mode="normal" in2="shape" result="effect1_innerShadow_217_1288"/>
<feGaussianBlur stdDeviation="0.5" result="effect2_foregroundBlur_217_1288"/>
<feTurbulence type="fractalNoise" baseFrequency="2 2" stitchTiles="stitch" numOctaves="3" result="noise" seed="4883" />
<feColorMatrix in="noise" type="luminanceToAlpha" result="alphaNoise" />
<feComponentTransfer in="alphaNoise" result="coloredNoise1">
<feFuncA type="discrete" tableValues="1 1 1 1 1 1 1 1 1 1 1 1 1 1 1 1 1 1 1 1 1 1 1 1 1 1 1 1 1 1 1 1 1 1 1 1 1 1 1 1 1 1 1 1 1 1 1 1 1 1 1 0 0 0 0 0 0 0 0 0 0 0 0 0 0 0 0 0 0 0 0 0 0 0 0 0 0 0 0 0 0 0 0 0 0 0 0 0 0 0 0 0 0 0 0 0 0 0 0 0 "/>
</feComponentTransfer>
<feComposite operator="in" in2="effect2_foregroundBlur_217_1288" in="coloredNoise1" result="noise1Clipped" />
<feFlood flood-color="rgba(0, 0, 0, 0.25)" result="color1Flood" />
<feComposite operator="in" in2="noise1Clipped" in="color1Flood" result="color1" />
<feMerge result="effect3_noise_217_1288">
<feMergeNode in="effect2_foregroundBlur_217_1288" />
<feMergeNode in="color1" />
</feMerge>
</filter>
</defs>
</svg>
