<svg width="303" height="330" viewBox="0 0 303 330" fill="none" xmlns="http://www.w3.org/2000/svg">
<path d="M0.559104 27.6262C0.57115 27.7506 0.583196 27.875 0.595242 27.9994C5.21281 27.5733 9.83027 27.1461 14.4476 26.7179C56.0039 22.8639 97.552 18.926 139.092 14.9041C180.632 10.8821 222.164 6.77625 263.688 2.58637C268.301 2.12083 272.915 1.65425 277.529 1.18663C277.517 1.06222 277.504 0.937798 277.492 0.813381C272.875 1.23952 268.257 1.66671 263.64 2.09492C222.084 5.94887 180.536 9.8868 138.996 13.9087C97.4556 17.9306 55.9238 22.0365 14.4 26.2264C9.7863 26.692 5.17265 27.1585 0.559104 27.6262Z" fill="#ABA9A3"/>
<path d="M25.6802 172.482C25.6932 172.606 25.7061 172.731 25.719 172.855C30.3301 172.398 34.9412 171.939 39.5522 171.479C81.051 167.342 122.541 163.121 164.022 158.815C205.504 154.51 246.976 150.121 288.44 145.648C293.047 145.151 297.654 144.653 302.261 144.154C302.248 144.03 302.235 143.905 302.223 143.781C297.611 144.239 293 144.697 288.389 145.157C246.891 149.294 205.4 153.516 163.919 157.821C122.438 162.126 80.9651 166.515 39.5012 170.988C34.8941 171.485 30.2871 171.983 25.6802 172.482Z" fill="#ABA9A3"/>
<path d="M47.0787 67.5788L57.028 66.5737L57.2272 68.5637L51.2575 69.1668L52.2532 79.1171L58.2228 78.5141L58.4219 80.5041L50.4624 81.3082L49.2677 69.3678L47.2778 69.5689L47.0787 67.5788ZM57.2272 68.5637L59.217 68.3627L60.2126 78.313L58.2228 78.5141L57.2272 68.5637ZM65.1867 67.7596L71.1563 67.1566L71.3554 69.1466L65.3858 69.7497L65.1867 67.7596ZM71.3554 69.1466L73.3453 68.9456L74.1417 76.9059L72.1519 77.1069L71.3554 69.1466ZM72.1519 77.1069L72.351 79.097L66.3814 79.7L66.1823 77.71L72.1519 77.1069ZM66.1823 77.71L64.1924 77.911L63.3959 69.9507L65.3858 69.7497L66.1823 77.71ZM81.1056 66.1515L85.0854 65.7494L85.2845 67.7395L81.3047 68.1415L81.1056 66.1515ZM85.2845 67.7395L87.2744 67.5385L88.27 77.4888L86.2801 77.6898L85.2845 67.7395ZM81.3047 68.1415L81.5039 70.1316L79.514 70.3326L80.3105 78.2929L78.3206 78.4939L77.325 68.5436L81.3047 68.1415ZM91.055 65.1463L93.0449 64.9453L93.244 66.9354L91.2541 67.1364L91.055 65.1463ZM93.244 66.9354L95.2338 66.7344L95.6321 70.7145L93.6422 70.9155L93.244 66.9354ZM98.8153 62.3522L100.805 62.1512L101.203 66.1313L107.173 65.5282L107.372 67.5183L101.403 68.1214L102 74.0915L100.01 74.2926L98.8153 62.3522ZM102 74.0915L107.97 73.4885L108.169 75.4785L102.199 76.0816L102 74.0915ZM120.903 62.131L126.873 61.5279L127.072 63.518L121.102 64.1211L120.903 62.131ZM121.102 64.1211L121.301 66.1111L119.311 66.3122L119.112 64.3221L121.102 64.1211ZM121.301 66.1111L127.271 65.5081L127.47 67.4981L121.5 68.1012L121.301 66.1111ZM127.47 67.4981L129.46 67.2971L129.858 71.2772L127.868 71.4782L127.47 67.4981ZM127.868 71.4782L128.067 73.4683L122.098 74.0714L121.899 72.0813L127.868 71.4782ZM121.899 72.0813L119.909 72.2823L119.71 70.2923L121.7 70.0913L121.899 72.0813ZM132.643 58.9348L134.633 58.7338L135.031 62.7139L141.001 62.1108L141.2 64.1009L135.23 64.704L135.828 70.6742L133.838 70.8752L132.643 58.9348ZM135.828 70.6742L141.797 70.0711L141.996 72.0612L136.027 72.6642L135.828 70.6742ZM146.771 59.5177L152.741 58.9146L152.94 60.9047L146.971 61.5078L146.771 59.5177ZM152.94 60.9047L154.93 60.7037L155.926 70.654L147.966 71.4581L147.767 69.468L153.737 68.8649L153.338 64.8848L147.369 65.4879L147.17 63.4978L153.139 62.8948L152.94 60.9047ZM147.767 69.468L145.777 69.669L145.379 65.6889L147.369 65.4879L147.767 69.468ZM158.711 58.3116L160.7 58.1105L161.298 64.0807L159.308 64.2818L158.711 58.3116ZM161.298 64.0807L165.278 63.6787L165.676 67.6588L163.686 67.8598L163.487 65.8698L161.497 66.0708L161.298 64.0807ZM165.278 63.6787L164.68 57.7085L166.67 57.5075L167.267 63.4777L165.278 63.6787ZM163.686 67.8598L163.885 69.8499L159.905 70.2519L159.706 68.2619L163.686 67.8598ZM180.599 56.1003L188.559 55.2962L189.953 69.2267L187.963 69.4277L187.564 65.4476L181.595 66.0506L181.396 64.0606L187.365 63.4575L186.768 57.4873L180.798 58.0904L180.599 56.1003ZM181.396 64.0606L179.406 64.2616L178.808 58.2914L180.798 58.0904L181.396 64.0606ZM192.538 54.8942L194.528 54.6931L195.524 64.6435L193.534 64.8445L192.538 54.8942ZM195.524 64.6435L199.504 64.2414L199.703 66.2315L195.723 66.6335L195.524 64.6435ZM199.504 64.2414L199.305 62.2514L201.294 62.0503L200.498 54.0901L202.488 53.8891L203.683 65.8294L201.693 66.0305L201.494 64.0404L199.504 64.2414ZM208.258 51.2959L210.248 51.0949L210.447 53.085L208.457 53.286L208.258 51.2959ZM206.667 55.4771L210.646 55.075L211.443 63.0353L213.433 62.8343L213.632 64.8243L207.662 65.4274L207.463 63.4373L209.453 63.2363L208.856 57.2661L206.866 57.4671L206.667 55.4771ZM218.407 52.2809L224.376 51.6778L224.576 53.6679L218.606 54.2709L218.407 52.2809ZM224.576 53.6679L226.565 53.4668L226.964 57.447L219.004 58.2511L219.402 62.2312L217.413 62.4322L216.616 54.472L218.606 54.2709L218.805 56.261L224.775 55.6579L224.576 53.6679ZM219.402 62.2312L227.362 61.4271L227.561 63.4172L219.601 64.2212L219.402 62.2312ZM230.147 49.0847L232.137 48.8836L232.535 52.8638L238.505 52.2607L238.704 54.2508L232.734 54.8538L233.331 60.824L231.342 61.025L230.147 49.0847ZM233.331 60.824L239.301 60.221L239.5 62.211L233.531 62.8141L233.331 60.824ZM245.072 57.6278L247.061 57.4268L247.46 61.4069L245.47 61.6079L245.072 57.6278ZM245.47 61.6079L245.669 63.598L243.679 63.799L243.48 61.809L245.47 61.6079Z" fill="black"/>
<path d="M55.519 113.223L57.1358 113.059L57.9447 121.144L56.328 121.307L55.519 113.223ZM56.328 121.307L56.4898 122.924L53.2562 123.251L53.0944 121.634L56.328 121.307ZM53.0944 121.634L51.4777 121.797L50.8305 115.33L52.4473 115.166L53.0944 121.634ZM51.4777 121.797L51.6394 123.414L50.0227 123.578L49.8609 121.961L51.4777 121.797ZM49.8609 121.961L48.2441 122.124L47.597 115.656L49.2138 115.493L49.8609 121.961ZM60.2076 111.116L61.8243 110.953L62.3097 115.803L63.9265 115.64L64.0883 117.257L62.4715 117.42L62.9568 122.271L61.3401 122.434L60.2076 111.116ZM63.9265 115.64L63.7647 114.023L66.9982 113.696L67.16 115.313L63.9265 115.64ZM67.16 115.313L68.7768 115.15L69.4239 121.618L67.8072 121.781L67.16 115.313ZM73.3035 111.426L78.1538 110.936L78.3156 112.553L73.4653 113.043L73.3035 111.426ZM78.3156 112.553L79.9324 112.39L80.256 115.624L73.7889 116.277L74.1125 119.511L72.4957 119.674L71.8485 113.206L73.4653 113.043L73.6271 114.66L78.4774 114.17L78.3156 112.553ZM74.1125 119.511L80.5795 118.857L80.7413 120.474L74.2742 121.128L74.1125 119.511ZM86.2377 110.119L89.4712 109.793L89.633 111.41L86.3995 111.736L86.2377 110.119ZM89.633 111.41L91.2498 111.246L92.0587 119.331L90.4419 119.494L89.633 111.41ZM86.3995 111.736L86.5613 113.353L84.9445 113.517L85.5916 119.984L83.9749 120.148L83.1659 112.063L86.3995 111.736ZM100.789 108.649L102.405 108.486L102.891 113.337L101.274 113.5L100.789 108.649ZM102.891 113.337L106.124 113.01L106.448 116.244L104.831 116.407L104.669 114.791L103.053 114.954L102.891 113.337ZM106.124 113.01L105.639 108.159L107.256 107.996L107.741 112.847L106.124 113.01ZM104.831 116.407L104.993 118.024L101.759 118.351L101.598 116.734L104.831 116.407ZM112.106 107.506L116.956 107.016L117.118 108.633L112.268 109.123L112.106 107.506ZM117.118 108.633L118.735 108.47L119.382 114.937L117.765 115.101L117.118 108.633ZM117.765 115.101L117.927 116.718L113.077 117.208L112.915 115.591L117.765 115.101ZM112.915 115.591L111.298 115.754L110.651 109.286L112.268 109.123L112.915 115.591ZM121.807 106.526L123.423 106.363L124.232 114.447L122.616 114.611L121.807 106.526ZM124.232 114.447L127.466 114.121L127.628 115.738L124.394 116.064L124.232 114.447ZM127.466 114.121L127.304 112.504L128.921 112.341L128.274 105.873L129.891 105.71L130.861 115.411L129.244 115.574L129.083 113.957L127.466 114.121ZM133.124 105.383L134.741 105.22L134.903 106.836L133.286 107L133.124 105.383ZM134.903 106.836L136.519 106.673L136.843 109.907L135.226 110.07L134.903 106.836ZM139.591 104.73L141.208 104.566L141.37 106.183L142.986 106.02L143.148 107.637L141.531 107.8L142.179 114.268L140.562 114.431L139.591 104.73ZM142.986 106.02L142.825 104.403L146.058 104.076L146.22 105.693L142.986 106.02ZM150.909 103.586L155.759 103.096L155.921 104.713L151.07 105.203L150.909 103.586ZM155.921 104.713L157.537 104.55L157.861 107.784L151.394 108.437L151.717 111.671L150.101 111.834L149.454 105.366L151.07 105.203L151.232 106.82L156.082 106.33L155.921 104.713ZM151.717 111.671L158.185 111.018L158.346 112.634L151.879 113.288L151.717 111.671ZM166.914 100.336L168.531 100.173L168.855 103.406L173.705 102.916L173.867 104.533L169.017 105.023L169.502 109.874L174.352 109.384L174.514 111.001L168.047 111.654L166.914 100.336ZM173.867 104.533L175.484 104.37L175.969 109.221L174.352 109.384L173.867 104.533ZM178.394 100.81L180.01 100.646L180.496 105.497L178.879 105.66L178.394 100.81ZM180.496 105.497L183.729 105.17L184.053 108.404L182.436 108.568L182.274 106.951L180.658 107.114L180.496 105.497ZM183.729 105.17L183.244 100.32L184.861 100.156L185.346 105.007L183.729 105.17ZM182.436 108.568L182.598 110.184L179.364 110.511L179.203 108.894L182.436 108.568ZM196.178 99.0129L199.412 98.6863L199.573 100.303L196.34 100.63L196.178 99.0129ZM199.573 100.303L201.19 100.14L201.999 108.224L200.382 108.388L199.573 100.303ZM201.19 100.14L201.028 98.5229L204.262 98.1963L204.424 99.8132L201.19 100.14ZM204.424 99.8132L206.041 99.6499L206.849 107.735L205.233 107.898L204.424 99.8132ZM196.34 100.63L197.149 108.714L195.532 108.878L194.723 100.793L196.34 100.63ZM209.112 97.7063L210.729 97.543L211.214 102.394L209.598 102.557L209.112 97.7063ZM211.214 102.394L214.448 102.067L214.772 105.301L213.155 105.464L212.993 103.847L211.376 104.011L211.214 102.394ZM214.448 102.067L213.963 97.2163L215.579 97.053L216.065 101.904L214.448 102.067ZM213.155 105.464L213.317 107.081L210.083 107.408L209.921 105.791L213.155 105.464ZM226.897 95.9096L231.747 95.4196L231.909 97.0366L227.059 97.5266L226.897 95.9096ZM227.059 97.5266L227.22 99.1435L225.604 99.3068L225.442 97.6899L227.059 97.5266ZM227.22 99.1435L232.071 98.6535L232.232 100.27L227.382 100.76L227.22 99.1435ZM232.232 100.27L233.849 100.107L234.173 103.341L232.556 103.504L232.232 100.27ZM232.556 103.504L232.718 105.121L227.867 105.611L227.706 103.994L232.556 103.504ZM227.706 103.994L226.089 104.158L225.927 102.541L227.544 102.377L227.706 103.994ZM238.052 93.1494L239.669 92.9861L239.831 94.603L238.214 94.7663L238.052 93.1494ZM236.759 96.5466L239.993 96.2199L240.64 102.688L242.257 102.524L242.418 104.141L237.568 104.631L237.406 103.014L239.023 102.851L238.538 98.0002L236.921 98.1635L236.759 96.5466ZM250.987 91.8427L252.603 91.6794L253.736 102.998L247.269 103.651L247.107 102.034L251.957 101.544L251.472 96.6935L246.622 97.1835L246.46 95.5666L251.31 95.0766L250.987 91.8427ZM247.107 102.034L245.49 102.198L245.005 97.3468L246.622 97.1835L247.107 102.034ZM257.615 92.8063L262.466 92.3163L262.627 93.9333L257.777 94.4233L257.615 92.8063ZM262.627 93.9333L264.244 93.7699L264.568 97.0038L258.101 97.6571L258.424 100.891L256.808 101.054L256.16 94.5866L257.777 94.4233L257.939 96.0402L262.789 95.5502L262.627 93.9333ZM258.424 100.891L264.891 100.238L265.053 101.855L258.586 102.508L258.424 100.891Z" fill="black"/>
<path d="M29.5706 216.914L34.421 216.424L34.5827 218.041L32.966 218.204L33.7749 226.289L35.3917 226.125L35.5534 227.742L30.7031 228.232L30.5414 226.615L32.1581 226.452L31.3492 218.367L29.7324 218.531L29.5706 216.914ZM44.2834 217.061L45.9001 216.897L46.7091 224.982L45.0923 225.145L44.2834 217.061ZM46.7091 224.982L49.9426 224.655L50.1044 226.272L46.8708 226.599L46.7091 224.982ZM53.984 216.081L58.8343 215.591L58.9961 217.208L54.1458 217.698L53.984 216.081ZM58.9961 217.208L60.6129 217.044L61.26 223.512L59.6432 223.675L58.9961 217.208ZM59.6432 223.675L59.805 225.292L54.9547 225.782L54.7929 224.165L59.6432 223.675ZM54.7929 224.165L53.1761 224.329L52.529 217.861L54.1458 217.698L54.7929 224.165ZM63.6846 215.101L65.3014 214.938L65.7867 219.788L64.17 219.952L63.6846 215.101ZM65.7867 219.788L67.4035 219.625L67.7271 222.859L66.1103 223.022L65.7867 219.788ZM67.7271 222.859L69.3439 222.695L69.5056 224.312L67.8889 224.476L67.7271 222.859ZM69.3439 222.695L69.0203 219.462L70.6371 219.298L70.9606 222.532L69.3439 222.695ZM70.6371 219.298L70.1517 214.448L71.7685 214.284L72.2538 219.135L70.6371 219.298ZM76.6188 213.794L81.4691 213.304L81.6309 214.921L76.7806 215.411L76.6188 213.794ZM81.6309 214.921L83.2476 214.758L83.5712 217.992L77.1041 218.645L77.4277 221.879L75.8109 222.042L75.1638 215.574L76.7806 215.411L76.9423 217.028L81.7927 216.538L81.6309 214.921ZM77.4277 221.879L83.8948 221.226L84.0566 222.842L77.5895 223.496L77.4277 221.879ZM92.6247 210.544L94.2415 210.381L94.7268 215.231L96.3436 215.068L96.5054 216.685L94.8886 216.848L95.374 221.699L93.7572 221.862L92.6247 210.544ZM96.3436 215.068L96.1818 213.451L99.4154 213.124L99.5771 214.741L96.3436 215.068ZM99.5771 214.741L101.194 214.578L101.841 221.046L100.224 221.209L99.5771 214.741ZM105.721 210.854L110.571 210.364L110.733 211.981L105.882 212.471L105.721 210.854ZM110.733 211.981L112.35 211.818L112.997 218.286L111.38 218.449L110.733 211.981ZM111.38 218.449L111.542 220.066L106.691 220.556L106.53 218.939L111.38 218.449ZM106.53 218.939L104.913 219.102L104.266 212.634L105.882 212.471L106.53 218.939ZM123.505 209.058L125.122 208.894L125.931 216.979L124.314 217.142L123.505 209.058ZM124.314 217.142L124.476 218.759L121.242 219.086L121.081 217.469L124.314 217.142ZM121.081 217.469L119.464 217.632L118.817 211.165L120.433 211.001L121.081 217.469ZM119.464 217.632L119.626 219.249L118.009 219.412L117.847 217.796L119.464 217.632ZM117.847 217.796L116.23 217.959L115.583 211.491L117.2 211.328L117.847 217.796ZM34.7104 268.282L36.3272 268.119L36.8126 272.97L35.1958 273.133L34.7104 268.282ZM36.8126 272.97L40.0461 272.643L40.3697 275.877L38.7529 276.04L38.5911 274.423L36.9743 274.587L36.8126 272.97ZM40.0461 272.643L39.5607 267.792L41.1775 267.629L41.6629 272.48L40.0461 272.643ZM38.7529 276.04L38.9147 277.657L35.6811 277.984L35.5194 276.367L38.7529 276.04ZM46.0278 267.139L50.8781 266.649L51.0399 268.266L46.1896 268.756L46.0278 267.139ZM51.0399 268.266L52.6567 268.103L53.3038 274.57L51.6871 274.734L51.0399 268.266ZM51.6871 274.734L51.8489 276.351L46.9985 276.841L46.8368 275.224L51.6871 274.734ZM46.8368 275.224L45.22 275.387L44.5728 268.919L46.1896 268.756L46.8368 275.224ZM55.7285 266.159L57.3452 265.996L58.1542 274.08L56.5374 274.244L55.7285 266.159ZM58.1542 274.08L61.3877 273.754L61.5495 275.371L58.3159 275.697L58.1542 274.08ZM61.3877 273.754L61.2259 272.137L62.8427 271.973L62.1955 265.506L63.8123 265.342L64.783 275.044L63.1663 275.207L63.0045 273.59L61.3877 273.754ZM67.0459 265.016L68.6626 264.852L68.8244 266.469L70.4412 266.306L70.603 267.923L68.9862 268.086L69.6333 274.554L68.0166 274.717L67.0459 265.016ZM70.4412 266.306L70.2794 264.689L73.5129 264.362L73.6747 265.979L70.4412 266.306ZM39.5267 316.417L41.1434 316.254L41.467 319.488L46.3173 318.998L46.4791 320.614L41.6288 321.104L42.1141 325.955L40.4974 326.119L39.5267 316.417ZM42.1141 325.955L46.9645 325.465L47.1262 327.082L42.2759 327.572L42.1141 325.955ZM49.2273 315.437L50.8441 315.274L51.3294 320.124L52.9462 319.961L53.108 321.578L51.4912 321.741L51.9766 326.592L50.3598 326.756L49.2273 315.437ZM52.9462 319.961L52.7844 318.344L56.0179 318.018L56.1797 319.635L52.9462 319.961ZM56.1797 319.635L57.7965 319.471L58.4436 325.939L56.8269 326.102L56.1797 319.635ZM62.3232 315.747L67.1735 315.257L67.3353 316.874L62.485 317.364L62.3232 315.747ZM67.3353 316.874L68.9521 316.711L69.5992 323.179L67.9825 323.342L67.3353 316.874ZM67.9825 323.342L68.1443 324.959L63.2939 325.449L63.1322 323.832L67.9825 323.342ZM63.1322 323.832L61.5154 323.995L60.8683 317.528L62.485 317.364L63.1322 323.832ZM72.0239 314.767L73.6406 314.604L74.4496 322.689L72.8328 322.852L72.0239 314.767ZM74.4496 322.689L77.6831 322.362L77.8449 323.979L74.6113 324.306L74.4496 322.689ZM77.6831 322.362L77.5213 320.745L79.1381 320.582L78.4909 314.114L80.1077 313.951L81.0784 323.652L79.4617 323.816L79.2999 322.199L77.6831 322.362ZM84.958 313.461L91.4251 312.807L92.3958 322.509L90.7791 322.672L90.6173 321.055L85.767 321.545L85.6052 319.928L90.4555 319.438L89.9701 314.588L85.1198 315.078L84.958 313.461ZM90.7791 322.672L90.9408 324.289L86.0905 324.779L85.9287 323.162L90.7791 322.672ZM85.6052 319.928L83.9884 320.092L83.503 315.241L85.1198 315.078L85.6052 319.928ZM94.4969 310.864L96.1136 310.7L96.599 315.551L98.2158 315.388L98.3775 317.005L96.7608 317.168L97.2461 322.019L95.6294 322.182L94.4969 310.864ZM98.2158 315.388L98.054 313.771L101.288 313.444L101.449 315.061L98.2158 315.388ZM101.449 315.061L103.066 314.898L103.713 321.366L102.096 321.529L101.449 315.061ZM105.814 309.72L107.431 309.557L107.755 312.791L112.605 312.301L112.767 313.918L107.916 314.408L108.402 319.259L106.785 319.422L105.814 309.72ZM108.402 319.259L113.252 318.769L113.414 320.386L108.564 320.876L108.402 319.259ZM117.293 310.194L122.144 309.704L122.306 311.321L117.455 311.811L117.293 310.194ZM117.455 311.811L117.617 313.428L116 313.591L115.838 311.974L117.455 311.811ZM117.617 313.428L122.467 312.938L122.629 314.555L117.779 315.045L117.617 313.428ZM122.629 314.555L124.246 314.392L124.569 317.625L122.953 317.789L122.629 314.555ZM122.953 317.789L123.114 319.406L118.264 319.896L118.102 318.279L122.953 317.789ZM118.102 318.279L116.486 318.442L116.324 316.825L117.941 316.662L118.102 318.279Z" fill="black"/>
</svg>
