<svg width="1440" height="497" viewBox="0 0 1440 497" fill="none" xmlns="http://www.w3.org/2000/svg">
<g filter="url(#filter0_gn_57_714)">
<path d="M208.5 22.2288C119 16.3343 58.5 44.2991 0 55.3342V497H1440V316C1301.5 362.677 995.8 392.813 833 301.792C629.5 188.016 468.5 39.3524 208.5 22.2288Z" fill="url(#paint0_linear_57_714)"/>
<path d="M100.422 38.8461C127.575 32.7382 161.736 28.323 189.135 29.1162C189.52 29.1238 189.906 29.1319 190.292 29.1407C196.034 29.2728 201.804 29.5453 207.988 30.001C213.926 30.4394 220.133 30.9723 226.839 31.6478C228.597 31.825 230.379 32.0117 232.225 32.2116C248.778 34.037 268.726 36.6031 295.908 41.9876C387.056 60.1634 454.122 91.7191 474.899 100.828C516.584 119.798 559.748 143.089 616.994 177.948C622.228 181.133 627.597 184.426 633.075 187.804C637.518 190.544 641.071 193.025 641.019 193.334C640.964 193.642 637.323 191.661 632.879 188.922C627.514 185.616 622.263 182.398 617.149 179.287C617.126 179.273 617.103 179.259 617.08 179.245C559.487 144.188 517.283 121.476 476.665 102.876C455.485 93.5482 386.904 61.0294 293.612 42.7543C266.198 37.4186 245.982 34.9056 229.394 33.1463C227.602 32.9597 225.851 32.7836 224.144 32.6184C224.104 32.6145 224.064 32.6105 224.024 32.6066C218.249 32.049 212.937 31.6043 207.907 31.2336C200.945 30.7227 194.7 30.4506 188.436 30.3397C188.209 30.3361 187.982 30.3327 187.755 30.3294C160.125 29.6662 126.79 34.2059 100.503 40.1205C95.4604 41.2129 91.3715 41.8883 91.3398 41.5346C91.3179 41.1824 95.3651 39.9378 100.422 38.8461ZM1135.34 495.28C1108.05 495.518 1071.74 495.525 1039.68 495.471C1007.4 495.416 978.187 495.297 964.437 495.222C950.996 495.149 936.062 495.141 918.244 495.148C914.158 495.149 909.92 495.152 905.536 495.154C891.057 495.163 874.947 495.172 857.264 495.159C792.305 495.117 749.955 495.182 719.71 495.238C713.489 495.25 707.701 495.262 702.283 495.273C702.274 495.273 702.265 495.273 702.256 495.273C681.808 495.315 666.551 495.344 652.52 495.321C627.545 495.279 607.151 495.242 582.539 495.156C548.596 495.038 500.248 495.163 468.787 495.33C467.06 495.339 465.294 495.349 463.507 495.358C440.699 495.479 412.615 495.622 370.505 495.752C335.517 495.859 305.025 495.897 278.036 495.925C270.302 495.932 262.921 495.939 255.835 495.945C237.951 495.961 221.944 495.977 206.866 496.005C113.358 496.179 59.4326 496.219 25.5397 496.23C15.4451 496.233 7.07608 496.233 0 496.23L0.769529 497C0.773108 485.804 0.781051 477.845 0.786848 471.408C0.789705 468.234 0.792149 465.43 0.793111 462.791C0.801214 439.253 0.776759 417.643 0.743983 391.647C0.736606 385.878 0.728683 379.876 0.720272 373.605C0.691818 352.631 0.651013 337.001 0.616313 324.745C0.601023 319.384 0.586698 314.666 0.573293 310.218C0.573032 310.136 0.572772 310.054 0.572512 309.972C0.570644 309.351 0.568835 308.736 0.567005 308.125C0.565625 307.664 0.564154 307.204 0.562784 306.743C0.561924 306.562 0.561266 306.4 0.560734 306.278C0.560314 306.182 0.56 306.108 0.559797 306.059C0.55974 306.05 0.559682 306.041 0.559624 306.032C0.555934 305.159 0.553585 304.408 0.553099 304.254C0.552247 303.985 0.551606 303.746 0.551257 303.625C0.549412 302.981 0.547338 302.151 0.545992 301.6C0.542533 300.183 0.536702 297.72 0.527883 293.913C0.519304 290.598 0.510188 287.417 0.498894 283.435C0.498176 283.184 0.497458 282.933 0.496741 282.682C0.485742 278.799 0.473058 274.255 0.458156 268.552C0.444731 263.364 0.449169 258.592 0.467549 257.896C0.485951 257.203 0.513023 260.847 0.528578 266.035C0.544524 271.408 0.557927 275.664 0.570291 279.55C0.571084 279.796 0.571878 280.042 0.572672 280.289C0.585576 284.34 0.59792 288.177 0.610053 292.312C0.614114 293.697 0.618181 295.124 0.621907 296.457C0.629177 298.857 0.638105 301.588 0.649029 304.856C0.651221 305.512 0.653429 306.188 0.655755 306.88C0.670678 311.321 0.688273 316.491 0.706982 322.323C0.750466 335.974 0.801783 353.269 0.840773 376.095C0.850903 382.08 0.860647 387.883 0.869911 393.549C0.912117 419.646 0.946929 442.867 0.946269 467.852C0.946112 471.28 0.944292 474.568 0.942179 478.084C0.938961 483.425 0.934874 489.298 0.933804 497L0 496.066C7.32255 496.067 16.2983 496.066 28.0429 496.058C60.3296 496.036 112.972 495.978 205.949 495.772C221.776 495.736 238.85 495.714 257.039 495.691C263.983 495.682 271.1 495.673 278.364 495.663C304.934 495.627 334.466 495.579 368.248 495.463C409.418 495.321 436.736 495.173 459.444 495.045C460.228 495.041 461.012 495.036 461.797 495.032C462.771 495.026 463.738 495.021 464.697 495.015C498.223 494.827 549.665 494.67 587.163 494.788C610.694 494.863 630.213 494.891 655.05 494.924C667.265 494.94 680.316 494.91 700.355 494.862C705.979 494.849 712.164 494.834 719.026 494.819C749.813 494.751 792.809 494.668 858.495 494.688C875.62 494.694 891.03 494.679 905.427 494.666C909.899 494.662 914.287 494.658 918.586 494.655C936.49 494.641 953.155 494.641 968.691 494.721C981.461 494.786 1009.74 494.892 1041.13 494.935C1072.76 494.977 1106.33 494.95 1130.32 494.733C1132.81 494.71 1135.33 494.687 1137.84 494.665C1159.48 494.468 1181.55 494.262 1199.32 493.94C1259.15 492.459 1355.45 492.191 1440 492.163L1435.16 497C1435.15 469.03 1435.16 442.346 1435.13 418.696C1435.13 417.447 1435.13 416.197 1435.13 414.948C1435.09 378.355 1435.04 345.093 1434.99 316L1441.6 320.75C1385.88 339.052 1344.31 345.446 1326.45 348.842C1325.21 349.06 1324.07 349.257 1323.05 349.432C1322.14 349.589 1321.31 349.731 1320.58 349.855C1309.49 351.727 1299.92 353.225 1289.6 354.713C1289.05 354.793 1288.5 354.872 1287.94 354.951C1277.18 356.482 1265.84 357.962 1252.33 359.44C1202.35 364.85 1161.26 366.516 1125.75 366.666C1119.17 366.688 1112.78 366.649 1106.55 366.558C1106.53 366.558 1106.51 366.558 1106.49 366.557C1079.13 366.149 1054.84 364.776 1031.87 362.611C989.965 358.581 961.959 353.199 940.275 348.357C933.555 346.839 927.195 345.275 921.385 343.748C908.698 340.405 897.762 337.083 886.531 333.189C865.746 325.948 847.045 317.806 829.459 308.126C829.242 308.006 829.026 307.887 828.81 307.768C827.249 306.906 825.692 306.043 824.139 305.179C805.256 294.674 786.708 283.882 767.357 272.205C762.858 269.49 759.264 267.038 759.314 266.745C759.369 266.454 763.043 268.431 767.535 271.145C786.322 282.494 804.382 293.034 823.238 303.558C824.797 304.427 826.365 305.298 827.938 306.169C828.602 306.537 829.268 306.905 829.935 307.273C846.996 316.679 865.512 324.815 886.076 332.024C896.863 335.787 907.143 338.958 919.582 342.297C925.439 343.863 931.906 345.485 939.025 347.116C960.993 352.09 989.312 357.583 1031.58 361.682C1054.24 363.835 1078.2 365.227 1105.52 365.672C1111.78 365.771 1118.23 365.818 1124.88 365.804C1160.46 365.694 1201.73 364.064 1251.95 358.659C1264.72 357.269 1275.44 355.892 1286.18 354.384C1286.78 354.3 1287.38 354.215 1287.98 354.13C1298.16 352.678 1308.29 351.118 1320 349.148C1321.55 348.887 1323.52 348.552 1325.88 348.141C1343.75 344.754 1385.47 338.375 1441.36 320.042L1435.74 316C1435.78 345.189 1435.81 378.558 1435.84 415.263C1435.84 415.605 1435.84 415.947 1435.84 416.289C1435.86 448.811 1435.89 475.092 1435.92 497L1440 492.922C1412.16 492.968 1391.38 493.038 1373.83 493.166C1349.07 493.346 1330.57 493.415 1315.38 493.461C1312.48 493.469 1309.74 493.478 1307.13 493.485C1295.84 493.517 1286.92 493.543 1278.01 493.603C1251.04 493.787 1231.7 494.035 1208.3 494.455C1188.47 494.81 1164.16 495.028 1142.88 495.214C1142.84 495.214 1142.81 495.215 1142.78 495.215C1140.25 495.237 1137.77 495.258 1135.34 495.28ZM0.263496 193.428C0.254075 188.197 0.256741 183.997 0.269557 184.045C0.282394 184.098 0.302319 188.386 0.313939 193.62C0.341262 206.09 0.368317 218.561 0.395106 231.031C0.406486 236.262 0.400483 240.463 0.381746 240.415C0.362979 240.362 0.340333 236.073 0.331119 230.84C0.308846 218.369 0.286305 205.899 0.263496 193.428ZM1157.17 498.138C1152.07 498.166 1146.98 498.062 1145.82 497.906C1144.66 497.75 1147.87 497.599 1152.97 497.569C1155.67 497.553 1160.11 497.523 1166.08 497.483C1206.64 497.22 1318.22 496.394 1440 495.959L1438.96 497C1438.93 489.712 1438.91 482.387 1438.89 475.039C1438.86 464.079 1438.83 454.26 1438.8 444.904C1438.68 408.519 1438.23 378.658 1438.1 316L1440.61 317.797C1434.93 319.726 1428.22 321.857 1421.78 323.761C1229.51 371.897 1015.35 391.236 832.156 303.301C725.93 244.064 627.463 172.118 519.712 116.453C437.635 73.7851 349.626 42.0377 257.764 29.9544C243.311 28.0012 226.496 26.1838 208.32 24.9662C130.584 16.9583 36.4043 51.6258 9.66283 55.6514C4.55598 56.7482 0.349614 57.2291 0.291422 56.8791C0.291422 56.8791 0.291422 56.8791 0.291422 56.8791C0.291004 56.8769 0.290751 56.8746 0.290663 56.8723C0.275112 56.5091 4.45834 55.4444 9.57775 54.3442C36.031 50.3762 130.555 15.688 208.4 23.7466C226.305 24.9522 242.88 26.7381 257.121 28.6515C348.972 40.661 436.996 72.2907 519.022 114.85C627.255 170.654 726.169 242.821 832.815 302.122C1015.54 389.587 1229.9 370.036 1421.71 322.041C1427.97 320.188 1434.56 318.11 1440.08 316.25L1439.74 316C1439.67 378.052 1439.39 406.872 1439.5 443.167C1439.52 452.545 1439.55 462.418 1439.58 473.479C1439.6 481.353 1439.62 489.199 1439.64 497L1440 496.644C1320.66 497.032 1211.65 497.802 1170.81 498.053C1164.65 498.093 1160.02 498.122 1157.17 498.138ZM913.73 497.759C855.289 497.763 772.214 497.65 699.616 497.566C664.21 497.525 631.296 497.488 604.945 497.468C564.118 497.435 538.416 497.338 512.928 497.249C512.654 497.248 512.381 497.247 512.107 497.246C486.637 497.158 461.144 497.078 419.68 497.064C377.874 497.05 320.026 497.096 261.676 497.126C261.63 497.126 261.585 497.126 261.54 497.126C203.5 497.162 144.629 497.286 102.086 497.254C64.4595 497.23 30.4945 497.202 0 497.175L-0.17554 497.174L-0.175005 497C-0.0936037 407.344 -0.0290947 347.69 0.00647566 313.2C0.0686336 232.349 0.0102749 140.647 0.00112911 58.0496C-0.00371915 48.94 0.00615264 64.305 0.018237 81.0983C0.0186087 81.7047 0.0189764 82.3112 0.01934 82.9176C0.0228071 88.6932 0.0255765 93.7472 0.0295852 100.864C0.0357511 111.177 0.0404979 118.851 0.0449426 125.855C0.0566264 144.232 0.135332 271.808 0.0992048 316.948C0.0744879 349.654 0.105148 407.726 0.147935 497L0 496.852C30.4601 496.838 64.5533 496.824 102.51 496.818C144.266 496.808 201.958 496.919 260.309 496.872C260.468 496.872 260.628 496.871 260.787 496.871C318.71 496.82 377.121 496.753 419.625 496.752C462.588 496.751 489.243 496.825 515.048 496.906C515.299 496.907 515.55 496.908 515.801 496.908C541.052 496.987 565.571 497.072 604.89 497.089C631.821 497.1 665.12 497.124 700.751 497.153C773.039 497.21 854.955 497.293 912.895 497.268C918.124 497.266 922.554 497.375 922.785 497.512C923.012 497.648 918.957 497.759 913.73 497.759ZM912.526 500.815C748.316 500.89 583.191 500.108 421.267 499.314C379.004 499.189 320.027 499.009 261.129 498.836C260.463 498.834 259.798 498.832 259.132 498.83C200.873 498.658 142.868 498.493 101.224 498.379C63.974 498.278 30.2907 498.187 0 498.104L-1.10727 498.1L-1.10389 497C-0.857016 406.738 -0.687299 346.604 -0.572768 311.996C-0.432287 268.898 -0.41443 256.934 -0.376486 239.198C-0.375469 238.714 -0.374452 238.231 -0.373435 237.748C-0.373424 237.716 -0.373413 237.684 -0.373402 237.652C-0.373006 237.044 -0.372438 236.533 -0.372108 236.27C-0.371433 235.735 -0.370691 235.298 -0.370415 235.135C-0.369776 234.757 -0.369132 234.441 -0.368912 234.328C-0.36801 233.867 -0.366911 233.341 -0.366178 233.001C-0.359342 229.843 -0.337043 219.951 -0.318787 212.114C-0.300062 204.082 -0.285685 198.357 -0.270773 192.32C-0.269259 191.709 -0.26775 191.099 -0.266244 190.487C-0.252876 185.046 -0.238591 179.126 -0.219653 170.599C-0.207969 165.403 -0.191382 161.712 -0.182001 162.35C-0.17265 162.993 -0.172342 167.718 -0.181901 172.91C-0.198661 181.881 -0.211697 188.181 -0.223246 193.647C-0.224534 194.254 -0.225826 194.86 -0.227121 195.467C-0.239407 201.244 -0.250285 206.306 -0.264349 213.427C-0.283384 223.737 -0.296525 231.401 -0.308403 238.404C-0.341135 256.766 -0.357213 270.593 -0.489014 315.73C-0.586678 348.597 -0.730294 407.01 -0.94391 497L-0.946795 497.941L0 497.944C30.1122 498.015 63.76 498.095 101.17 498.183C142.891 498.281 200.963 498.425 259.173 498.576C259.857 498.578 260.541 498.579 261.225 498.581C320.154 498.733 379.046 498.892 421.212 499.002C585.565 499.45 746.519 499.581 911.678 500.323C942.069 500.378 969.847 500.438 995.584 500.493C1071.32 500.653 1129.45 500.786 1184.86 500.551C1197 500.499 1228.85 500.501 1274.86 500.507C1288.35 500.509 1303.14 500.512 1319.13 500.513C1354 500.517 1394.61 500.518 1440 500.501L1443.49 500.512L1443.5 497C1443.5 491.384 1443.5 485.696 1443.49 479.936C1443.49 468.976 1443.48 459.157 1443.48 449.802C1443.45 412.38 1443.42 382.332 1443.54 316L1443.55 311.087L1438.87 312.649C1434.68 314.052 1430.15 315.501 1425.31 316.973C1335.86 345.704 1177.7 360.316 1093.81 355.653C1051.76 354.092 1028.16 351.146 1011.52 349.063C1006.88 348.459 1002.83 347.887 999.118 347.341C989.32 345.885 981.889 344.653 971.981 342.825C920.151 332.769 879.982 321.098 835.658 297.037C819.482 287.998 802.416 278.106 783.472 266.736C779.019 264.065 775.236 261.51 775.046 261.071C774.851 260.63 778.323 262.476 782.771 265.151C802.121 276.79 819.573 286.924 836.134 296.186C880.104 320.101 920.533 331.938 972.6 342.004C982.906 343.904 990.907 345.217 1000.84 346.672C1004.49 347.204 1008.41 347.748 1012.81 348.316C1029.15 350.341 1052.48 353.244 1094.28 354.794C1177.94 359.444 1335.78 344.874 1424.87 316.318C1429.78 314.833 1434.39 313.359 1438.63 311.94L1444.3 310.048L1444.28 316C1444.14 381.387 1444.16 410.85 1444.18 448.064C1444.18 457.439 1444.18 467.306 1444.18 478.363C1444.19 484.66 1444.19 490.874 1444.19 497L1444.17 501.198L1440 501.186C1395.16 501.185 1354.98 501.17 1320.48 501.154C1304.52 501.147 1289.76 501.139 1276.33 501.132C1229.38 501.109 1199.46 501.098 1189.06 501.139C1131.7 501.363 1071.05 501.201 994.612 501.012C969.157 500.948 941.944 500.879 912.526 500.815ZM526.784 110.578C531.437 113.012 535.335 115.376 535.52 115.819C535.702 116.262 532.109 114.617 527.463 112.182C502.922 99.3336 484.876 90.8765 470.661 84.47C444.314 72.7415 431.297 67.6986 411.716 60.3944C361.135 41.7026 310.149 29.2798 263.758 22.6588C244.576 19.8894 226.296 18.0399 208.854 16.8581C155.878 13.1887 113.637 21.9472 89.0558 27.4467C83.9235 28.6127 79.7212 29.3458 79.6986 28.9887C79.6629 28.6385 83.8162 27.3353 88.96 26.1706C113.506 20.6989 155.791 11.9429 208.934 15.6386C226.149 16.811 244.195 18.6349 263.119 21.3519C309.664 27.9588 360.899 40.3897 411.876 59.2296C430.901 66.3286 443.204 71.0719 469.025 82.4996C483.265 88.8836 501.55 97.3926 526.784 110.578Z" fill="#94AFA5"/>
</g>
<defs>
<filter id="filter0_gn_57_714" x="-15.5674" y="0.295493" width="1474.33" height="515.412" filterUnits="userSpaceOnUse" color-interpolation-filters="sRGB">
<feFlood flood-opacity="0" result="BackgroundImageFix"/>
<feBlend mode="normal" in="SourceGraphic" in2="BackgroundImageFix" result="shape"/>
<feTurbulence type="fractalNoise" baseFrequency="2.4390244483947754 2.4390244483947754" numOctaves="3" seed="36" />
<feDisplacementMap in="shape" scale="28.920000076293945" xChannelSelector="R" yChannelSelector="G" result="displacedImage" width="100%" height="100%" />
<feMerge result="effect1_texture_57_714">
<feMergeNode in="displacedImage"/>
</feMerge>
<feTurbulence type="fractalNoise" baseFrequency="1 1" stitchTiles="stitch" numOctaves="3" result="noise" seed="2312" />
<feColorMatrix in="noise" type="luminanceToAlpha" result="alphaNoise" />
<feComponentTransfer in="alphaNoise" result="coloredNoise1">
<feFuncA type="discrete" tableValues="0 0 0 0 0 0 0 0 0 0 0 0 0 0 0 0 0 0 0 0 0 0 1 1 1 1 1 1 0 0 0 0 0 0 0 0 0 0 0 0 0 0 0 0 0 0 0 0 0 0 0 0 0 0 0 0 0 0 0 0 0 0 0 0 0 0 0 0 0 0 0 0 0 0 0 0 0 0 0 0 0 0 0 0 0 0 0 0 0 0 0 0 0 0 0 0 0 0 0 0 "/>
</feComponentTransfer>
<feComposite operator="in" in2="effect1_texture_57_714" in="coloredNoise1" result="noise1Clipped" />
<feComponentTransfer in="alphaNoise" result="coloredNoise2">
<feFuncA type="discrete" tableValues="0 0 0 0 0 0 0 0 0 0 0 0 0 0 0 0 0 0 0 0 0 0 0 0 0 0 0 0 0 0 0 0 0 0 0 0 0 0 0 0 0 0 0 0 0 0 0 0 0 0 0 0 0 0 0 0 0 0 0 0 0 0 0 0 0 0 0 0 0 0 0 0 1 1 1 1 1 1 0 0 0 0 0 0 0 0 0 0 0 0 0 0 0 0 0 0 0 0 0 0 "/>
</feComponentTransfer>
<feComposite operator="in" in2="effect1_texture_57_714" in="coloredNoise2" result="noise2Clipped" />
<feFlood flood-color="#90A96B" result="color1Flood" />
<feComposite operator="in" in2="noise1Clipped" in="color1Flood" result="color1" />
<feFlood flood-color="rgba(255, 255, 255, 0.25)" result="color2Flood" />
<feComposite operator="in" in2="noise2Clipped" in="color2Flood" result="color2" />
<feMerge result="effect2_noise_57_714">
<feMergeNode in="effect1_texture_57_714" />
<feMergeNode in="color1" />
<feMergeNode in="color2" />
</feMerge>
</filter>
<linearGradient id="paint0_linear_57_714" x1="724.25" y1="35" x2="724.25" y2="520.212" gradientUnits="userSpaceOnUse">
<stop stop-color="#C4C7CE"/>
<stop offset="0.499011" stop-color="#E0D7D6"/>
<stop offset="1" stop-color="#FFEDE5"/>
</linearGradient>
</defs>
</svg>
