<svg width="140" height="109" viewBox="0 0 140 109" fill="none" xmlns="http://www.w3.org/2000/svg">
<g filter="url(#filter0_g_40_210)">
<path d="M19.1963 58.7708C19.1963 58.7708 22.2534 75.6569 29.297 82.309C36.3406 88.9611 53.0905 91.086 66.9122 91.086C80.7338 91.086 99.7444 86.1643 104.262 82.5746C108.779 78.9849 115.959 69.411 116.092 63.4269L19.1963 58.7747V58.7708Z" fill="#D09782"/>
<path d="M19.1963 58.7708C19.1963 58.7708 22.2534 75.6569 29.297 82.309C36.3406 88.9611 53.0905 91.086 66.9122 91.086C80.7338 91.086 99.7444 86.1643 104.262 82.5746C108.779 78.9849 115.959 69.411 116.092 63.4269L19.1963 58.7747V58.7708Z" stroke="#CD9986" stroke-width="2" stroke-miterlimit="10"/>
</g>
<g filter="url(#filter1_g_40_210)">
<path d="M20.7894 60.3684C20.7894 60.3684 14.4096 63.6925 11.4852 58.2396C8.56077 52.7867 13.7458 51.3258 13.7458 51.3258C13.7458 51.3258 9.22842 50.6618 9.62667 46.0057C10.0249 41.3496 14.1441 40.8184 14.1441 40.8184C14.1441 40.8184 12.2817 36.0295 14.2768 33.5062C16.272 30.9829 20.5239 30.3149 20.5239 30.3149C20.5239 30.3149 19.9929 26.5924 22.6518 23.7995C25.3107 21.0067 29.1644 21.5379 29.1644 21.5379C29.1644 21.5379 29.0316 17.8154 31.8233 15.9522C34.6149 14.089 40.4638 14.7569 40.4638 14.7569C40.4638 14.7569 41.924 11.1672 44.5829 9.304C47.2418 7.44079 54.2854 9.70242 54.2854 9.70242C54.2854 9.70242 55.4801 5.71429 58.6701 5.31587C61.86 4.91745 64.9171 7.84312 64.9171 7.84312C64.9171 7.84312 65.1826 5.58149 70.6332 5.05026C76.0837 4.51903 78.6099 8.37435 78.6099 8.37435C78.6099 8.37435 81.7998 6.91347 85.2552 7.5775C88.7106 8.24154 92.4315 11.9641 92.2988 13.6945C92.2988 13.6945 94.0284 11.9641 98.8114 13.5616C103.594 15.1592 104.527 20.4754 104.527 20.4754C104.527 20.4754 107.319 19.2802 111.305 23.2683C115.292 27.2564 113.168 28.854 113.168 28.854C113.168 28.854 116.225 28.3228 119.017 31.1157C121.808 33.9085 120.211 38.0295 120.211 38.0295C120.211 38.0295 123.667 37.8966 124.198 41.3535C124.729 44.8104 122.87 48.0017 121.273 48.1345C121.273 48.1345 124.729 50.529 123.534 53.9859C122.339 57.4428 117.287 58.5052 117.287 58.5052C117.287 58.5052 117.685 61.6965 115.425 63.6925C113.164 65.6885 107.85 65.2901 107.85 65.2901C107.85 65.2901 106.253 68.3486 103.063 70.3446C99.8734 72.3406 93.759 69.6806 93.759 69.6806C93.759 69.6806 92.4315 72.8719 89.1089 74.4695C85.7862 76.0671 79.2737 72.3406 79.2737 72.3406C79.2737 72.3406 77.544 75.0007 73.2921 75.9303C69.0402 76.86 63.3241 72.7391 63.3241 72.7391C63.3241 72.7391 60.3997 75.9303 55.0819 75.9303C49.7641 75.9303 47.6401 71.6766 47.6401 71.6766C47.6401 71.6766 43.7864 74.4695 38.0703 73.1375C32.3543 71.8055 33.1508 66.6221 33.1508 66.6221C33.1508 66.6221 29.6954 69.8134 25.1741 67.4189C20.6527 65.0245 20.7894 60.3723 20.7894 60.3723V60.3684Z" fill="#D09782"/>
<path d="M20.7894 60.3684C20.7894 60.3684 14.4096 63.6925 11.4852 58.2396C8.56077 52.7867 13.7458 51.3258 13.7458 51.3258C13.7458 51.3258 9.22842 50.6618 9.62667 46.0057C10.0249 41.3496 14.1441 40.8184 14.1441 40.8184C14.1441 40.8184 12.2817 36.0295 14.2768 33.5062C16.272 30.9829 20.5239 30.3149 20.5239 30.3149C20.5239 30.3149 19.9929 26.5924 22.6518 23.7995C25.3107 21.0067 29.1644 21.5379 29.1644 21.5379C29.1644 21.5379 29.0316 17.8154 31.8233 15.9522C34.6149 14.089 40.4638 14.7569 40.4638 14.7569C40.4638 14.7569 41.924 11.1672 44.5829 9.304C47.2418 7.44079 54.2854 9.70242 54.2854 9.70242C54.2854 9.70242 55.4801 5.71429 58.6701 5.31587C61.86 4.91745 64.9171 7.84312 64.9171 7.84312C64.9171 7.84312 65.1826 5.58149 70.6332 5.05026C76.0837 4.51903 78.6099 8.37435 78.6099 8.37435C78.6099 8.37435 81.7998 6.91347 85.2552 7.5775C88.7106 8.24154 92.4315 11.9641 92.2988 13.6945C92.2988 13.6945 94.0284 11.9641 98.8114 13.5616C103.594 15.1592 104.527 20.4754 104.527 20.4754C104.527 20.4754 107.319 19.2802 111.305 23.2683C115.292 27.2564 113.168 28.854 113.168 28.854C113.168 28.854 116.225 28.3228 119.017 31.1157C121.808 33.9085 120.211 38.0295 120.211 38.0295C120.211 38.0295 123.667 37.8966 124.198 41.3535C124.729 44.8104 122.87 48.0017 121.273 48.1345C121.273 48.1345 124.729 50.529 123.534 53.9859C122.339 57.4428 117.287 58.5052 117.287 58.5052C117.287 58.5052 117.685 61.6965 115.425 63.6925C113.164 65.6885 107.85 65.2901 107.85 65.2901C107.85 65.2901 106.253 68.3486 103.063 70.3446C99.8734 72.3406 93.759 69.6806 93.759 69.6806C93.759 69.6806 92.4315 72.8719 89.1089 74.4695C85.7862 76.0671 79.2737 72.3406 79.2737 72.3406C79.2737 72.3406 77.544 75.0007 73.2921 75.9303C69.0402 76.86 63.3241 72.7391 63.3241 72.7391C63.3241 72.7391 60.3997 75.9303 55.0819 75.9303C49.7641 75.9303 47.6401 71.6766 47.6401 71.6766C47.6401 71.6766 43.7864 74.4695 38.0703 73.1375C32.3543 71.8055 33.1508 66.6221 33.1508 66.6221C33.1508 66.6221 29.6954 69.8134 25.1741 67.4189C20.6527 65.0245 20.7894 60.3723 20.7894 60.3723V60.3684Z" stroke="#CD9986" stroke-width="2" stroke-miterlimit="10"/>
</g>
<path d="M24.5573 30.4282C28.4149 24.862 34.373 21.1043 40.3936 18.1084C52.06 12.1633 65.6239 11.4719 78.3992 14.0577C88.6912 16.2139 100.818 20.8348 108.166 28.5533C115.643 36.4709 116.522 49.7165 107.604 56.9233C103.333 60.5442 97.89 62.6105 92.5644 64.2003C76.8062 68.7939 62.5668 69.8212 46.6836 65.2042C38.2462 62.7824 23.753 59.3724 20.3913 50.4157C17.9783 43.8417 20.7114 36.1584 24.5182 30.4868L24.5612 30.4243L24.5573 30.4282Z" fill="#D09782"/>
<g filter="url(#filter2_g_40_210)">
<path d="M123.667 43.3457C123.667 43.3457 131.374 38.1584 132.175 29.9165C132.975 21.6746 127.923 23.0027 127.923 23.0027" stroke="#5C5653" stroke-width="6" stroke-miterlimit="10" stroke-linecap="round"/>
</g>
<g filter="url(#filter3_g_40_210)">
<path d="M135.232 17.9482C135.232 17.9482 136.426 27.6548 132.573 27.6548" stroke="#5C5653" stroke-width="6" stroke-linecap="round" stroke-linejoin="bevel"/>
</g>
<g filter="url(#filter4_g_40_210)">
<path d="M20.3912 62.759C20.3912 62.759 9.35731 67.6807 8.0298 75.1257C8.0298 75.1257 3.5124 77.9185 4.0434 79.7778" stroke="#5C5653" stroke-width="6" stroke-miterlimit="10" stroke-linecap="round"/>
</g>
<g filter="url(#filter5_g_40_210)">
<path d="M50.6972 89.6212C50.6972 89.6212 52.1574 101.324 52.4268 101.855C52.6962 102.386 48.4404 104.117 48.4404 104.117" stroke="#5C5653" stroke-width="6" stroke-linecap="round" stroke-linejoin="round"/>
</g>
<g filter="url(#filter6_g_40_210)">
<path d="M84.3259 89.2228L89.9092 100.793C89.9092 100.793 94.2939 100.925 95.0943 99.5974" stroke="#5C5653" stroke-width="6" stroke-linecap="round" stroke-linejoin="round"/>
</g>
<path d="M64.1206 46.1385C64.1206 46.1385 64.5189 49.861 67.7088 49.861C70.8987 49.861 72.6283 48.533 73.1593 46.4041" stroke="#5C5653" stroke-width="5" stroke-miterlimit="10" stroke-linecap="round"/>
<path d="M83.2642 30.6821C83.2642 30.6821 91.6391 35.2015 92.4356 39.1935" stroke="#5C5653" stroke-width="3" stroke-linecap="round" stroke-linejoin="round"/>
<path d="M52.8105 30.9091C52.8105 30.9091 46.1757 34.0574 44.0001 37.1526" stroke="#5C5653" stroke-width="3" stroke-linecap="round" stroke-linejoin="round"/>
<g filter="url(#filter7_g_40_210)">
<path d="M50.6972 19.6786C50.6972 19.6786 33.2835 29.5181 31.956 33.2406C30.6285 36.9631 34.8804 35.2366 34.8804 35.2366L50.9627 24.8659C50.9627 24.8659 54.6836 23.1355 53.8871 20.6122C53.0906 18.0888 50.6972 19.6825 50.6972 19.6825V19.6786Z" fill="white"/>
</g>
<g filter="url(#filter8_g_40_210)">
<path d="M30.3631 37.3615C30.3631 37.3615 26.7749 38.2912 27.0404 41.6153C27.3059 44.9393 29.0356 43.4785 29.0356 43.4785C29.0356 43.4785 33.022 40.0216 30.3631 37.3615Z" fill="white"/>
</g>
<g opacity="0.3" filter="url(#filter9_g_40_210)">
<path d="M54.3868 54.2163C56.8645 54.2163 58.873 52.2069 58.873 49.7282C58.873 47.2495 56.8645 45.2401 54.3868 45.2401C51.9092 45.2401 49.9006 47.2495 49.9006 49.7282C49.9006 52.2069 51.9092 54.2163 54.3868 54.2163Z" fill="#C1272D"/>
</g>
<g opacity="0.3" filter="url(#filter10_g_40_210)">
<path d="M84.7398 52.5719C87.2175 52.5719 89.226 50.5625 89.226 48.0838C89.226 45.6051 87.2175 43.5957 84.7398 43.5957C82.2622 43.5957 80.2537 45.6051 80.2537 48.0838C80.2537 50.5625 82.2622 52.5719 84.7398 52.5719Z" fill="#C1272D"/>
</g>
<path d="M59.6031 42.4824C59.6031 40.5366 58.0264 38.9591 56.0814 38.9591C54.1363 38.9591 52.5596 40.5366 52.5596 42.4824C52.5596 44.4283 54.1363 46.0057 56.0814 46.0057C58.0264 46.0057 59.6031 44.4283 59.6031 42.4824Z" fill="#5C5653"/>
<path d="M84.326 42.084C84.326 40.2848 82.8682 38.8263 81.0698 38.8263C79.2714 38.8263 77.8135 40.2848 77.8135 42.084C77.8135 43.8832 79.2714 45.3417 81.0698 45.3417C82.8682 45.3417 84.326 43.8832 84.326 42.084Z" fill="#5C5653"/>
<defs>
<filter id="filter0_g_40_210" x="14.1963" y="53.7759" width="106.917" height="42.3101" filterUnits="userSpaceOnUse" color-interpolation-filters="sRGB">
<feFlood flood-opacity="0" result="BackgroundImageFix"/>
<feBlend mode="normal" in="SourceGraphic" in2="BackgroundImageFix" result="shape"/>
<feTurbulence type="fractalNoise" baseFrequency="2 2" numOctaves="3" seed="6536" />
<feDisplacementMap in="shape" scale="8" xChannelSelector="R" yChannelSelector="G" result="displacedImage" width="100%" height="100%" />
<feMerge result="effect1_texture_40_210">
<feMergeNode in="displacedImage"/>
</feMerge>
</filter>
<filter id="filter1_g_40_210" x="4.60181" y="-6.10352e-05" width="124.689" height="81.0668" filterUnits="userSpaceOnUse" color-interpolation-filters="sRGB">
<feFlood flood-opacity="0" result="BackgroundImageFix"/>
<feBlend mode="normal" in="SourceGraphic" in2="BackgroundImageFix" result="shape"/>
<feTurbulence type="fractalNoise" baseFrequency="2 2" numOctaves="3" seed="4196" />
<feDisplacementMap in="shape" scale="8" xChannelSelector="R" yChannelSelector="G" result="displacedImage" width="100%" height="100%" />
<feMerge result="effect1_texture_40_210">
<feMergeNode in="displacedImage"/>
</feMerge>
</filter>
<filter id="filter2_g_40_210" x="119.667" y="18.9238" width="16.5918" height="28.4222" filterUnits="userSpaceOnUse" color-interpolation-filters="sRGB">
<feFlood flood-opacity="0" result="BackgroundImageFix"/>
<feBlend mode="normal" in="SourceGraphic" in2="BackgroundImageFix" result="shape"/>
<feTurbulence type="fractalNoise" baseFrequency="2 2" numOctaves="3" seed="7986" />
<feDisplacementMap in="shape" scale="2" xChannelSelector="R" yChannelSelector="G" result="displacedImage" width="100%" height="100%" />
<feMerge result="effect1_texture_40_210">
<feMergeNode in="displacedImage"/>
</feMerge>
</filter>
<filter id="filter3_g_40_210" x="128.573" y="13.9479" width="10.834" height="17.707" filterUnits="userSpaceOnUse" color-interpolation-filters="sRGB">
<feFlood flood-opacity="0" result="BackgroundImageFix"/>
<feBlend mode="normal" in="SourceGraphic" in2="BackgroundImageFix" result="shape"/>
<feTurbulence type="fractalNoise" baseFrequency="2 2" numOctaves="3" seed="7986" />
<feDisplacementMap in="shape" scale="2" xChannelSelector="R" yChannelSelector="G" result="displacedImage" width="100%" height="100%" />
<feMerge result="effect1_texture_40_210">
<feMergeNode in="displacedImage"/>
</feMerge>
</filter>
<filter id="filter4_g_40_210" x="-0.00219727" y="58.7582" width="24.394" height="25.0204" filterUnits="userSpaceOnUse" color-interpolation-filters="sRGB">
<feFlood flood-opacity="0" result="BackgroundImageFix"/>
<feBlend mode="normal" in="SourceGraphic" in2="BackgroundImageFix" result="shape"/>
<feTurbulence type="fractalNoise" baseFrequency="2 2" numOctaves="3" seed="7986" />
<feDisplacementMap in="shape" scale="2" xChannelSelector="R" yChannelSelector="G" result="displacedImage" width="100%" height="100%" />
<feMerge result="effect1_texture_40_210">
<feMergeNode in="displacedImage"/>
</feMerge>
</filter>
<filter id="filter5_g_40_210" x="44.4397" y="85.6209" width="11.9995" height="22.4966" filterUnits="userSpaceOnUse" color-interpolation-filters="sRGB">
<feFlood flood-opacity="0" result="BackgroundImageFix"/>
<feBlend mode="normal" in="SourceGraphic" in2="BackgroundImageFix" result="shape"/>
<feTurbulence type="fractalNoise" baseFrequency="2 2" numOctaves="3" seed="7986" />
<feDisplacementMap in="shape" scale="2" xChannelSelector="R" yChannelSelector="G" result="displacedImage" width="100%" height="100%" />
<feMerge result="effect1_texture_40_210">
<feMergeNode in="displacedImage"/>
</feMerge>
</filter>
<filter id="filter6_g_40_210" x="80.3252" y="85.2221" width="18.7695" height="19.5742" filterUnits="userSpaceOnUse" color-interpolation-filters="sRGB">
<feFlood flood-opacity="0" result="BackgroundImageFix"/>
<feBlend mode="normal" in="SourceGraphic" in2="BackgroundImageFix" result="shape"/>
<feTurbulence type="fractalNoise" baseFrequency="2 2" numOctaves="3" seed="7986" />
<feDisplacementMap in="shape" scale="2" xChannelSelector="R" yChannelSelector="G" result="displacedImage" width="100%" height="100%" />
<feMerge result="effect1_texture_40_210">
<feMergeNode in="displacedImage"/>
</feMerge>
</filter>
<filter id="filter7_g_40_210" x="30.6992" y="18.1861" width="24.2996" height="18.4504" filterUnits="userSpaceOnUse" color-interpolation-filters="sRGB">
<feFlood flood-opacity="0" result="BackgroundImageFix"/>
<feBlend mode="normal" in="SourceGraphic" in2="BackgroundImageFix" result="shape"/>
<feTurbulence type="fractalNoise" baseFrequency="2 2" numOctaves="3" seed="4522" />
<feDisplacementMap in="shape" scale="2" xChannelSelector="R" yChannelSelector="G" result="displacedImage" width="100%" height="100%" />
<feMerge result="effect1_texture_40_210">
<feMergeNode in="displacedImage"/>
</feMerge>
</filter>
<filter id="filter8_g_40_210" x="23.0264" y="33.3615" width="12.251" height="14.4366" filterUnits="userSpaceOnUse" color-interpolation-filters="sRGB">
<feFlood flood-opacity="0" result="BackgroundImageFix"/>
<feBlend mode="normal" in="SourceGraphic" in2="BackgroundImageFix" result="shape"/>
<feTurbulence type="fractalNoise" baseFrequency="2 2" numOctaves="3" seed="4522" />
<feDisplacementMap in="shape" scale="8" xChannelSelector="R" yChannelSelector="G" result="displacedImage" width="100%" height="100%" />
<feMerge result="effect1_texture_40_210">
<feMergeNode in="displacedImage"/>
</feMerge>
</filter>
<filter id="filter9_g_40_210" x="45.9006" y="41.2401" width="16.9724" height="16.9762" filterUnits="userSpaceOnUse" color-interpolation-filters="sRGB">
<feFlood flood-opacity="0" result="BackgroundImageFix"/>
<feBlend mode="normal" in="SourceGraphic" in2="BackgroundImageFix" result="shape"/>
<feTurbulence type="fractalNoise" baseFrequency="2 2" numOctaves="3" seed="3992" />
<feDisplacementMap in="shape" scale="8" xChannelSelector="R" yChannelSelector="G" result="displacedImage" width="100%" height="100%" />
<feMerge result="effect1_texture_40_210">
<feMergeNode in="displacedImage"/>
</feMerge>
</filter>
<filter id="filter10_g_40_210" x="76.2537" y="39.5957" width="16.9724" height="16.9762" filterUnits="userSpaceOnUse" color-interpolation-filters="sRGB">
<feFlood flood-opacity="0" result="BackgroundImageFix"/>
<feBlend mode="normal" in="SourceGraphic" in2="BackgroundImageFix" result="shape"/>
<feTurbulence type="fractalNoise" baseFrequency="2 2" numOctaves="3" seed="3992" />
<feDisplacementMap in="shape" scale="8" xChannelSelector="R" yChannelSelector="G" result="displacedImage" width="100%" height="100%" />
<feMerge result="effect1_texture_40_210">
<feMergeNode in="displacedImage"/>
</feMerge>
</filter>
</defs>
</svg>
