<svg width="146" height="54" viewBox="0 0 146 54" fill="none" xmlns="http://www.w3.org/2000/svg">
<g filter="url(#filter0_d_161_957)">
<rect x="4" width="138" height="46" rx="10" fill="#D9D9D9"/>
<rect x="10" y="7" width="126" height="33" rx="10" fill="#F8F6EC"/>
<path d="M19.25 18.5H23.75V20H19.25V18.5ZM23.75 20H25.25V21.5H23.75V20ZM19.25 20V27.5H17.75V20H19.25ZM19.25 27.5H23.75V29H19.25V27.5ZM23.75 27.5V26H25.25V27.5H23.75ZM29.75 20H34.25V21.5H29.75V20ZM34.25 21.5H35.75V29H29.75V27.5H34.25V24.5H29.75V23H34.25V21.5ZM29.75 27.5H28.25V24.5H29.75V27.5ZM38.75 20H40.25V27.5H38.75V20ZM40.25 27.5H43.25V29H40.25V27.5ZM43.25 27.5V26H44.75V20H46.25V29H44.75V27.5H43.25ZM50.75 20H56.75V29H55.25V27.5H50.75V26H55.25V21.5H50.75V20ZM55.25 29V30.5H50.75V29H55.25ZM50.75 26H49.25V21.5H50.75V26ZM59.75 18.5H61.25V23H62.75V24.5H61.25V29H59.75V18.5ZM62.75 23V21.5H65.75V23H62.75ZM65.75 23H67.25V29H65.75V23ZM70.25 18.5H71.75V21.5H76.25V23H71.75V27.5H70.25V18.5ZM71.75 27.5H76.25V29H71.75V27.5ZM85.25 18.5H86.75V23H85.25V18.5ZM86.75 23H88.25V24.5H86.75V23ZM88.25 24.5H89.75V29H88.25V24.5ZM89.75 24.5V23H91.25V24.5H89.75ZM91.25 23V18.5H92.75V23H91.25ZM97.25 20H101.75V21.5H97.25V20ZM101.75 21.5H103.25V27.5H101.75V21.5ZM101.75 27.5V29H97.25V27.5H101.75ZM97.25 27.5H95.75V21.5H97.25V27.5ZM106.25 20H107.75V27.5H106.25V20ZM107.75 27.5H110.75V29H107.75V27.5ZM110.75 27.5V26H112.25V20H113.75V29H112.25V27.5H110.75ZM116.75 18.5H118.25V26H116.75V18.5ZM116.75 27.5H118.25V29H116.75V27.5ZM121.25 18.5H122.75V26H121.25V18.5ZM121.25 27.5H122.75V29H121.25V27.5ZM125.75 18.5H127.25V26H125.75V18.5ZM125.75 27.5H127.25V29H125.75V27.5Z" fill="black" fill-opacity="0.9"/>
</g>
<defs>
<filter id="filter0_d_161_957" x="0" y="0" width="146" height="54" filterUnits="userSpaceOnUse" color-interpolation-filters="sRGB">
<feFlood flood-opacity="0" result="BackgroundImageFix"/>
<feColorMatrix in="SourceAlpha" type="matrix" values="0 0 0 0 0 0 0 0 0 0 0 0 0 0 0 0 0 0 127 0" result="hardAlpha"/>
<feOffset dy="4"/>
<feGaussianBlur stdDeviation="2"/>
<feComposite in2="hardAlpha" operator="out"/>
<feColorMatrix type="matrix" values="0 0 0 0 0 0 0 0 0 0 0 0 0 0 0 0 0 0 0.25 0"/>
<feBlend mode="normal" in2="BackgroundImageFix" result="effect1_dropShadow_161_957"/>
<feBlend mode="normal" in="SourceGraphic" in2="effect1_dropShadow_161_957" result="shape"/>
</filter>
</defs>
</svg>
