<svg width="456" height="231" viewBox="0 0 456 231" fill="none" xmlns="http://www.w3.org/2000/svg">
<path d="M0.628576 1.56505L2.25204 1.49435L2.67622 11.2351L1.05276 11.3058L0.628576 1.56505ZM2.67622 11.2351L4.29969 11.1644L4.37038 12.7879L2.74692 12.8586L2.67622 11.2351ZM4.29969 11.1644L4.22899 9.54096L5.85245 9.47026L5.92315 11.0937L4.29969 11.1644ZM5.85245 9.47026L5.64036 4.59988L7.26382 4.52918L7.47591 9.39957L5.85245 9.47026ZM7.47591 9.39957L9.09937 9.32887L9.17007 10.9523L7.54661 11.023L7.47591 9.39957ZM9.17007 10.9523L10.7935 10.8816L10.8642 12.5051L9.24077 12.5758L9.17007 10.9523ZM10.7935 10.8816L10.3693 1.14086L11.9928 1.07017L12.417 10.8109L10.7935 10.8816ZM18.8417 0.961483L20.465 1.03532L20.2435 5.90529L21.8668 5.97912L21.793 7.60245L20.1697 7.52861L19.9481 12.3986L18.3248 12.3247L18.8417 0.961483ZM21.8668 5.97912L21.9407 4.3558L25.1873 4.50348L25.1135 6.1268L21.8668 5.97912ZM25.1135 6.1268L26.7368 6.20064L26.4414 12.6939L24.8181 12.6201L25.1135 6.1268ZM35.0994 3.61745L39.9363 4.22574L39.7335 5.83804L34.8966 5.22975L35.0994 3.61745ZM39.7335 5.83804L41.3458 6.0408L40.5347 12.49L38.9224 12.2872L39.7335 5.83804ZM38.9224 12.2872L38.7197 13.8995L33.8828 13.2913L34.0855 11.679L38.9224 12.2872ZM34.0855 11.679L32.4732 11.4762L33.2843 5.02699L34.8966 5.22975L34.0855 11.679ZM59.0521 7.72818L63.7705 8.95404L63.3619 10.5268L58.6435 9.30096L59.0521 7.72818ZM63.3619 10.5268L64.9347 10.9354L64.526 12.5082L62.9533 12.0996L63.3619 10.5268ZM58.6435 9.30096L57.009 15.5921L55.4363 15.1835L57.0707 8.89234L58.6435 9.30096ZM57.009 15.5921L63.3002 17.2266L62.8916 18.7994L56.6004 17.1649L57.009 15.5921ZM73.2542 11.7238L77.8574 13.3287L77.3225 14.8631L72.7192 13.2583L73.2542 11.7238ZM77.3225 14.8631L78.8569 15.3981L76.1821 23.0702L70.0444 20.9303L70.5793 19.3959L75.1826 21.0008L76.2525 17.932L71.6493 16.3271L72.1842 14.7927L76.7875 16.3976L77.3225 14.8631ZM70.5793 19.3959L69.0449 18.861L70.1149 15.7921L71.6493 16.3271L70.5793 19.3959ZM85.5603 16.1763L87.0492 16.8272L86.3984 18.3162L87.8873 18.9671L87.2364 20.456L85.7475 19.8051L83.144 25.7609L81.655 25.1101L85.5603 16.1763ZM87.8873 18.9671L88.5382 17.4781L91.5161 18.7799L90.8652 20.2688L87.8873 18.9671ZM98.9569 22.3547L103.251 24.6627L102.482 26.094L98.1875 23.786L98.9569 22.3547ZM102.482 26.094L103.913 26.8633L102.374 29.726L96.6489 26.6488L95.1103 29.5115L93.6789 28.7421L96.7562 23.0167L98.1875 23.786L97.4182 25.2174L101.712 27.5254L102.482 26.094ZM95.1103 29.5115L100.836 32.5887L100.066 34.0201L94.3409 30.9428L95.1103 29.5115ZM111.44 29.1618L115.674 31.5784L114.869 32.9897L110.635 30.5731L111.44 29.1618ZM110.635 30.5731L109.829 31.9844L108.418 31.1789L109.224 29.7676L110.635 30.5731ZM109.829 31.9844L114.063 34.401L113.258 35.8123L109.024 33.3957L109.829 31.9844ZM113.258 35.8123L114.669 36.6178L113.058 39.4404L111.647 38.6349L113.258 35.8123ZM111.647 38.6349L110.841 40.0462L106.607 37.6296L107.413 36.2183L111.647 38.6349ZM107.413 36.2183L106.001 35.4128L106.807 34.0015L108.218 34.807L107.413 36.2183ZM137.107 43.4968L138.533 44.2768L134.633 51.4046L133.207 50.6245L137.107 43.4968ZM133.207 50.6245L132.427 52.0501L129.576 50.49L130.356 49.0645L133.207 50.6245ZM130.356 49.0645L128.931 48.2844L132.051 42.5822L133.476 43.3623L130.356 49.0645ZM128.931 48.2844L128.151 49.71L126.725 48.9299L127.505 47.5044L128.931 48.2844ZM127.505 47.5044L126.08 46.7244L129.2 41.0222L130.625 41.8022L127.505 47.5044ZM144.364 45.5996L145.797 46.3672L143.494 50.6641L144.926 51.4317L144.159 52.8639L142.726 52.0964L140.424 56.3932L138.991 55.6257L144.364 45.5996ZM144.926 51.4317L145.694 49.9994L148.558 51.5345L147.791 52.9668L144.926 51.4317ZM147.791 52.9668L149.223 53.7344L146.153 59.4635L144.72 58.696L147.791 52.9668ZM157.302 54.3538L161.613 56.6295L160.855 58.0666L156.544 55.7909L157.302 54.3538ZM160.855 58.0666L162.292 58.8251L160.775 61.6993L155.027 58.6651L153.509 61.5392L152.072 60.7807L155.107 55.0323L156.544 55.7909L155.785 57.228L160.096 59.5036L160.855 58.0666ZM153.509 61.5392L159.258 64.5735L158.499 66.0106L152.751 62.9763L153.509 61.5392ZM168.209 60.1074L169.648 60.8632L168.892 62.3017L170.33 63.0575L169.574 64.4961L168.136 63.7403L165.113 69.4944L163.674 68.7386L168.209 60.1074ZM170.33 63.0575L171.086 61.619L173.963 63.1306L173.207 64.5692L170.33 63.0575ZM180.595 66.6228L184.906 68.8992L184.147 70.3361L179.836 68.0597L180.595 66.6228ZM184.147 70.3361L185.584 71.0949L184.067 73.9689L178.319 70.9337L176.801 73.8076L175.364 73.0488L178.399 67.3009L179.836 68.0597L179.078 69.4967L183.388 71.7731L184.147 70.3361ZM176.801 73.8076L182.549 76.8428L181.79 78.2797L176.042 75.2445L176.801 73.8076ZM189.939 78.9662L191.363 79.7478L189.8 82.5972L188.376 81.8156L189.939 78.9662ZM188.376 81.8156L187.594 83.2404L186.169 82.4588L186.951 81.0341L188.376 81.8156ZM213.63 94.9221L214.295 96.4044L206.883 99.7332L206.218 98.2508L213.63 94.9221ZM206.218 98.2508L204.735 98.9165L203.404 95.9518L204.886 95.2861L206.218 98.2508ZM204.886 95.2861L204.22 93.8037L210.15 91.1407L210.816 92.6231L204.886 95.2861ZM204.22 93.8037L202.738 94.4694L202.072 92.9871L203.555 92.3213L204.22 93.8037ZM203.555 92.3213L202.889 90.839L208.818 88.176L209.484 89.6584L203.555 92.3213ZM218.406 102.125L218.92 103.667L214.296 105.21L214.811 106.752L213.269 107.266L212.755 105.725L208.131 107.268L207.616 105.727L218.406 102.125ZM214.811 106.752L216.352 106.237L217.381 109.32L215.84 109.835L214.811 106.752ZM215.84 109.835L216.354 111.376L210.189 113.434L209.674 111.893L215.84 109.835ZM221.779 116.724L223.639 121.23L222.137 121.85L220.277 117.344L221.779 116.724ZM222.137 121.85L222.757 123.352L219.753 124.592L217.273 118.584L214.269 119.825L213.648 118.323L219.656 115.842L220.277 117.344L218.775 117.964L220.635 122.47L222.137 121.85ZM214.269 119.825L216.749 125.833L215.248 126.453L212.767 120.445L214.269 119.825ZM227.752 129.968L229.307 132.822L227.88 133.599L226.325 130.746L227.752 129.968ZM227.88 133.599L228.657 135.026L221.522 138.914L220.745 137.487L227.88 133.599ZM226.325 130.746L224.898 131.523L224.12 130.096L218.413 133.206L217.635 131.779L224.77 127.892L226.325 130.746ZM237.155 145.032L238.209 146.268L234.499 149.431L233.445 148.194L237.155 145.032ZM234.499 149.431L236.607 151.904L234.134 154.012L233.08 152.775L234.316 151.721L233.262 150.485L234.499 149.431ZM236.607 151.904L240.317 148.742L241.371 149.979L237.661 153.141L236.607 151.904ZM233.08 152.775L231.843 153.83L229.735 151.356L230.971 150.302L233.08 152.775ZM245.527 154.273L249.209 157.468L248.144 158.695L244.462 155.501L245.527 154.273ZM248.144 158.695L249.372 159.76L245.112 164.67L243.884 163.605L248.144 158.695ZM243.884 163.605L242.819 164.832L239.137 161.638L240.202 160.41L243.884 163.605ZM240.202 160.41L238.975 159.345L243.234 154.436L244.462 155.501L240.202 160.41ZM254.195 161.646L255.521 162.586L250.821 169.213L249.495 168.273L254.195 161.646ZM250.821 169.213L253.472 171.093L252.532 172.419L249.881 170.539L250.821 169.213ZM253.472 171.093L254.412 169.768L255.737 170.708L259.497 165.406L260.823 166.346L255.183 174.299L253.857 173.359L254.797 172.033L253.472 171.093ZM265.19 169.35L266.566 170.215L265.701 171.591L264.325 170.726L265.19 169.35ZM265.701 171.591L267.077 172.455L265.347 175.207L263.971 174.342L265.701 171.591ZM272.578 173.924L273.989 174.73L273.183 176.141L274.594 176.947L273.787 178.358L272.376 177.552L269.151 183.195L267.74 182.389L272.578 173.924ZM274.594 176.947L275.4 175.536L278.222 177.149L277.415 178.56L274.594 176.947ZM284.393 180.518L288.73 182.744L287.989 184.189L283.651 181.964L284.393 180.518ZM287.989 184.189L289.435 184.931L287.951 187.823L282.168 184.856L280.684 187.748L279.238 187.006L282.205 181.223L283.651 181.964L282.909 183.41L287.247 185.635L287.989 184.189ZM280.684 187.748L286.468 190.715L285.726 192.16L279.943 189.194L280.684 187.748ZM304.555 190.295L309.033 192.222L308.391 193.715L303.913 191.788L304.555 190.295ZM308.391 193.715L309.884 194.357L306.672 201.82L300.701 199.251L301.344 197.758L305.822 199.685L307.106 196.7L302.628 194.773L303.271 193.28L307.749 195.207L308.391 193.715ZM301.344 197.758L299.851 197.116L301.136 194.131L302.628 194.773L301.344 197.758ZM315.629 195.009L317.141 195.603L314.171 203.165L312.659 202.571L315.629 195.009ZM314.171 203.165L317.196 204.353L316.603 205.866L313.577 204.678L314.171 203.165ZM325.335 198.769L326.866 199.314L326.321 200.845L327.852 201.39L327.307 202.921L325.776 202.376L323.596 208.5L322.066 207.955L325.335 198.769ZM327.852 201.39L328.397 199.859L331.459 200.949L330.914 202.48L327.852 201.39ZM338.23 203.251L342.874 204.734L342.38 206.282L337.736 204.799L338.23 203.251ZM342.38 206.282L343.928 206.776L342.94 209.872L336.747 207.895L335.759 210.991L334.211 210.497L336.188 204.305L337.736 204.799L337.242 206.347L341.886 207.83L342.38 206.282ZM335.759 210.991L341.951 212.968L341.457 214.516L335.265 212.539L335.759 210.991ZM351.222 207.276L355.919 208.581L355.484 210.147L350.787 208.842L351.222 207.276ZM355.484 210.147L357.05 210.582L354.875 218.41L348.612 216.67L349.047 215.105L353.744 216.41L354.614 213.278L349.917 211.973L350.352 210.408L355.049 211.712L355.484 210.147ZM349.047 215.105L347.481 214.67L348.351 211.538L349.917 211.973L349.047 215.105ZM369.469 210.34L371.05 210.714L368.433 221.784L362.108 220.289L362.481 218.707L367.226 219.829L368.347 215.084L363.603 213.963L363.977 212.381L368.721 213.503L369.469 210.34ZM362.481 218.707L360.9 218.333L362.021 213.589L363.603 213.963L362.481 218.707ZM376.03 213.506L377.624 213.822L376.678 218.604L375.084 218.288L376.03 213.506ZM376.678 218.604L379.866 219.235L379.235 222.423L377.641 222.107L377.957 220.513L376.363 220.198L376.678 218.604ZM379.866 219.235L380.812 214.452L382.406 214.768L381.46 219.55L379.866 219.235ZM377.641 222.107L377.326 223.701L374.138 223.071L374.453 221.477L377.641 222.107ZM396.726 215.562L398.337 215.773L397.915 218.996L402.749 219.629L402.537 221.24L397.704 220.607L397.07 225.44L395.459 225.229L396.726 215.562ZM397.07 225.44L401.904 226.074L401.692 227.685L396.859 227.052L397.07 225.44ZM408.46 217.037L410.08 217.175L409.668 222.032L411.287 222.17L411.15 223.789L409.53 223.651L409.119 228.509L407.499 228.372L408.46 217.037ZM411.287 222.17L411.424 220.55L414.663 220.825L414.525 222.444L411.287 222.17ZM414.525 222.444L416.145 222.581L415.595 229.058L413.976 228.921L414.525 222.444ZM423.422 219.796L428.294 219.981L428.232 221.605L423.361 221.42L423.422 219.796ZM428.232 221.605L429.856 221.667L429.732 224.915L423.237 224.667L423.113 227.915L421.489 227.853L421.737 221.358L423.361 221.42L423.299 223.043L428.17 223.229L428.232 221.605ZM423.113 227.915L429.608 228.162L429.546 229.786L423.051 229.539L423.113 227.915ZM435.259 220.176L436.884 220.154L436.906 221.779L438.531 221.757L438.553 223.382L436.928 223.404L437.016 229.903L435.391 229.925L435.259 220.176ZM438.531 221.757L438.509 220.132L441.759 220.089L441.781 221.713L438.531 221.757ZM448.744 219.846L453.609 219.539L453.711 221.161L448.846 221.467L448.744 219.846ZM453.711 221.161L455.333 221.058L455.538 224.302L449.05 224.711L449.255 227.955L447.633 228.057L447.224 221.57L448.846 221.467L448.948 223.089L453.814 222.782L453.711 221.161ZM449.255 227.955L455.742 227.546L455.844 229.167L449.357 229.576L449.255 227.955Z" fill="black"/>
</svg>
